<?xml version="1.0" encoding="utf-8"?>
<!-- Generator: Adobe Illustrator 16.0.0, SVG Export Plug-In . SVG Version: 6.00 Build 0)  -->
<!DOCTYPE svg PUBLIC "-//W3C//DTD SVG 1.1//EN" "http://www.w3.org/Graphics/SVG/1.1/DTD/svg11.dtd">
<svg version="1.1" xmlns="http://www.w3.org/2000/svg" xmlns:xlink="http://www.w3.org/1999/xlink" x="0px" y="0px" width="67.3px"
	 height="54.7px" viewBox="0 0 67.3 54.7" enable-background="new 0 0 67.3 54.7" xml:space="preserve">
<g id="bg">
</g>
<g id="Layer_1">
</g>
<g id="button">
</g>
<g id="Layer_5">
</g>
<g id="button-hover" display="none">
</g>
<g id="hover_extra" display="none">
</g>
<g id="icons">
	<path fill="#FFCE00" d="M0,1.1C3.1,0.5,8.8,0,14.3,0C21.5,0,26,0.9,29.7,3.4c3.4,2,5.6,5.5,5.6,10c0,4.9-3.1,9.5-8.9,11.6v0.2
		c5.7,1.4,10.8,5.9,10.8,13.3c0,4.8-2.1,8.5-5.2,11.1c-3.8,3.4-10.1,5-19.9,5c-5.4,0-9.6-0.4-12-0.7V1.1z M9.7,22.3h5
		c6.8,0,10.6-3.2,10.6-7.7c0-5-3.8-7.3-10-7.3c-2.9,0-4.5,0.2-5.6,0.4V22.3z M9.7,47c1.3,0.2,2.9,0.2,5.2,0.2c6.3,0,11.9-2.4,11.9-9
		c0-6.2-5.4-8.8-12.2-8.8H9.7V47z M45.5,27.8c0-5.3-0.1-9-0.3-12.5h8.5l0.3,7.4h0.3c1.9-5.5,6.5-8.3,10.6-8.3c1,0,1.5,0.1,2.3,0.2
		v9.2c-0.8-0.2-1.7-0.3-2.9-0.3c-4.7,0-7.9,3-8.8,7.4c-0.2,0.9-0.3,1.9-0.3,3v20.1h-9.8V27.8z"/>
</g>
<g id="Layer_7">
</g>
</svg>
