<?xml version="1.0" encoding="utf-8"?>
<!-- Generator: Adobe Illustrator 16.0.0, SVG Export Plug-In . SVG Version: 6.00 Build 0)  -->
<!DOCTYPE svg PUBLIC "-//W3C//DTD SVG 1.1//EN" "http://www.w3.org/Graphics/SVG/1.1/DTD/svg11.dtd">
<svg version="1.1" xmlns="http://www.w3.org/2000/svg" xmlns:xlink="http://www.w3.org/1999/xlink" x="0px" y="0px" width="60.2px"
	 height="53.9px" viewBox="0 0 60.2 53.9" enable-background="new 0 0 60.2 53.9" xml:space="preserve">
<g id="bg">
</g>
<g id="Layer_1">
</g>
<g id="button">
</g>
<g id="Layer_5">
</g>
<g id="button-hover" display="none">
</g>
<g id="hover_extra" display="none">
</g>
<g id="icons">
	<path fill="#FF9100" d="M14.4,38.9L9.9,53.9H0L16.9,1.3h12.3l17.1,52.6H35.9l-4.8-14.9H14.4z M29.5,31.7l-4.1-13
		c-1-3.2-1.9-6.8-2.7-9.8h-0.2c-0.8,3-1.6,6.7-2.5,9.8l-4.1,13H29.5z M60.2,5.2c0,2.9-2.1,5.1-5.5,5.1c-3.2,0-5.3-2.3-5.3-5.1
		c0-3,2.2-5.2,5.4-5.2C58.1,0,60.1,2.3,60.2,5.2z M49.9,53.9v-38h9.7v38H49.9z"/>
</g>
<g id="Layer_7">
</g>
</svg>
