<?xml version="1.0" encoding="utf-8"?>
<!-- Generator: Adobe Illustrator 16.0.0, SVG Export Plug-In . SVG Version: 6.00 Build 0)  -->
<!DOCTYPE svg PUBLIC "-//W3C//DTD SVG 1.1//EN" "http://www.w3.org/Graphics/SVG/1.1/DTD/svg11.dtd">
<svg version="1.1" xmlns="http://www.w3.org/2000/svg" xmlns:xlink="http://www.w3.org/1999/xlink" x="0px" y="0px" width="51.7px"
	 height="56.3px" viewBox="0 0 51.7 56.3" enable-background="new 0 0 51.7 56.3" xml:space="preserve">
<g id="bg">
</g>
<g id="Layer_1">
</g>
<g id="button">
</g>
<g id="Layer_5">
</g>
<g id="button-hover" display="none">
</g>
<g id="hover_extra" display="none">
</g>
<g id="icons">
	<path fill="#E33594" d="M9.6,2.8v52.6H0V2.8H9.6z M51.4,0v44.7c0,3.9,0.1,8.1,0.3,10.7h-7.9l-0.4-6h-0.1c-2.1,4.2-6.3,6.9-11.4,6.9
		c-8.3,0-14.9-7.7-14.9-19.4C17,24.1,24.3,16.5,32.7,16.5c4.8,0,8.2,2.2,9.8,5h0.1V0H51.4z M42.6,33.3c0-0.8-0.1-1.7-0.2-2.5
		C41.6,27,38.8,24,34.8,24c-5.6,0-8.8,5.5-8.8,12.6c0,6.9,3.1,12,8.7,12c3.6,0,6.7-2.7,7.6-6.8c0.2-0.9,0.3-1.8,0.3-2.8V33.3z"/>
</g>
<g id="Layer_7">
</g>
</svg>
