<?xml version="1.0" encoding="utf-8"?>
<!-- Generator: Adobe Illustrator 16.0.0, SVG Export Plug-In . SVG Version: 6.00 Build 0)  -->
<!DOCTYPE svg PUBLIC "-//W3C//DTD SVG 1.1//EN" "http://www.w3.org/Graphics/SVG/1.1/DTD/svg11.dtd">
<svg version="1.1" xmlns="http://www.w3.org/2000/svg" xmlns:xlink="http://www.w3.org/1999/xlink" x="0px" y="0px" width="63.5px"
	 height="53.9px" viewBox="0 0 63.5 53.9" enable-background="new 0 0 63.5 53.9" xml:space="preserve">
<g id="bg">
</g>
<g id="Layer_1">
</g>
<g id="button">
</g>
<g id="Layer_5">
</g>
<g id="button-hover" display="none">
</g>
<g id="hover_extra" display="none">
</g>
<g id="icons">
	<path fill="#50B0FF" d="M0,1.1C3.4,0.5,8.2,0,14.7,0c7,0,12.2,1.5,15.5,4.3c3.1,2.6,5.2,6.7,5.2,11.6c0,5-1.6,9.1-4.5,11.9
		c-3.8,3.8-9.8,5.6-16.6,5.6c-1.8,0-3.4-0.1-4.7-0.3V53H0V1.1z M9.5,25.6c1.2,0.3,2.7,0.4,4.7,0.4c7.2,0,11.6-3.5,11.6-9.7
		c0-5.9-4.1-9-10.7-9c-2.7,0-4.5,0.2-5.5,0.5V25.6z M38.3,44.2c2.2,1.3,6.3,2.7,9.8,2.7c4.2,0,6.1-1.7,6.1-4.2
		c0-2.6-1.6-3.9-6.2-5.5c-7.4-2.6-10.5-6.6-10.5-11.1c0-6.7,5.5-11.9,14.4-11.9c4.2,0,7.9,1.1,10.1,2.3L60,23.2
		c-1.6-0.9-4.7-2.2-8-2.2c-3.4,0-5.3,1.6-5.3,4c0,2.4,1.8,3.6,6.6,5.3c6.9,2.5,10.1,6,10.1,11.6c0,6.9-5.4,11.9-15.5,11.9
		c-4.6,0-8.7-1.2-11.5-2.7L38.3,44.2z"/>
</g>
<g id="Layer_7">
</g>
</svg>
