<?xml version="1.0" encoding="utf-8"?>
<!-- Generator: Adobe Illustrator 16.0.0, SVG Export Plug-In . SVG Version: 6.00 Build 0)  -->
<!DOCTYPE svg PUBLIC "-//W3C//DTD SVG 1.1//EN" "http://www.w3.org/Graphics/SVG/1.1/DTD/svg11.dtd">
<svg version="1.1" xmlns="http://www.w3.org/2000/svg" xmlns:xlink="http://www.w3.org/1999/xlink" x="0px" y="0px" width="117.2px"
	 height="31.5px" viewBox="0 0 117.2 31.5" enable-background="new 0 0 117.2 31.5" xml:space="preserve">
<g id="bg">
</g>
<g id="Layer_1">
</g>
<g id="button">
</g>
<g id="Layer_5">
</g>
<g id="button-hover" display="none">
</g>
<g id="hover_extra" display="none">
</g>
<g id="icons">
	<path fill="#FF0068" d="M68.9,12.8C46.3,9.7,27-0.3,22.3,3.3c-1.7,1.3-1.8,4.7-1.8,6.8c-0.3-0.1-0.7-0.3-1.1-0.5
		c0.5-2.7,0.3-4.5-0.1-5.7c0.3-1.3,0.7-2,0.7-2s-0.8,0.2-1.4,0.8c-0.4-0.5-0.8-0.7-0.8-0.7s0.1,0.5,0.3,1.4
		c-0.1,0.2-0.2,0.4-0.2,0.6C17.3,1.9,17.7,0,17.7,0s-2,1.7-1,5c-1.5-1.4-1.5-3.7-1.5-3.7S13,2.6,14.9,5.5c-0.4-0.1-1.1-0.1-1.1-0.1
		s1.9,1,3.9,3.6C11.6,6.4,0.4,1.7,0,1.2c0.1,0,1.5,4.2,16.6,10.3c-2.2,0.7-5.9,0.1-5.9,0.1s0.4,0.6,1.8,1C8.9,13.8,8.8,16,8.8,16
		s1.9-1.9,4.2-2.2c0.1,0.4-3.2,2.1-3.2,2.1s1.1,0.3,2.4-0.2c-1.1,1.6-0.2,2.9-0.2,2.9s0.8-2.3,3.1-3.3c-0.7,1,0.3,3.9,0.3,3.9
		s1.1-4.4,3.2-6.9c0.3,0.1,0.6,0.2,0.9,0.3c-1,1.6-2.4,4.5-0.8,6.3c13.8,16.3,96.5,13.7,98.5,9.1C114.1,22.5,96.8,16.7,68.9,12.8z"
		/>
</g>
<g id="Layer_7">
</g>
</svg>
