<?xml version="1.0" encoding="utf-8"?>
<!-- Generator: Adobe Illustrator 16.0.0, SVG Export Plug-In . SVG Version: 6.00 Build 0)  -->
<!DOCTYPE svg PUBLIC "-//W3C//DTD SVG 1.1//EN" "http://www.w3.org/Graphics/SVG/1.1/DTD/svg11.dtd">
<svg version="1.1" xmlns="http://www.w3.org/2000/svg" xmlns:xlink="http://www.w3.org/1999/xlink" x="0px" y="0px" width="60.5px"
	 height="65.8px" viewBox="0 0 60.5 65.8" enable-background="new 0 0 60.5 65.8" xml:space="preserve">
<g id="bg">
</g>
<g id="Layer_1">
</g>
<g id="button">
</g>
<g id="Layer_5">
</g>
<g id="button-hover" display="none">
</g>
<g id="hover_extra" display="none">
</g>
<g id="icons">
	<path d="M30.2,12.4C19,12.4,9.9,21.5,9.9,32.8c0,11.3,9.1,20.4,20.4,20.4c11.3,0,20.4-9.1,20.4-20.4C50.6,21.5,41.5,12.4,30.2,12.4
		z M38.4,44.4l-8.1-4.3l-8.1,4.3l1.5-9.1l-6.6-6.4l9.1-1.3l4.1-8.2l4.1,8.2l9.1,1.3l-6.6,6.4L38.4,44.4z M60.5,20.1l-5,2.1
		C51.2,12,41.3,5.4,30.2,5.4S9.3,12,5,22.2l-5-2.1C5.1,7.9,17,0,30.2,0C43.5,0,55.3,7.9,60.5,20.1z M47.2,54.6l3.3,4.3
		c-5.8,4.5-12.8,6.9-20.2,6.9c-7.4,0-14.4-2.4-20.2-6.9l3.3-4.3c4.8,3.8,10.7,5.8,16.8,5.8C36.6,60.3,42.4,58.3,47.2,54.6z"/>
</g>
<g id="Layer_7">
</g>
</svg>
