<?xml version="1.0" encoding="utf-8"?>
<!-- Generator: Adobe Illustrator 16.0.0, SVG Export Plug-In . SVG Version: 6.00 Build 0)  -->
<!DOCTYPE svg PUBLIC "-//W3C//DTD SVG 1.1//EN" "http://www.w3.org/Graphics/SVG/1.1/DTD/svg11.dtd">
<svg version="1.1" xmlns="http://www.w3.org/2000/svg" xmlns:xlink="http://www.w3.org/1999/xlink" x="0px" y="0px" width="68.9px"
	 height="65.5px" viewBox="0 0 68.9 65.5" enable-background="new 0 0 68.9 65.5" xml:space="preserve">
<g id="bg">
</g>
<g id="Layer_1">
</g>
<g id="button">
</g>
<g id="Layer_5">
</g>
<g id="button-hover" display="none">
</g>
<g id="hover_extra" display="none">
</g>
<g id="icons">
	<path d="M68.9,44.1c0,11.8-9.6,21.4-21.4,21.4c-4.9,0-9.5-1.7-13.1-4.5c5.1-3.9,8.3-10,8.3-16.9c0-1-0.1-1.9-0.2-2.9
		c4.2-1.7,8-4.8,10.4-9.1c1.4-2.5,2.3-5.1,2.7-7.8C63.5,27.5,68.9,35.1,68.9,44.1z M26.2,44.1c0-1,0.1-1.9,0.2-2.9
		c-0.9-0.4-1.8-0.8-2.6-1.3c-6-3.4-9.6-9.3-10.5-15.7C5.5,27.5,0,35.1,0,44.1c0,11.8,9.6,21.4,21.4,21.4c4.9,0,9.5-1.7,13.1-4.5
		C29.4,57.1,26.2,50.9,26.2,44.1z M34.5,27.2c3.6-2.8,8.1-4.5,13.1-4.5c2.9,0,5.6,0.6,8.1,1.6c1.1-8.3-2.8-16.9-10.5-21.4
		C34.9-3,21.9,0.5,15.9,10.7c-2.5,4.3-3.3,9-2.7,13.6c2.5-1,5.2-1.6,8.1-1.6C26.3,22.7,30.9,24.3,34.5,27.2z M34.5,27.2
		c-4.3,3.4-7.3,8.3-8.1,14c5.3,2.2,11.1,2.1,16.2,0C41.8,35.5,38.8,30.5,34.5,27.2z"/>
</g>
<g id="Layer_7">
</g>
</svg>
