<?xml version="1.0" encoding="utf-8"?>
<!-- Generator: Adobe Illustrator 16.0.0, SVG Export Plug-In . SVG Version: 6.00 Build 0)  -->
<!DOCTYPE svg PUBLIC "-//W3C//DTD SVG 1.1//EN" "http://www.w3.org/Graphics/SVG/1.1/DTD/svg11.dtd">
<svg version="1.1" xmlns="http://www.w3.org/2000/svg" xmlns:xlink="http://www.w3.org/1999/xlink" x="0px" y="0px" width="64.5px"
	 height="72.6px" viewBox="0 0 64.5 72.6" enable-background="new 0 0 64.5 72.6" xml:space="preserve">
<g id="bg" display="none">
</g>
<g id="Layer_1" display="none">
</g>
<g id="button" display="none">
</g>
<g id="Layer_5" display="none">
</g>
<g id="button-hover" display="none">
</g>
<g id="hover_extra" display="none">
</g>
<g id="icons">
	<path fill="#0080FF" d="M0,0l6,65.5l26.2,7.1l26.2-7.1L64.5,0H0z M51.5,21.2l-19.3,8.2l0,0h0h18.6l-2.1,24.5l-16.5,4.8l0,0v0
		L15.7,54l-1.1-12.4h0h8.2h0l0.5,6.4l8.8,2.2l0.1,0v0l9.1-2.6L42,37.3l-9.7,0l-18.1-0.1l-0.6-7.7l19.9-8.3H12.8l-1-7.9h20.5h20.1
		L51.5,21.2z"/>
</g>
<g id="Layer_7" display="none">
</g>
</svg>
