<?xml version="1.0" encoding="utf-8"?>
<!-- Generator: Adobe Illustrator 16.0.0, SVG Export Plug-In . SVG Version: 6.00 Build 0)  -->
<!DOCTYPE svg PUBLIC "-//W3C//DTD SVG 1.1//EN" "http://www.w3.org/Graphics/SVG/1.1/DTD/svg11.dtd">
<svg version="1.1" xmlns="http://www.w3.org/2000/svg" xmlns:xlink="http://www.w3.org/1999/xlink" x="0px" y="0px" width="56px"
	 height="68.7px" viewBox="0 0 56 68.7" enable-background="new 0 0 56 68.7" xml:space="preserve">
<g id="bg">
</g>
<g id="Layer_1">
</g>
<g id="button">
</g>
<g id="Layer_5">
</g>
<g id="button-hover" display="none">
</g>
<g id="hover_extra" display="none">
</g>
<g id="icons">
	<path fill="#00A4FF" d="M38.1,17.8V0h-33C2.3,0,0,2.3,0,5.1v58.5c0,2.8,2.3,5.1,5.1,5.1h45.8c2.8,0,5.1-2.3,5.1-5.1V33.1V17.8H38.1
		z M30.5,52.5H8.9v-3.8h21.6V52.5z M47.1,43.6H8.9v-3.8h38.2V43.6z M47.1,34.7H8.9v-3.8h38.2V34.7z M47.1,25.8H8.9V22h38.2V25.8z
		 M56,16.6H39.4V0L56,16.6z"/>
</g>
<g id="Layer_7">
</g>
</svg>
