<?xml version="1.0" encoding="utf-8"?>
<!-- Generator: Adobe Illustrator 16.0.0, SVG Export Plug-In . SVG Version: 6.00 Build 0)  -->
<!DOCTYPE svg PUBLIC "-//W3C//DTD SVG 1.1//EN" "http://www.w3.org/Graphics/SVG/1.1/DTD/svg11.dtd">
<svg version="1.1" xmlns="http://www.w3.org/2000/svg" xmlns:xlink="http://www.w3.org/1999/xlink" x="0px" y="0px" width="56px"
	 height="68.7px" viewBox="0 0 56 68.7" enable-background="new 0 0 56 68.7" xml:space="preserve">
<g id="bg">
</g>
<g id="Layer_1">
</g>
<g id="button">
</g>
<g id="Layer_5">
</g>
<g id="button-hover" display="none">
</g>
<g id="hover_extra" display="none">
</g>
<g id="icons">
	<path fill="#48CC55" d="M11.4,42.7h8.9v6.4h-8.9V42.7z M11.4,40.2h8.9v-6.4h-8.9V40.2z M22.9,31.3h21.6v-6.4H22.9V31.3z M22.9,40.2
		h21.6v-6.4H22.9V40.2z M0,63.6V5.1C0,2.3,2.3,0,5.1,0h33v17.8H56v15.3v30.4c0,2.8-2.3,5.1-5.1,5.1H5.1C2.3,68.7,0,66.4,0,63.6z
		 M8.9,51.6h38.2V22.3H8.9V51.6z M11.4,31.3h8.9v-6.4h-8.9V31.3z M22.9,49.1h21.6v-6.4H22.9V49.1z M39.4,0v16.6H56L39.4,0z"/>
</g>
<g id="Layer_7">
</g>
</svg>
