<?xml version="1.0" encoding="utf-8"?>
<!-- Generator: Adobe Illustrator 16.0.0, SVG Export Plug-In . SVG Version: 6.00 Build 0)  -->
<!DOCTYPE svg PUBLIC "-//W3C//DTD SVG 1.1//EN" "http://www.w3.org/Graphics/SVG/1.1/DTD/svg11.dtd">
<svg version="1.1" xmlns="http://www.w3.org/2000/svg" xmlns:xlink="http://www.w3.org/1999/xlink" x="0px" y="0px" width="56px"
	 height="68.7px" viewBox="0 0 56 68.7" enable-background="new 0 0 56 68.7" xml:space="preserve">
<g id="bg">
</g>
<g id="Layer_1">
</g>
<g id="button">
</g>
<g id="Layer_5">
</g>
<g id="button-hover" display="none">
</g>
<g id="hover_extra" display="none">
</g>
<g id="icons">
	<path fill="#FFDA00" d="M5.1,68.7h45.8c2.8,0,5.1-2.3,5.1-5.1V33.1V17.8H38.1V0h-33C2.3,0,0,2.3,0,5.1v58.5
		C0,66.4,2.3,68.7,5.1,68.7z M8.9,19.4c0-1.4,1.1-2.5,2.5-2.5h22.3c1.4,0,2.5,1.1,2.5,2.5V27h8.3c1.4,0,2.5,1.1,2.5,2.5v21
		c0,1.4-1.1,2.5-2.5,2.5H22.3c-1.4,0-2.5-1.1-2.5-2.5v-7.6h-8.3c-1.4,0-2.5-1.1-2.5-2.5V19.4z M33.7,37.9H11.4V22h22.3V37.9z
		 M33.7,42.9c1.4,0,2.5-1.1,2.5-2.5v-8.3h8.3V48H22.3v-5.1H33.7z M56,16.6H39.4V0L56,16.6z"/>
</g>
<g id="Layer_7">
</g>
</svg>
