<?xml version="1.0" encoding="utf-8"?>
<!-- Generator: Adobe Illustrator 16.0.0, SVG Export Plug-In . SVG Version: 6.00 Build 0)  -->
<!DOCTYPE svg PUBLIC "-//W3C//DTD SVG 1.1//EN" "http://www.w3.org/Graphics/SVG/1.1/DTD/svg11.dtd">
<svg version="1.1" xmlns="http://www.w3.org/2000/svg" xmlns:xlink="http://www.w3.org/1999/xlink" x="0px" y="0px" width="65.2px"
	 height="88.3px" viewBox="0 0 65.2 88.3" enable-background="new 0 0 65.2 88.3" xml:space="preserve">
<g id="bg">
</g>
<g id="Layer_1">
</g>
<g id="button">
</g>
<g id="Layer_5">
</g>
<g id="button-hover" display="none">
</g>
<g id="hover_extra" display="none">
</g>
<g id="icons">
	<g>
		<g>
			<path fill="#CE8A41" d="M65.2,38.9c0.3-7-5.5-1.3-4.1-12.1c3.6-3.6,3.4-10-3.3-10.8c-3-7.1,6.9-7.8,6.9-7.8s-9.1-12.5-22,2.6
				c0,0-0.6-0.2-1.6-0.4c-0.6-3.4,1.5-6.6,1.5-6.6s-2.4-0.4-5.8,2.6C35,3.2,36.4,0,36.4,0s-6,1.6-6.8,7c-1.5-1.4-1.2-4.7-1.2-4.7
				s-4.8,1.9-4.7,8.2c-0.7,0.2-1.1,0.3-1.1,0.3C9.6-4.3,0.5,8.2,0.5,8.2s9.9,0.7,6.9,7.8c-6.7,0.8-6.9,7.2-3.3,10.8
				C5.5,37.6-0.3,31.8,0,38.9c0.6,12.5,12.3,1.2,10.1,18.8C10,59,9.8,60.5,9.5,62.2c-1.9-1.7-3.4-4.1-4.1-7.5
				c-7.6,7.4-3.6,18.8,5,21.8c1.6,3.9,4.9,7.2,11.2,8.4c0,0,3.5,3.4,11,3.4c7.5,0,11-3.4,11-3.4c6.3-1.2,9.6-4.4,11.2-8.4
				c8.6-3,12.6-14.3,5-21.8c-0.8,3.4-2.3,5.8-4.1,7.5c-0.2-1.7-0.5-3.3-0.6-4.5C52.9,40.1,64.6,51.4,65.2,38.9z M14.9,32.3
				c1.9,1,7,4.7,7.7,6.4C20.5,40.5,12.9,40.3,14.9,32.3z M4.7,59.6c2.6,7.2,9.7,7.5,12.8,7.8c-0.7,2-3.6,2.7-2.2,7.5
				C7.2,75.6,0.9,65.8,4.7,59.6z M50.3,32.3c2,8-5.6,8.2-7.7,6.4C43.3,37,48.4,33.3,50.3,32.3z M60.5,59.6c3.8,6.3-2.5,16-10.7,15.3
				c1.5-4.7-1.5-5.5-2.2-7.5C50.8,67.1,58,66.8,60.5,59.6z"/>
		</g>
	</g>
</g>
<g id="Layer_7">
</g>
</svg>
