<?xml version="1.0" encoding="utf-8"?>
<!-- Generator: Adobe Illustrator 16.0.0, SVG Export Plug-In . SVG Version: 6.00 Build 0)  -->
<!DOCTYPE svg PUBLIC "-//W3C//DTD SVG 1.1//EN" "http://www.w3.org/Graphics/SVG/1.1/DTD/svg11.dtd">
<svg version="1.1" xmlns="http://www.w3.org/2000/svg" xmlns:xlink="http://www.w3.org/1999/xlink" x="0px" y="0px" width="65.3px"
	 height="65.3px" viewBox="0 0 65.3 65.3" enable-background="new 0 0 65.3 65.3" xml:space="preserve">
<g id="bg">
</g>
<g id="Layer_1">
</g>
<g id="button">
</g>
<g id="Layer_5">
</g>
<g id="button-hover" display="none">
</g>
<g id="hover_extra" display="none">
</g>
<g id="icons">
	<path d="M50.3,0c-8.3,0-15,6.7-15,15c0,8.3,6.7,15,15,15c8.3,0,15-6.7,15-15C65.3,6.7,58.6,0,50.3,0z M48.4,23l-1.9-1.9l6.1-6.1
		l-6.1-6.1L48.4,7l8,8L48.4,23z M15,35.3c-8.3,0-15,6.7-15,15c0,8.3,6.7,15,15,15c8.3,0,15-6.7,15-15C30,42,23.3,35.3,15,35.3z
		 M21.1,54.6l-1.9,1.9L15,52.3l-4.2,4.2l-1.9-1.9l4.2-4.2l-4.2-4.2l1.9-1.9l4.2,4.2l4.2-4.2l1.9,1.9l-4.2,4.2L21.1,54.6z M50.3,35.3
		c-8.3,0-15,6.7-15,15c0,8.3,6.7,15,15,15c8.3,0,15-6.7,15-15C65.3,42,58.6,35.3,50.3,35.3z M51.7,58.4H49v-8.9h-1.6v-2.7h4.3V58.4z
		 M51.7,44.7H49v-3h2.7V44.7z M15,0C6.7,0,0,6.7,0,15c0,8.3,6.7,15,15,15c8.3,0,15-6.7,15-15C30,6.7,23.3,0,15,0z M22.3,21.6H7.7
		v-2.7h14.6V21.6z M22.3,16.4H7.7v-2.7h14.6V16.4z M22.3,11.2H7.7V8.5h14.6V11.2z"/>
</g>
<g id="Layer_7">
</g>
</svg>
