<?xml version="1.0" encoding="utf-8"?>
<!-- Generator: Adobe Illustrator 16.0.0, SVG Export Plug-In . SVG Version: 6.00 Build 0)  -->
<!DOCTYPE svg PUBLIC "-//W3C//DTD SVG 1.1//EN" "http://www.w3.org/Graphics/SVG/1.1/DTD/svg11.dtd">
<svg version="1.1" xmlns="http://www.w3.org/2000/svg" xmlns:xlink="http://www.w3.org/1999/xlink" x="0px" y="0px" width="62.2px"
	 height="51.4px" viewBox="0 0 62.2 51.4" enable-background="new 0 0 62.2 51.4" xml:space="preserve">
<g id="bg">
</g>
<g id="Layer_1">
</g>
<g id="button">
</g>
<g id="Layer_5">
</g>
<g id="button-hover" display="none">
</g>
<g id="hover_extra" display="none">
</g>
<g id="icons">
	<path d="M0,0h62.2v10.8H0V0z M16.1,23.4h43.6V18H16.1V23.4z M16.1,36.8h43.6v-5.4H16.1V36.8z M16.1,50.2h43.6v-5.4H16.1V50.2z
		 M6.2,16.8c-2.1,0-3.9,1.7-3.9,3.9c0,2.1,1.7,3.9,3.9,3.9c2.1,0,3.9-1.7,3.9-3.9C10.1,18.6,8.3,16.8,6.2,16.8z M6.2,30.2
		c-2.1,0-3.9,1.7-3.9,3.9C2.3,36.2,4,38,6.2,38c2.1,0,3.9-1.7,3.9-3.9C10.1,32,8.3,30.2,6.2,30.2z M6.2,43.6c-2.1,0-3.9,1.7-3.9,3.9
		c0,2.1,1.7,3.9,3.9,3.9c2.1,0,3.9-1.7,3.9-3.9C10.1,45.4,8.3,43.6,6.2,43.6z"/>
</g>
<g id="Layer_7">
</g>
</svg>
