<?xml version="1.0" encoding="utf-8"?>
<!-- Generator: Adobe Illustrator 16.0.0, SVG Export Plug-In . SVG Version: 6.00 Build 0)  -->
<!DOCTYPE svg PUBLIC "-//W3C//DTD SVG 1.1//EN" "http://www.w3.org/Graphics/SVG/1.1/DTD/svg11.dtd">
<svg version="1.1" xmlns="http://www.w3.org/2000/svg" xmlns:xlink="http://www.w3.org/1999/xlink" x="0px" y="0px" width="72.4px"
	 height="72.4px" viewBox="0 0 72.4 72.4" enable-background="new 0 0 72.4 72.4" xml:space="preserve">
<g id="bg">
</g>
<g id="Layer_1">
</g>
<g id="button">
</g>
<g id="Layer_5">
</g>
<g id="button-hover" display="none">
</g>
<g id="hover_extra" display="none">
</g>
<g id="icons">
	<path fill="#FFCE00" d="M0,0v72.4h72.4V0H0z M39.5,54.7c0,1.9-0.2,3.6-0.7,5c-0.5,1.4-1.1,2.6-2,3.6c-0.9,1-2,1.7-3.2,2.2
		c-1.3,0.5-2.7,0.8-4.3,0.8c-2.3,0-4.1-0.5-5.7-1.4c-1.5-1-2.8-2.1-3.8-3.4l4-5c0.8,1,1.7,1.8,2.5,2.4c0.8,0.6,1.8,0.9,2.8,0.9
		c1.2,0,2.2-0.4,2.8-1.3c0.7-0.8,1-2.2,1-4.1V33.5h6.5V54.7z M66.8,56.3c0,1.6-0.3,3-0.8,4.3c-0.5,1.2-1.2,2.3-2.2,3.1
		c-0.9,0.8-2,1.5-3.3,1.9c-1.3,0.4-2.7,0.7-4.3,0.7c-2.2,0-4.3-0.4-6.5-1.3c-2.1-0.8-4-2.1-5.8-3.9l3.7-5c1.3,1.2,2.7,2.2,4.1,2.9
		c1.4,0.7,2.9,1.1,4.6,1.1c1.3,0,2.3-0.3,3.1-0.8c0.7-0.5,1.1-1.3,1.1-2.2v-0.1c0-0.5-0.1-0.9-0.2-1.2c-0.2-0.4-0.4-0.7-0.9-1
		c-0.4-0.3-1-0.6-1.8-0.9c-0.8-0.3-1.7-0.6-3-1c-1.5-0.4-2.8-0.8-4-1.3c-1.2-0.5-2.2-1.1-3-1.8c-0.8-0.7-1.5-1.6-1.9-2.7
		c-0.5-1.1-0.7-2.4-0.7-4v-0.1c0-1.5,0.2-2.8,0.7-4c0.5-1.2,1.2-2.2,2.1-3.1c0.9-0.9,1.9-1.5,3.2-2c1.2-0.5,2.6-0.7,4.1-0.7
		c2.1,0,4.1,0.4,5.8,1.1c1.8,0.7,3.4,1.7,4.9,3.1l-3.3,5.4c-1.3-1-2.6-1.8-3.8-2.3c-1.2-0.6-2.5-0.9-3.7-0.9c-1.2,0-2.2,0.3-2.8,0.8
		c-0.6,0.5-0.9,1.2-0.9,2v0.1c0,0.5,0.1,1,0.3,1.4c0.2,0.4,0.5,0.7,1,1c0.5,0.3,1.1,0.6,1.9,0.9c0.8,0.3,1.8,0.6,3.1,1
		c1.5,0.4,2.8,0.9,3.9,1.5c1.1,0.5,2.1,1.2,2.9,1.9c0.8,0.8,1.4,1.6,1.8,2.7C66.6,53.5,66.8,54.8,66.8,56.3L66.8,56.3z"/>
</g>
<g id="Layer_7">
</g>
</svg>
