<?xml version="1.0" encoding="utf-8"?>
<!-- Generator: Adobe Illustrator 16.0.0, SVG Export Plug-In . SVG Version: 6.00 Build 0)  -->
<!DOCTYPE svg PUBLIC "-//W3C//DTD SVG 1.1//EN" "http://www.w3.org/Graphics/SVG/1.1/DTD/svg11.dtd">
<svg version="1.1" xmlns="http://www.w3.org/2000/svg" xmlns:xlink="http://www.w3.org/1999/xlink" x="0px" y="0px" width="85.3px"
	 height="70.6px" viewBox="0 0 85.3 70.6" enable-background="new 0 0 85.3 70.6" xml:space="preserve">
<g id="bg">
</g>
<g id="Layer_1">
</g>
<g id="button">
</g>
<g id="Layer_5">
</g>
<g id="button-hover" display="none">
</g>
<g id="hover_extra" display="none">
</g>
<g id="icons">
	<path fill="#0093ED" d="M85.1,15.9c1.2,8.9-3.5,18.6-6.7,27.2c3.3,0.3,6.2,0,6.4,0.2c0.2,0.3-2.2,10.2-3,10.2
		c-2.6,0.1-11.2,0.1-14.8,0.1c-11.8,0-22.8,0.8-28.4-5.1c-2.3-2.4-3.9-6.4-4.2-9.3c-0.6-4.8,0.2-10,1.3-14.4c1-3.9,2.3-7.6,4.2-11
		c4.9-8.6,13.5-15,27.9-13.5c2.8,0.3,6.8,1.5,9.3,3c0.2,0.1,0.8,0.6,0.9,0.7C81.3,6,84.4,11.1,85.1,15.9z M70.2,31.5
		c1.1-4,2.7-8.3,2.5-11.9c-0.2-3.8-3.4-7.3-5.5-8C61,9.4,55.2,12.5,52.9,15c-3,3.2-4,7-5.1,12.3c-0.8,3.9-1.4,8,0,11
		c2.5,5.4,10.5,4.2,19,4.2C68.1,39.1,69.2,35.3,70.2,31.5z M21.6,11.2c-0.9,3.1-1.6,6.6-2.5,10.2c3.9,0,7.9,0,11.9,0
		c0.7-3.2,1.5-6.9,2.2-10.1C28.9,11.3,25.3,11.2,21.6,11.2z M13.9,43.8c-1.8,8.2-2,16.8-11,15.7c-0.9,3.2-2,7.4-2.9,11
		c3.7,0.1,7.1,0.4,10.1,0c1.9-0.2,5.2-1,5.9-1.7c0.3-0.3,0.5-0.1,0.8-0.4c3.9-3.1,4.9-7.3,6.4-13.1c2.3-9.3,5.3-22.6,6.8-30.9
		c-3.8,0-7.6,0-11.4,0C18,26.2,14.9,39.1,13.9,43.8z M70.9,53.7"/>
</g>
<g id="Layer_7">
</g>
</svg>
