<?xml version="1.0" encoding="utf-8"?>
<!-- Generator: Adobe Illustrator 16.0.0, SVG Export Plug-In . SVG Version: 6.00 Build 0)  -->
<!DOCTYPE svg PUBLIC "-//W3C//DTD SVG 1.1//EN" "http://www.w3.org/Graphics/SVG/1.1/DTD/svg11.dtd">
<svg version="1.1" xmlns="http://www.w3.org/2000/svg" xmlns:xlink="http://www.w3.org/1999/xlink" x="0px" y="0px" width="88.8px"
	 height="48.9px" viewBox="0 0 88.8 48.9" enable-background="new 0 0 88.8 48.9" xml:space="preserve">
<g id="bg">
</g>
<g id="Layer_1">
</g>
<g id="button">
</g>
<g id="Layer_5">
</g>
<g id="button-hover" display="none">
</g>
<g id="hover_extra" display="none">
</g>
<g id="icons">
	<path d="M48.9,0H0v48.9h48.9V0z M20.9,24.7L5.4,40.1V9.2L20.9,24.7z M9.2,5.4h30.9L24.7,20.9L9.2,5.4z M24.7,28.5l15,15H9.7
		L24.7,28.5z M28.5,24.7l15-15v29.9L28.5,24.7z M57.5,0h31.2v5.4H57.5V0z M57.5,14.5h31.2v5.4H57.5V14.5z M57.5,29h31.2v5.4H57.5V29
		z M57.5,43.5h31.2v5.4H57.5V43.5z"/>
</g>
<g id="Layer_7">
</g>
</svg>
