<?xml version="1.0" encoding="utf-8"?>
<!-- Generator: Adobe Illustrator 16.0.0, SVG Export Plug-In . SVG Version: 6.00 Build 0)  -->
<!DOCTYPE svg PUBLIC "-//W3C//DTD SVG 1.1//EN" "http://www.w3.org/Graphics/SVG/1.1/DTD/svg11.dtd">
<svg version="1.1" xmlns="http://www.w3.org/2000/svg" xmlns:xlink="http://www.w3.org/1999/xlink" x="0px" y="0px" width="90.1px"
	 height="77.6px" viewBox="0 0 90.1 77.6" enable-background="new 0 0 90.1 77.6" xml:space="preserve">
<g id="bg">
</g>
<g id="Layer_1">
</g>
<g id="button">
</g>
<g id="Layer_5">
</g>
<g id="button-hover" display="none">
</g>
<g id="hover_extra" display="none">
</g>
<g id="icons">
	<path fill="#0093E5" d="M57.2,75.8c7.2-51.9,28.2-39.3,11.7-5.3c-0.5,1,3.2,3.5,4.4,2.6c24-18.1,19.5-52.7,3.2-62.8
		C74,8.8,56,23.2,56.3,25c0.7,4.7,7.9,9.8,7.9,9.8s-9.1-3.1-10.4-10.5c-0.2-1,7.2-8.1,10.9-10.1c-36.5-35-77.4,0.9-61,38.5
		C3.2,45,5.2,38.3,5.2,38.3s8.7,29.5,9,37.1c0.1,2.8,16.2,2.7,15.9-0.2C26,43,45.9,38.8,42.6,75.9C42.4,78.1,56.9,78.3,57.2,75.8z"
		/>
</g>
<g id="Layer_7">
</g>
</svg>
