<?xml version="1.0" encoding="utf-8"?>
<!-- Generator: Adobe Illustrator 16.0.0, SVG Export Plug-In . SVG Version: 6.00 Build 0)  -->
<!DOCTYPE svg PUBLIC "-//W3C//DTD SVG 1.1//EN" "http://www.w3.org/Graphics/SVG/1.1/DTD/svg11.dtd">
<svg version="1.1" xmlns="http://www.w3.org/2000/svg" xmlns:xlink="http://www.w3.org/1999/xlink" x="0px" y="0px" width="84.8px"
	 height="82.8px" viewBox="0 0 84.8 82.8" enable-background="new 0 0 84.8 82.8" xml:space="preserve">
<g id="bg">
</g>
<g id="Layer_1">
</g>
<g id="button">
</g>
<g id="Layer_5">
</g>
<g id="button-hover" display="none">
</g>
<g id="hover_extra" display="none">
</g>
<g id="icons">
	<path fill="#00C3FF" d="M84.1,81.4c-3.5-6-10.7-7.8-14.6-13.3c4-1.5,9.7-1.8,12.4-1.5c1.2,0.1,1.2-1.7,0.1-2.9
		c-1.9-2-3.9-3.9-6.1-5.7c-3.8-3-8-5.1-12.5-7c-3.6-1.6-4.1-4.2-5.7-7.8c-3.9-9.3-7.9-18-15-25.3C36.6,11.7,28.2,5.3,19,5.1
		c-1.4,0-2.5,0.1-2.5,0.1c-3-2.1-6.6-4.4-9.2-5C4.6-0.4,1.1,0,0.2,3.2c-1.2,4,3.4,8.1,5.4,11c2.3,3.4,2.8,7.6,4.5,11.3
		c1,2.1,2.1,4,3.7,5.7c1.3,1.5-0.2,3.5-0.6,5.3c-1.1,4.9-1.2,10.2,0,15.1c0.7,3,4.9,12.1,8.9,7.2c1.5-2,1.3-5.7,1.9-8.1
		c3.3,5.4,8.2,13.4,14.2,16.1c-2.8-1.6-4.8-4.7-6.6-7.3c-2.3-3.4-4.4-7-6.1-10.8c-0.4-0.9-0.7-2.9-1.9-2.9c-1-0.1-2.1,1.7-2.5,2.4
		c-1.4,2.8-0.8,5.8-1.6,8.6c-2.5,0-3.7-7.5-4-9.1c-0.6-4.2-0.3-8.6,0.9-12.6c0.6-1.9,1.5-3.2,0-5c-2.6-2.8-4.2-6.2-5.4-9.8
		c-0.9-2.8-1.5-5.2-3.2-7.7C6.8,11,1.7,5.9,3.1,3.7c2.7-3.6,11.7,4.5,13.1,4.8c7.5-1,15.3,4.1,20.7,8.9c6.3,5.6,10.9,12.2,14.4,19.9
		c1.6,3.5,3,7.1,4.6,10.6c1,2.3,1.8,4.5,4.2,5.6c6.7,3,12.7,5.6,18.4,10.5c-4-0.3-8.1-0.1-11.8,1.4c-2.7,1-1.7,3.2-0.3,5.1
		c2.3,3.2,5.9,4.8,9.4,6.6c3.3,1.7,6.2,3.6,9.1,5.8C84.6,82.3,84.3,81.8,84.1,81.4C83.8,80.9,84.3,81.8,84.1,81.4z M19.6,56.7
		C19.5,56.7,19.4,56.8,19.6,56.7C19.6,56.7,19.6,56.7,19.6,56.7z M14.7,31.6C14.7,31.6,14.7,31.6,14.7,31.6
		C14.7,31.6,14.7,31.6,14.7,31.6z M20.4,19.1c-1-2.3-1.4-3-3.2-4.8c1.7-1.1,3.9-0.3,4.4,1.7C21.9,17.2,21.4,18.4,20.4,19.1z"/>
</g>
<g id="Layer_7">
</g>
</svg>
