<?xml version="1.0" encoding="utf-8"?>
<!-- Generator: Adobe Illustrator 16.0.0, SVG Export Plug-In . SVG Version: 6.00 Build 0)  -->
<!DOCTYPE svg PUBLIC "-//W3C//DTD SVG 1.1//EN" "http://www.w3.org/Graphics/SVG/1.1/DTD/svg11.dtd">
<svg version="1.1" xmlns="http://www.w3.org/2000/svg" xmlns:xlink="http://www.w3.org/1999/xlink" x="0px" y="0px" width="97.9px"
	 height="45.9px" viewBox="0 0 97.9 45.9" enable-background="new 0 0 97.9 45.9" xml:space="preserve">
<g id="bg">
</g>
<g id="Layer_1">
</g>
<g id="button">
</g>
<g id="Layer_5">
</g>
<g id="button-hover" display="none">
</g>
<g id="hover_extra" display="none">
</g>
<g id="icons">
	<path fill="#3964FF" d="M19.2,15.4c3,0,5,0.6,6,1.7c1,1.1,1.2,3,0.7,5.7c-0.5,2.8-1.6,4.8-3.2,6c-1.6,1.2-3.9,1.8-7.1,1.8h-4.8
		l3-15.2H19.2z M0,45.9h7.9l1.9-9.6h6.8c3,0,5.4-0.3,7.4-0.9c1.9-0.6,3.7-1.7,5.3-3.2c1.3-1.2,2.4-2.6,3.2-4
		c0.8-1.5,1.4-3.1,1.7-4.9c0.8-4.3,0.2-7.6-1.9-10c-2.1-2.4-5.4-3.6-10-3.6H7L0,45.9z M41.7,0h7.8l-1.9,9.6h7c4.4,0,7.4,0.8,9.1,2.3
		c1.7,1.5,2.2,4,1.5,7.4l-3.3,16.9h-8l3.1-16c0.4-1.8,0.2-3.1-0.4-3.7c-0.6-0.7-1.9-1-3.9-1h-6.3l-4,20.8h-7.8L41.7,0z M82.7,15.4
		c3,0,5,0.6,6,1.7c1,1.1,1.2,3,0.7,5.7c-0.5,2.8-1.6,4.8-3.2,6c-1.6,1.2-3.9,1.8-7.1,1.8h-4.8l3-15.2H82.7z M63.4,45.9h7.9l1.9-9.6
		h6.8c3,0,5.4-0.3,7.4-0.9c1.9-0.6,3.7-1.7,5.3-3.2c1.3-1.2,2.4-2.6,3.2-4c0.8-1.5,1.4-3.1,1.7-4.9c0.8-4.3,0.2-7.6-1.9-10
		c-2.1-2.4-5.4-3.6-10-3.6H70.5L63.4,45.9z"/>
</g>
<g id="Layer_7">
</g>
</svg>
