<?xml version="1.0" encoding="utf-8"?>
<!-- Generator: Adobe Illustrator 16.0.0, SVG Export Plug-In . SVG Version: 6.00 Build 0)  -->
<!DOCTYPE svg PUBLIC "-//W3C//DTD SVG 1.1//EN" "http://www.w3.org/Graphics/SVG/1.1/DTD/svg11.dtd">
<svg version="1.1" xmlns="http://www.w3.org/2000/svg" xmlns:xlink="http://www.w3.org/1999/xlink" x="0px" y="0px" width="83.1px"
	 height="70.1px" viewBox="0 0 83.1 70.1" enable-background="new 0 0 83.1 70.1" xml:space="preserve">
<g id="bg">
</g>
<g id="Layer_1">
</g>
<g id="button">
</g>
<g id="Layer_5">
</g>
<g id="button-hover" display="none">
</g>
<g id="hover_extra" display="none">
</g>
<g id="icons">
	<g>
		<path fill="#FFFFFF" d="M83.1,63.6L76.9,8.5c-0.3-2.4-2.3-4.4-4.7-4.7l0,0C72,1.7,70.2,0,68.1,0H15c-2.1,0-3.9,1.7-4.1,3.8l0,0.2
			C8.5,4.3,6.5,6.3,6.3,8.7L0,63.5c-0.1,1.3,0.2,4.1,1.1,5.1c0.9,1,2.1,1.6,3.4,1.6h74c1.3,0,2.6-0.5,3.4-1.5
			C82.8,67.7,83.2,64.9,83.1,63.6z M72.9,51.2H10.2c-0.5,0-1-0.2-1.4-0.6c-0.3-0.4-0.5-0.9-0.4-1.4l4.1-45.3
			c0.1-1.2,1.3-2.3,2.5-2.3h53c1.2,0,2.4,1,2.5,2.3l4.1,45.3 M78.6,67.4h-74c-2.1,0-3.6-1.7-3.4-3.8L7.4,8.8C7.6,7,9,5.5,10.8,5.1
			l-4,44v7.6c-0.2,2.1,1.4,3.8,3.4,3.8h62.7c2.1,0,3.6-1.7,3.4-3.8v-7.6L72.3,5c1.7,0.4,3.2,1.9,3.4,3.7l6.2,55
			C82.1,65.7,80.6,67.4,78.6,67.4z"/>
		<path fill="#FFAA00" d="M37.9,19.9c2.3,1.8,10.8,2.3,14.1,5.7c3.4,3.4,3.8,8.4,0.1,12.1c-7.7,7.7-30.2,2.4-23.9-3.8
			c3.6-3.6,12.1,4.4,17.1-0.6c0.7-0.8,0.9-2.5,0-3.5c-2.6-2.6-10.9-2.4-14.4-6c-2.9-2.9-2.1-6.9,0.2-9.2c7.2-7.2,24.6-2.4,20,2.1
			c-3.1,3.1-9.4-3-13.3,0.9C37.1,18.3,37.1,19.3,37.9,19.9z"/>
	</g>
</g>
<g id="Layer_7">
</g>
</svg>
