<?xml version="1.0" encoding="utf-8"?>
<!-- Generator: Adobe Illustrator 16.0.0, SVG Export Plug-In . SVG Version: 6.00 Build 0)  -->
<!DOCTYPE svg PUBLIC "-//W3C//DTD SVG 1.1//EN" "http://www.w3.org/Graphics/SVG/1.1/DTD/svg11.dtd">
<svg version="1.1" xmlns="http://www.w3.org/2000/svg" xmlns:xlink="http://www.w3.org/1999/xlink" x="0px" y="0px" width="90.4px"
	 height="49.3px" viewBox="0 0 90.4 49.3" enable-background="new 0 0 90.4 49.3" xml:space="preserve">
<g id="bg">
</g>
<g id="Layer_1">
</g>
<g id="button">
</g>
<g id="Layer_5">
</g>
<g id="button-hover" display="none">
</g>
<g id="hover_extra" display="none">
</g>
<g id="icons">
	<path d="M35.8,0h12.8v5.4h-3.7v23c0,11.4-9.2,20.6-20.6,20.6C12.9,49,3.7,39.8,3.7,28.4v-23H0V0h12.8v5.4H9.1v23
		c0,8.4,6.8,15.2,15.2,15.2c8.4,0,15.2-6.8,15.2-15.2v-23h-3.7V0z M77.6,5.5h3.1l-7.8,13.7L65.2,5.5h3.1V0.1H55.5v5.4h3.5l10.9,19.2
		L58.9,43.9h-3.5v5.4h12.8v-5.4h-3.1l7.8-13.7l7.8,13.7h-3.1v5.4h12.8v-5.4H87L76.1,24.7L87,5.5h3.5V0.1H77.6V5.5z"/>
</g>
<g id="Layer_7">
</g>
</svg>
