<?xml version="1.0" encoding="utf-8"?>
<!-- Generator: Adobe Illustrator 16.0.0, SVG Export Plug-In . SVG Version: 6.00 Build 0)  -->
<!DOCTYPE svg PUBLIC "-//W3C//DTD SVG 1.1//EN" "http://www.w3.org/Graphics/SVG/1.1/DTD/svg11.dtd">
<svg version="1.1" xmlns="http://www.w3.org/2000/svg" xmlns:xlink="http://www.w3.org/1999/xlink" x="0px" y="0px" width="76.3px"
	 height="76.4px" viewBox="0 0 76.3 76.4" enable-background="new 0 0 76.3 76.4" xml:space="preserve">
<g id="bg">
</g>
<g id="Layer_1">
</g>
<g id="button">
</g>
<g id="Layer_5">
</g>
<g id="button-hover" display="none">
</g>
<g id="hover_extra" display="none">
</g>
<g id="icons">
	<path fill="#00BAE5" d="M38.2,0C17.1,0,0,17.1,0,38.2c0,21.1,17.1,38.2,38.2,38.2c21,0,38.2-17.1,38.2-38.2
		C76.3,17.1,59.2,0,38.2,0z M3.9,38.2c0-5,1.1-9.7,3-14l16.4,44.9C11.7,63.5,3.9,51.8,3.9,38.2z M38.2,72.5c-3.4,0-6.6-0.5-9.7-1.4
		l10.3-29.9l10.5,28.9c0.1,0.2,0.2,0.3,0.2,0.5C46,71.8,42.2,72.5,38.2,72.5z M42.9,22.1c2.1-0.1,3.9-0.3,3.9-0.3
		c1.9-0.2,1.6-2.9-0.2-2.8c0,0-5.6,0.4-9.2,0.4c-3.4,0-9-0.4-9-0.4c-1.9-0.1-2.1,2.7-0.2,2.8c0,0,1.8,0.2,3.6,0.3l5.3,14.7
		l-7.5,22.5L17.1,22.1c2.1-0.1,3.9-0.3,3.9-0.3c1.8-0.2,1.6-2.9-0.2-2.8c0,0-5.6,0.4-9.1,0.4c-0.6,0-1.4,0-2.2,0
		C15.6,10,26.2,3.9,38.2,3.9c8.9,0,17.1,3.4,23.2,9c-0.1,0-0.3,0-0.4,0c-3.4,0-5.8,2.9-5.8,6.1c0,2.8,1.6,5.2,3.4,8
		c1.3,2.3,2.8,5.2,2.8,9.5c0,2.9-1.1,6.3-2.6,11.1L55.3,59L42.9,22.1z M68.3,21.7c2.7,4.9,4.2,10.5,4.2,16.5
		c0,12.7-6.9,23.7-17.1,29.7l10.5-30.3c2-4.9,2.6-8.8,2.6-12.3C68.5,24,68.4,22.8,68.3,21.7z"/>
</g>
<g id="Layer_7">
</g>
</svg>
