<svg xmlns="http://www.w3.org/2000/svg" width="67.3" height="54.7" viewBox="0 0 67.3 54.7"><path fill="#FFCE00" d="M0 1.1c3.1-.6 8.8-1.1 14.3-1.1 7.2 0 11.7.9 15.4 3.4 3.4 2 5.6 5.5 5.6 10 0 4.9-3.1 9.5-8.9 11.6v.2c5.7 1.4 10.8 5.9 10.8 13.3 0 4.8-2.1 8.5-5.2 11.1-3.8 3.4-10.1 5-19.9 5-5.4 0-9.6-.4-12-.7v-52.8zm9.7 21.2h5c6.8 0 10.6-3.2 10.6-7.7 0-5-3.8-7.3-10-7.3-2.9 0-4.5.2-5.6.4v14.6zm0 24.7c1.3.2 2.9.2 5.2.2 6.3 0 11.9-2.4 11.9-9 0-6.2-5.4-8.8-12.2-8.8h-4.9v17.6zm35.8-19.2c0-5.3-.1-9-.3-12.5h8.5l.3 7.4h.3c1.9-5.5 6.5-8.3 10.6-8.3 1 0 1.5.1 2.3.2v9.2c-.8-.2-1.7-.3-2.9-.3-4.7 0-7.9 3-8.8 7.4-.2.9-.3 1.9-.3 3v20.1h-9.8v-26.2z"/></svg>