<svg xmlns="http://www.w3.org/2000/svg" width="63.5" height="53.9" viewBox="0 0 63.5 53.9"><path fill="#50B0FF" d="M0 1.1c3.4-.6 8.2-1.1 14.7-1.1 7 0 12.2 1.5 15.5 4.3 3.1 2.6 5.2 6.7 5.2 11.6 0 5-1.6 9.1-4.5 11.9-3.8 3.8-9.8 5.6-16.6 5.6-1.8 0-3.4-.1-4.7-.3v19.9h-9.6v-51.9zm9.5 24.5c1.2.3 2.7.4 4.7.4 7.2 0 11.6-3.5 11.6-9.7 0-5.9-4.1-9-10.7-9-2.7 0-4.5.2-5.5.5v17.8zm28.8 18.6c2.2 1.3 6.3 2.7 9.8 2.7 4.2 0 6.1-1.7 6.1-4.2 0-2.6-1.6-3.9-6.2-5.5-7.4-2.6-10.5-6.6-10.5-11.1 0-6.7 5.5-11.9 14.4-11.9 4.2 0 7.9 1.1 10.1 2.3l-2 6.7c-1.6-.9-4.7-2.2-8-2.2-3.4 0-5.3 1.6-5.3 4s1.8 3.6 6.6 5.3c6.9 2.5 10.1 6 10.1 11.6 0 6.9-5.4 11.9-15.5 11.9-4.6 0-8.7-1.2-11.5-2.7l1.9-6.9z"/></svg>