<svg xmlns="http://www.w3.org/2000/svg" width="117.2" height="31.5" viewBox="0 0 117.2 31.5"><path fill="#FF0068" d="M68.9 12.8c-22.6-3.1-41.9-13.1-46.6-9.5-1.7 1.3-1.8 4.7-1.8 6.8-.3-.1-.7-.3-1.1-.5.5-2.7.3-4.5-.1-5.7.3-1.3.7-2 .7-2s-.8.2-1.4.8c-.4-.5-.8-.7-.8-.7s.1.5.3 1.4c-.1.2-.2.4-.2.6-.6-2.1-.2-4-.2-4s-2 1.7-1 5c-1.5-1.4-1.5-3.7-1.5-3.7s-2.2 1.3-.3 4.2c-.4-.1-1.1-.1-1.1-.1s1.9 1 3.9 3.6c-6.1-2.6-17.3-7.3-17.7-7.8.1 0 1.5 4.2 16.6 10.3-2.2.7-5.9.1-5.9.1s.4.6 1.8 1c-3.6 1.2-3.7 3.4-3.7 3.4s1.9-1.9 4.2-2.2c.1.4-3.2 2.1-3.2 2.1s1.1.3 2.4-.2c-1.1 1.6-.2 2.9-.2 2.9s.8-2.3 3.1-3.3c-.7 1 .3 3.9.3 3.9s1.1-4.4 3.2-6.9l.9.3c-1 1.6-2.4 4.5-.8 6.3 13.8 16.3 96.5 13.7 98.5 9.1-3.1-5.5-20.4-11.3-48.3-15.2z"/></svg>