<svg xmlns="http://www.w3.org/2000/svg" width="68.9" height="65.5" viewBox="0 0 68.9 65.5"><path d="M68.9 44.1c0 11.8-9.6 21.4-21.4 21.4-4.9 0-9.5-1.7-13.1-4.5 5.1-3.9 8.3-10 8.3-16.9 0-1-.1-1.9-.2-2.9 4.2-1.7 8-4.8 10.4-9.1 1.4-2.5 2.3-5.1 2.7-7.8 7.9 3.2 13.3 10.8 13.3 19.8zm-42.7 0c0-1 .1-1.9.2-2.9-.9-.4-1.8-.8-2.6-1.3-6-3.4-9.6-9.3-10.5-15.7-7.8 3.3-13.3 10.9-13.3 19.9 0 11.8 9.6 21.4 21.4 21.4 4.9 0 9.5-1.7 13.1-4.5-5.1-3.9-8.3-10.1-8.3-16.9zm8.3-16.9c3.6-2.8 8.1-4.5 13.1-4.5 2.9 0 5.6.6 8.1 1.6 1.1-8.3-2.8-16.9-10.5-21.4-10.3-5.9-23.3-2.4-29.3 7.8-2.5 4.3-3.3 9-2.7 13.6 2.5-1 5.2-1.6 8.1-1.6 5 0 9.6 1.6 13.2 4.5zm0 0c-4.3 3.4-7.3 8.3-8.1 14 5.3 2.2 11.1 2.1 16.2 0-.8-5.7-3.8-10.7-8.1-14z"/></svg>