<svg xmlns="http://www.w3.org/2000/svg" width="56" height="68.7" viewBox="0 0 56 68.7"><path fill="#FFDA00" d="M5.1 68.7h45.8c2.8 0 5.1-2.3 5.1-5.1v-45.8h-17.9v-17.8h-33c-2.8 0-5.1 2.3-5.1 5.1v58.5c0 2.8 2.3 5.1 5.1 5.1zm3.8-49.3c0-1.4 1.1-2.5 2.5-2.5h22.3c1.4 0 2.5 1.1 2.5 2.5v7.6h8.3c1.4 0 2.5 1.1 2.5 2.5v21c0 1.4-1.1 2.5-2.5 2.5h-22.2c-1.4 0-2.5-1.1-2.5-2.5v-7.6h-8.3c-1.4 0-2.5-1.1-2.5-2.5v-21zm24.8 18.5h-22.3v-15.9h22.3v15.9zm0 5c1.4 0 2.5-1.1 2.5-2.5v-8.3h8.3v15.9h-22.2v-5.1h11.4zm22.3-26.3h-16.6v-16.6l16.6 16.6z"/></svg>