<svg xmlns="http://www.w3.org/2000/svg" width="65.2" height="88.3" viewBox="0 0 65.2 88.3"><path fill="#CE8A41" d="M65.2 38.9c.3-7-5.5-1.3-4.1-12.1 3.6-3.6 3.4-10-3.3-10.8-3-7.1 6.9-7.8 6.9-7.8s-9.1-12.5-22 2.6c0 0-.6-.2-1.6-.4-.6-3.4 1.5-6.6 1.5-6.6s-2.4-.4-5.8 2.6c-1.8-3.2-.4-6.4-.4-6.4s-6 1.6-6.8 7c-1.5-1.4-1.2-4.7-1.2-4.7s-4.8 1.9-4.7 8.2c-.7.2-1.1.3-1.1.3-13-15.1-22.1-2.6-22.1-2.6s9.9.7 6.9 7.8c-6.7.8-6.9 7.2-3.3 10.8 1.4 10.8-4.4 5-4.1 12.1.6 12.5 12.3 1.2 10.1 18.8-.1 1.3-.3 2.8-.6 4.5-1.9-1.7-3.4-4.1-4.1-7.5-7.6 7.4-3.6 18.8 5 21.8 1.6 3.9 4.9 7.2 11.2 8.4 0 0 3.5 3.4 11 3.4s11-3.4 11-3.4c6.3-1.2 9.6-4.4 11.2-8.4 8.6-3 12.6-14.3 5-21.8-.8 3.4-2.3 5.8-4.1 7.5-.2-1.7-.5-3.3-.6-4.5-2.2-17.6 9.5-6.3 10.1-18.8zm-50.3-6.6c1.9 1 7 4.7 7.7 6.4-2.1 1.8-9.7 1.6-7.7-6.4zm-10.2 27.3c2.6 7.2 9.7 7.5 12.8 7.8-.7 2-3.6 2.7-2.2 7.5-8.1.7-14.4-9.1-10.6-15.3zm45.6-27.3c2 8-5.6 8.2-7.7 6.4.7-1.7 5.8-5.4 7.7-6.4zm10.2 27.3c3.8 6.3-2.5 16-10.7 15.3 1.5-4.7-1.5-5.5-2.2-7.5 3.2-.3 10.4-.6 12.9-7.8z"/></svg>