<svg xmlns="http://www.w3.org/2000/svg" width="65.3" height="65.3" viewBox="0 0 65.3 65.3"><path d="M50.3 0c-8.3 0-15 6.7-15 15s6.7 15 15 15 15-6.7 15-15-6.7-15-15-15zm-1.9 23l-1.9-1.9 6.1-6.1-6.1-6.1 1.9-1.9 8 8-8 8zm-33.4 12.3c-8.3 0-15 6.7-15 15s6.7 15 15 15 15-6.7 15-15-6.7-15-15-15zm6.1 19.3l-1.9 1.9-4.2-4.2-4.2 4.2-1.9-1.9 4.2-4.2-4.2-4.2 1.9-1.9 4.2 4.2 4.2-4.2 1.9 1.9-4.2 4.2 4.2 4.2zm29.2-19.3c-8.3 0-15 6.7-15 15s6.7 15 15 15 15-6.7 15-15-6.7-15-15-15zm1.4 23.1h-2.7v-8.9h-1.6v-2.7h4.3v11.6zm0-13.7h-2.7v-3h2.7v3zm-36.7-44.7c-8.3 0-15 6.7-15 15s6.7 15 15 15 15-6.7 15-15-6.7-15-15-15zm7.3 21.6h-14.6v-2.7h14.6v2.7zm0-5.2h-14.6v-2.7h14.6v2.7zm0-5.2h-14.6v-2.7h14.6v2.7z"/></svg>