<svg xmlns="http://www.w3.org/2000/svg" width="62.2" height="51.4" viewBox="0 0 62.2 51.4"><path d="M0 0h62.2v10.8h-62.2v-10.8zm16.1 23.4h43.6v-5.4h-43.6v5.4zm0 13.4h43.6v-5.4h-43.6v5.4zm0 13.4h43.6v-5.4h-43.6v5.4zm-9.9-33.4c-2.1 0-3.9 1.7-3.9 3.9 0 2.1 1.7 3.9 3.9 3.9 2.1 0 3.9-1.7 3.9-3.9 0-2.1-1.8-3.9-3.9-3.9zm0 13.4c-2.1 0-3.9 1.7-3.9 3.9 0 2.1 1.7 3.9 3.9 3.9 2.1 0 3.9-1.7 3.9-3.9 0-2.1-1.8-3.9-3.9-3.9zm0 13.4c-2.1 0-3.9 1.7-3.9 3.9 0 2.1 1.7 3.9 3.9 3.9 2.1 0 3.9-1.7 3.9-3.9 0-2.1-1.8-3.9-3.9-3.9z"/></svg>