<svg xmlns="http://www.w3.org/2000/svg" width="72.4" height="72.4" viewBox="0 0 72.4 72.4"><path fill="#FFCE00" d="M0 0v72.4h72.4v-72.4h-72.4zm39.5 54.7c0 1.9-.2 3.6-.7 5-.5 1.4-1.1 2.6-2 3.6-.9 1-2 1.7-3.2 2.2-1.3.5-2.7.8-4.3.8-2.3 0-4.1-.5-5.7-1.4-1.5-1-2.8-2.1-3.8-3.4l4-5c.8 1 1.7 1.8 2.5 2.4.8.6 1.8.9 2.8.9 1.2 0 2.2-.4 2.8-1.3.7-.8 1-2.2 1-4.1v-20.9h6.5v21.2zm27.3 1.6c0 1.6-.3 3-.8 4.3-.5 1.2-1.2 2.3-2.2 3.1-.9.8-2 1.5-3.3 1.9-1.3.4-2.7.7-4.3.7-2.2 0-4.3-.4-6.5-1.3-2.1-.8-4-2.1-5.8-3.9l3.7-5c1.3 1.2 2.7 2.2 4.1 2.9 1.4.7 2.9 1.1 4.6 1.1 1.3 0 2.3-.3 3.1-.8.7-.5 1.1-1.3 1.1-2.2v-.1c0-.5-.1-.9-.2-1.2-.2-.4-.4-.7-.9-1-.4-.3-1-.6-1.8-.9-.8-.3-1.7-.6-3-1-1.5-.4-2.8-.8-4-1.3-1.2-.5-2.2-1.1-3-1.8-.8-.7-1.5-1.6-1.9-2.7-.5-1.1-.7-2.4-.7-4v-.1c0-1.5.2-2.8.7-4 .5-1.2 1.2-2.2 2.1-3.1.9-.9 1.9-1.5 3.2-2 1.2-.5 2.6-.7 4.1-.7 2.1 0 4.1.4 5.8 1.1 1.8.7 3.4 1.7 4.9 3.1l-3.3 5.4c-1.3-1-2.6-1.8-3.8-2.3-1.2-.6-2.5-.9-3.7-.9-1.2 0-2.2.3-2.8.8-.6.5-.9 1.2-.9 2v.1c0 .5.1 1 .3 1.4.2.4.5.7 1 1 .5.3 1.1.6 1.9.9.8.3 1.8.6 3.1 1 1.5.4 2.8.9 3.9 1.5 1.1.5 2.1 1.2 2.9 1.9.8.8 1.4 1.6 1.8 2.7.4.6.6 1.9.6 3.4z"/></svg>