<svg xmlns="http://www.w3.org/2000/svg" width="85.3" height="70.6" viewBox="0 0 85.3 70.6"><path fill="#0093ED" d="M85.1 15.9c1.2 8.9-3.5 18.6-6.7 27.2 3.3.3 6.2 0 6.4.2.2.3-2.2 10.2-3 10.2-2.6.1-11.2.1-14.8.1-11.8 0-22.8.8-28.4-5.1-2.3-2.4-3.9-6.4-4.2-9.3-.6-4.8.2-10 1.3-14.4 1-3.9 2.3-7.6 4.2-11 4.9-8.6 13.5-15 27.9-13.5 2.8.3 6.8 1.5 9.3 3 .2.1.8.6.9.7 3.3 2 6.4 7.1 7.1 11.9zm-14.9 15.6c1.1-4 2.7-8.3 2.5-11.9-.2-3.8-3.4-7.3-5.5-8-6.2-2.2-12 .9-14.3 3.4-3 3.2-4 7-5.1 12.3-.8 3.9-1.4 8 0 11 2.5 5.4 10.5 4.2 19 4.2 1.3-3.4 2.4-7.2 3.4-11zm-48.6-20.3c-.9 3.1-1.6 6.6-2.5 10.2h11.9l2.2-10.1c-4.3 0-7.9-.1-11.6-.1zm-7.7 32.6c-1.8 8.2-2 16.8-11 15.7-.9 3.2-2 7.4-2.9 11 3.7.1 7.1.4 10.1 0 1.9-.2 5.2-1 5.9-1.7l.8-.4c3.9-3.1 4.9-7.3 6.4-13.1 2.3-9.3 5.3-22.6 6.8-30.9h-11.4c-.6 1.8-3.7 14.7-4.7 19.4zm57 9.9"/></svg>