<svg xmlns="http://www.w3.org/2000/svg" width="84.8" height="82.8" viewBox="0 0 84.8 82.8"><path fill="#00C3FF" d="M84.1 81.4c-3.5-6-10.7-7.8-14.6-13.3 4-1.5 9.7-1.8 12.4-1.5 1.2.1 1.2-1.7.1-2.9-1.9-2-3.9-3.9-6.1-5.7-3.8-3-8-5.1-12.5-7-3.6-1.6-4.1-4.2-5.7-7.8-3.9-9.3-7.9-18-15-25.3-6.1-6.2-14.5-12.6-23.7-12.8-1.4 0-2.5.1-2.5.1-3-2.1-6.6-4.4-9.2-5-2.7-.6-6.2-.2-7.1 3-1.2 4 3.4 8.1 5.4 11 2.3 3.4 2.8 7.6 4.5 11.3 1 2.1 2.1 4 3.7 5.7 1.3 1.5-.2 3.5-.6 5.3-1.1 4.9-1.2 10.2 0 15.1.7 3 4.9 12.1 8.9 7.2 1.5-2 1.3-5.7 1.9-8.1 3.3 5.4 8.2 13.4 14.2 16.1-2.8-1.6-4.8-4.7-6.6-7.3-2.3-3.4-4.4-7-6.1-10.8-.4-.9-.7-2.9-1.9-2.9-1-.1-2.1 1.7-2.5 2.4-1.4 2.8-.8 5.8-1.6 8.6-2.5 0-3.7-7.5-4-9.1-.6-4.2-.3-8.6.9-12.6.6-1.9 1.5-3.2 0-5-2.6-2.8-4.2-6.2-5.4-9.8-.9-2.8-1.5-5.2-3.2-7.7-1-1.6-6.1-6.7-4.7-8.9 2.7-3.6 11.7 4.5 13.1 4.8 7.5-1 15.3 4.1 20.7 8.9 6.3 5.6 10.9 12.2 14.4 19.9l4.6 10.6c1 2.3 1.8 4.5 4.2 5.6 6.7 3 12.7 5.6 18.4 10.5-4-.3-8.1-.1-11.8 1.4-2.7 1-1.7 3.2-.3 5.1 2.3 3.2 5.9 4.8 9.4 6.6 3.3 1.7 6.2 3.6 9.1 5.8-.3-.6-.6-1.1-.8-1.5-.3-.5.2.4 0 0zm-64.5-24.7c-.1 0-.2.1 0 0zm-4.9-25.1zm5.7-12.5c-1-2.3-1.4-3-3.2-4.8 1.7-1.1 3.9-.3 4.4 1.7.3 1.2-.2 2.4-1.2 3.1z"/></svg>