<svg xmlns="http://www.w3.org/2000/svg" width="107.9" height="68.2" viewBox="0 0 107.9 68.2"><g><g fill="#72C100"><path d="M53.9 68.2c-.4 0-.8-.1-1.1-.3l-3.4-2c-.5-.3-.3-.4-.1-.4.7-.2.8-.3 1.6-.7h.3l2.6 1.6c.1.1.2.1.3 0l10.3-5.9c.1-.1.2-.2.2-.3v-12c0-.1-.1-.2-.2-.3l-10.3-5.9c-.1-.1-.2-.1-.3 0l-10.3 5.9c-.1.1-.2.2-.2.3v11.9c0 .1.1.2.2.3l2.8 1.6c1.5.8 2.5-.1 2.5-1v-11.8c0-.2.1-.3.3-.3h1.3c.2 0 .3.1.3.3v11.7c0 2-1.1 3.2-3 3.2-.6 0-1.1 0-2.4-.6l-2.7-1.6c-.7-.4-1.1-1.1-1.1-1.9v-11.8c0-.8.4-1.5 1.1-1.9l10.3-6c.7-.4 1.5-.4 2.2 0l10.3 6c.7.4 1.1 1.1 1.1 1.9v11.9c0 .8-.4 1.5-1.1 1.9l-10.3 6c-.4.1-.8.2-1.2.2zM57.1 60c-4.5 0-5.5-2.1-5.5-3.8 0-.2.1-.3.3-.3h1.3c.2 0 .3.1.3.3.2 1.4.8 2 3.5 2 2.2 0 3.1-.5 3.1-1.6 0-.7-.3-1.2-3.6-1.5-2.8-.3-4.6-.9-4.6-3.2 0-2.1 1.8-3.3 4.7-3.3 3.3 0 4.9 1.1 5.1 3.6 0 .1 0 .2-.1.2-.1.1-.1.1-.2.1h-1.3c-.1 0-.3-.1-.3-.2-.3-1.4-1.1-1.9-3.2-1.9-2.4 0-2.6.8-2.6 1.4 0 .7.3 1 3.5 1.4 3.2.4 4.7 1 4.7 3.2.1 2.3-1.8 3.6-5.1 3.6z"/></g><path fill-rule="evenodd" clip-rule="evenodd" fill="#fff" d="M24.5 23.4c0-.5-.2-.9-.7-1.1l-10.9-6.3c-.2-.1-.4-.2-.6-.2h-.1c-.2 0-.4.1-.6.2l-10.9 6.2c-.4.2-.7.7-.7 1.2v16.9c0 .2.1.5.3.6.3.1.5.1.7 0l6.5-3.7c.4-.2.7-.7.7-1.1v-7.9c0-.5.2-.9.7-1.1l2.8-1.6c.2-.1.4-.2.7-.2.2 0 .5.1.7.2l2.8 1.6c.4.2.7.7.7 1.1v7.8c0 .5.3.9.7 1.1l6.5 3.7c.2.1.5.1.7 0 .2-.1.3-.3.3-.6l-.3-16.8zM72.9.1c-.2-.1-.5-.1-.7 0s-.3.3-.3.6v16.8c0 .2-.1.3-.2.4-.1.1-.3.1-.5 0l-2.7-1.6c-.4-.2-.9-.2-1.3 0l-10.9 6.3c-.4.2-.7.7-.7 1.1v12.6c0 .5.3.9.7 1.1l10.9 6.3c.4.2.9.2 1.3 0l10.9-6.3c.4-.2.7-.7.7-1.1v-31.4c0-.5-.3-.9-.7-1.2l-6.5-3.6zm-1 32.1c0 .1-.1.2-.2.3l-3.7 2.1c-.1.1-.2.1-.3 0l-3.8-2.2c-.1-.1-.2-.2-.2-.3v-4.3c0-.1.1-.2.2-.3l3.8-2.2c.1-.1.2-.1.3 0l3.8 2.2c.1.1.2.2.2.3v4.4z"/><path fill-rule="evenodd" clip-rule="evenodd" fill="#72C100" d="M39.4 16c.4-.2.9-.2 1.3 0l10.9 6.3c.4.2.7.7.7 1.1v12.6c0 .5-.2.9-.7 1.1l-10.9 6.3c-.4.2-.9.2-1.3 0l-10.9-6.3c-.4-.2-.7-.7-.7-1.1v-12.5c0-.5.3-.9.7-1.1l10.9-6.4z"/><g fill-rule="evenodd" clip-rule="evenodd"><path fill="#fff" d="M107.2 27.7c.4-.2.7-.7.7-1.1v-3.1c0-.5-.2-.9-.7-1.1l-10.9-6.3c-.4-.2-.9-.2-1.3 0l-10.9 6.3c-.4.2-.7.7-.7 1.1v12.6c0 .5.3.9.7 1.1l10.9 6.3c.4.2.9.2 1.3 0l6.6-3.7c.2-.1.3-.3.3-.6 0-.2-.1-.5-.3-.6l-11-6.3c-.2-.1-.3-.3-.3-.6v-4c0-.2.1-.5.3-.6l3.4-2c.2-.1.5-.1.7 0l3.4 2c.2.1.3.3.3.6v3.3c0 .2.1.5.3.6.2.1.5.1.7 0l6.5-3.9z"/><path fill="#72C100" d="M95.5 27.1h.3l2.1 1.2c.1 0 .1.1.1.2v2.5c0 .1 0 .2-.1.2l-2.1 1.2h-.3l-2.1-1.2c-.1 0-.1-.1-.1-.2v-2.4c0-.1 0-.2.1-.2l2.1-1.3z"/></g></g></svg>