<svg xmlns="http://www.w3.org/2000/svg" width="97.9" height="45.9" viewBox="0 0 97.9 45.9"><path fill="#3964FF" d="M19.2 15.4c3 0 5 .6 6 1.7s1.2 3 .7 5.7c-.5 2.8-1.6 4.8-3.2 6-1.6 1.2-3.9 1.8-7.1 1.8h-4.8l3-15.2h5.4zm-19.2 30.5h7.9l1.9-9.6h6.8c3 0 5.4-.3 7.4-.9 1.9-.6 3.7-1.7 5.3-3.2 1.3-1.2 2.4-2.6 3.2-4 .8-1.5 1.4-3.1 1.7-4.9.8-4.3.2-7.6-1.9-10-2.1-2.4-5.4-3.6-10-3.6h-15.3l-7 36.2zm41.7-45.9h7.8l-1.9 9.6h7c4.4 0 7.4.8 9.1 2.3 1.7 1.5 2.2 4 1.5 7.4l-3.3 16.9h-8l3.1-16c.4-1.8.2-3.1-.4-3.7-.6-.7-1.9-1-3.9-1h-6.3l-4 20.8h-7.8l7.1-36.3zm41 15.4c3 0 5 .6 6 1.7s1.2 3 .7 5.7c-.5 2.8-1.6 4.8-3.2 6-1.6 1.2-3.9 1.8-7.1 1.8h-4.8l3-15.2h5.4zm-19.3 30.5h7.9l1.9-9.6h6.8c3 0 5.4-.3 7.4-.9 1.9-.6 3.7-1.7 5.3-3.2 1.3-1.2 2.4-2.6 3.2-4 .8-1.5 1.4-3.1 1.7-4.9.8-4.3.2-7.6-1.9-10-2.1-2.4-5.4-3.6-10-3.6h-15.2l-7.1 36.2z"/></svg>