<svg xmlns="http://www.w3.org/2000/svg" width="83.1" height="70.1" viewBox="0 0 83.1 70.1"><g><path fill="#fff" d="M83.1 63.6l-6.2-55.1c-.3-2.4-2.3-4.4-4.7-4.7-.2-2.1-2-3.8-4.1-3.8h-53.1c-2.1 0-3.9 1.7-4.1 3.8v.2c-2.4.3-4.4 2.3-4.6 4.7l-6.3 54.8c-.1 1.3.2 4.1 1.1 5.1.9 1 2.1 1.6 3.4 1.6h74c1.3 0 2.6-.5 3.4-1.5.9-1 1.3-3.8 1.2-5.1zm-10.2-12.4h-62.7c-.5 0-1-.2-1.4-.6-.3-.4-.5-.9-.4-1.4l4.1-45.3c.1-1.2 1.3-2.3 2.5-2.3h53c1.2 0 2.4 1 2.5 2.3l4.1 45.3m4 18.2h-74c-2.1 0-3.6-1.7-3.4-3.8l6.2-54.8c.2-1.8 1.6-3.3 3.4-3.7l-4 44v7.6c-.2 2.1 1.4 3.8 3.4 3.8h62.7c2.1 0 3.6-1.7 3.4-3.8v-7.6l-4-44.1c1.7.4 3.2 1.9 3.4 3.7l6.2 55c.2 2-1.3 3.7-3.3 3.7z"/><path fill="#fa0" d="M37.9 19.9c2.3 1.8 10.8 2.3 14.1 5.7 3.4 3.4 3.8 8.4.1 12.1-7.7 7.7-30.2 2.4-23.9-3.8 3.6-3.6 12.1 4.4 17.1-.6.7-.8.9-2.5 0-3.5-2.6-2.6-10.9-2.4-14.4-6-2.9-2.9-2.1-6.9.2-9.2 7.2-7.2 24.6-2.4 20 2.1-3.1 3.1-9.4-3-13.3.9-.7.7-.7 1.7.1 2.3z"/></g></svg>