<svg xmlns="http://www.w3.org/2000/svg" width="76.3" height="76.4" viewBox="0 0 76.3 76.4"><path fill="#00BAE5" d="M38.2 0c-21.1 0-38.2 17.1-38.2 38.2s17.1 38.2 38.2 38.2c21 0 38.2-17.1 38.2-38.2-.1-21.1-17.2-38.2-38.2-38.2zm-34.3 38.2c0-5 1.1-9.7 3-14l16.4 44.9c-11.6-5.6-19.4-17.3-19.4-30.9zm34.3 34.3c-3.4 0-6.6-.5-9.7-1.4l10.3-29.9 10.5 28.9c.1.2.2.3.2.5-3.5 1.2-7.3 1.9-11.3 1.9zm4.7-50.4c2.1-.1 3.9-.3 3.9-.3 1.9-.2 1.6-2.9-.2-2.8 0 0-5.6.4-9.2.4-3.4 0-9-.4-9-.4-1.9-.1-2.1 2.7-.2 2.8 0 0 1.8.2 3.6.3l5.3 14.7-7.5 22.5-12.5-37.2c2.1-.1 3.9-.3 3.9-.3 1.8-.2 1.6-2.9-.2-2.8 0 0-5.6.4-9.1.4h-2.2c6.1-9.4 16.7-15.5 28.7-15.5 8.9 0 17.1 3.4 23.2 9h-.4c-3.4 0-5.8 2.9-5.8 6.1 0 2.8 1.6 5.2 3.4 8 1.3 2.3 2.8 5.2 2.8 9.5 0 2.9-1.1 6.3-2.6 11.1l-3.5 11.4-12.4-36.9zm25.4-.4c2.7 4.9 4.2 10.5 4.2 16.5 0 12.7-6.9 23.7-17.1 29.7l10.5-30.3c2-4.9 2.6-8.8 2.6-12.3 0-1.3-.1-2.5-.2-3.6z"/></svg>