<svg id="Layer_1" data-name="Layer 1" xmlns="http://www.w3.org/2000/svg" width="14" height="14" viewBox="0 0 14 14">
  <title>icon_Link</title>
  <path d="M6,10A3.975,3.975,0,0,1,3.172,8.828l-2-2A4,4,0,1,1,6.828,1.172L7,1.344V3H5.828l-.414-.414a2.047,2.047,0,0,0-2.828,0,2,2,0,0,0,0,2.828l2,2a2.047,2.047,0,0,0,2.828,0L7.828,7H9V8.656l-.172.172A3.975,3.975,0,0,1,6,10Zm6.828-2.828-2-2a4,4,0,0,0-5.656,0L5,5.344V7H6.172l.414-.414a2.047,2.047,0,0,1,2.828,0l2,2a2,2,0,0,1,0,2.828,2.047,2.047,0,0,1-2.828,0L8.172,11H7v1.656l.172.172a4,4,0,1,0,5.656-5.656Z"/>
</svg>
