<?xml version="1.0" encoding="utf-8"?>
<!-- Generator: Adobe Illustrator 16.0.0, SVG Export Plug-In . SVG Version: 6.00 Build 0)  -->
<!DOCTYPE svg PUBLIC "-//W3C//DTD SVG 1.1//EN" "http://www.w3.org/Graphics/SVG/1.1/DTD/svg11.dtd">
<svg version="1.1" xmlns="http://www.w3.org/2000/svg" xmlns:xlink="http://www.w3.org/1999/xlink" x="0px" y="0px" width="40px"
	 height="40px" viewBox="0 0 40 40" enable-background="new 0 0 40 40" xml:space="preserve">
<g id="bg">
</g>
<g id="Layer_1">
</g>
<g id="button">
	<path d="M22.4,33.5h-4.5V29h4.5V33.5z M24.4,22.2c1.7-1,4.3-2.5,4.3-6.8c0-4.9-4-8.8-8.8-8.8c-4.9,0-8.8,4-8.8,8.8h4.5
		c0-2.4,1.9-4.3,4.3-4.3c2.4,0,4.3,1.9,4.3,4.3c0,1.7-0.6,2-2.1,2.9c-1.8,1-4.5,2.6-4.5,7.3h4.5C22.2,23.4,22.9,23,24.4,22.2z"/>
</g>
<g id="Layer_5">
</g>
<g id="button:hover" display="none">
</g>
<g id="hover_extra" display="none">
</g>
<g id="icons">
</g>
<g id="button:hover-2" display="none">
</g>
<g id="Layer_7">
</g>
</svg>
