<?xml version="1.0" encoding="utf-8"?>
<!-- Generator: Adobe Illustrator 19.1.0, SVG Export Plug-In . SVG Version: 6.00 Build 0)  -->
<svg version="1.1" id="Layer_1" xmlns="http://www.w3.org/2000/svg" xmlns:xlink="http://www.w3.org/1999/xlink" x="0px" y="0px"
	 width="40px" height="40px" viewBox="0 0 40 40" style="enable-background:new 0 0 40 40;" xml:space="preserve">
<path d="M27,11l-4-4h-6l-4,4H4v22h32V11H27z M20,30c-4.4,0-8-3.6-8-8s3.6-8,8-8s8,3.6,8,8S24.4,30,20,30z M29,15c-0.6,0-1-0.4-1-1
	s0.4-1,1-1s1,0.4,1,1S29.6,15,29,15z M26,22c0,3.3-2.7,6-6,6s-6-2.7-6-6s2.7-6,6-6S26,18.7,26,22z M12,10H7V8.1h5V10z"/>
</svg>
