<?xml version="1.0" encoding="utf-8"?>
<!-- Generator: Adobe Illustrator 19.1.0, SVG Export Plug-In . SVG Version: 6.00 Build 0)  -->
<svg version="1.1" id="Layer_1" xmlns="http://www.w3.org/2000/svg" xmlns:xlink="http://www.w3.org/1999/xlink" x="0px" y="0px"
	 width="40px" height="40px" viewBox="0 0 40 40" style="enable-background:new 0 0 40 40;" xml:space="preserve">
<path d="M19,38l4-2.3V38H19z M17,32v2.3l4-2.3H17z M17,37.5l6-3.5v-1.5L17,36V37.5z M30,17c0,0.3,0,0.7-0.1,1
	c-0.2,1.9-0.9,3.6-2,5.1c-0.5,0.7-1.2,1.3-1.9,1.9C24.8,26.6,24,28.7,24,31h-8c0-2.3-0.8-4.4-2.1-6.1c-0.7-0.5-1.3-1.2-1.9-1.9
	c-1.1-1.4-1.8-3.2-2-5.1c0-0.3-0.1-0.7-0.1-1c0-5.5,4.5-10,10-10S30,11.5,30,17z M28,17c0-4.4-3.6-8-8-8c-4.4,0-8,3.6-8,8
	c0,0.3,0,0.5,0,0.8c0.1,1.5,0.7,2.9,1.6,4c0.4,0.6,0.9,1.1,1.5,1.5l0.2,0.2l0.2,0.2c1.2,1.6,2,3.4,2.3,5.3h4.3
	c0.3-1.9,1.1-3.7,2.3-5.3l0.2-0.2l0.2-0.2c0.6-0.4,1.1-0.9,1.5-1.5c0.9-1.2,1.5-2.6,1.6-4C28,17.5,28,17.3,28,17z M21,5V2h-2v3H21z
	 M32,18h3v-2h-3V18z M8,16H5v2h3V16z M11.5,7.1L9.4,5L8,6.4l2.1,2.1L11.5,7.1z M28.5,7.1l1.4,1.4L32,6.4L30.6,5L28.5,7.1z"/>
</svg>
