<?xml version="1.0" encoding="utf-8"?>
<!-- Generator: Adobe Illustrator 19.1.0, SVG Export Plug-In . SVG Version: 6.00 Build 0)  -->
<svg version="1.1" id="Layer_1" xmlns="http://www.w3.org/2000/svg" xmlns:xlink="http://www.w3.org/1999/xlink" x="0px" y="0px"
	 width="40px" height="40px" viewBox="0 0 40 40" style="enable-background:new 0 0 40 40;" xml:space="preserve">
<path d="M27,24.1l9-5.1v16l-9-5.1V35H7V19h20V24.1z M4,24h2v-5H4V24z M10.5,18c2.5,0,4.5-2,4.5-4.5S13,9,10.5,9S6,11,6,13.5
	S8,18,10.5,18z M22.5,18c3.6,0,6.5-2.9,6.5-6.5S26.1,5,22.5,5S16,7.9,16,11.5S18.9,18,22.5,18z"/>
</svg>
