<?xml version="1.0" encoding="utf-8"?>
<!-- Generator: Adobe Illustrator 16.0.0, SVG Export Plug-In . SVG Version: 6.00 Build 0)  -->
<!DOCTYPE svg PUBLIC "-//W3C//DTD SVG 1.1//EN" "http://www.w3.org/Graphics/SVG/1.1/DTD/svg11.dtd">
<svg version="1.1" id="Layer_1" xmlns="http://www.w3.org/2000/svg" xmlns:xlink="http://www.w3.org/1999/xlink" x="0px" y="0px"
	 width="75px" height="75px" viewBox="0 0 75 75" enable-background="new 0 0 75 75" xml:space="preserve">
<path fill="#F05223" d="M29.8,64.1h19.8c9.5,0,17.2-7.8,17.3-17.2l0.1-14l-0.2-0.8l-0.5-1l-0.8-0.6c-1-0.8-6.1,0.1-7.5-1.2
	c-1-0.9-1.1-2.5-1.4-4.7c-0.5-4.2-0.9-4.4-1.6-5.9c-2.4-5.1-8.9-8.9-13.3-9.4H29.8c-9.5,0-17.3,7.8-17.3,17.3v20.1
	C12.5,56.3,20.3,64.1,29.8,64.1z M30,23.6h9.6c1.8,0,3.3,1.5,3.3,3.3s-1.5,3.3-3.3,3.3H30c-1.8,0-3.3-1.5-3.3-3.3S28.2,23.6,30,23.6
	z M30,43.3h19.5c1.8,0,3.3,1.5,3.3,3.3c0,1.8-1.5,3.3-3.3,3.3H30c-1.8,0-3.3-1.5-3.3-3.3C26.7,44.8,28.2,43.3,30,43.3z"/>
</svg>
