<?xml version="1.0" encoding="utf-8"?>
<!-- Generator: Adobe Illustrator 16.0.0, SVG Export Plug-In . SVG Version: 6.00 Build 0)  -->
<!DOCTYPE svg PUBLIC "-//W3C//DTD SVG 1.1//EN" "http://www.w3.org/Graphics/SVG/1.1/DTD/svg11.dtd">
<svg version="1.1" id="Layer_1" xmlns="http://www.w3.org/2000/svg" xmlns:xlink="http://www.w3.org/1999/xlink" x="0px" y="0px"
	 width="75px" height="75px" viewBox="0 0 75 75" enable-background="new 0 0 75 75" xml:space="preserve">
<path fill="#4E6352" d="M13.7,49.2h8.3h9.2h7.4v-5.4V33.7c0.3,0,0.5,0,0.8,0c12.6,0,16.6,5.2,17.5,10.1h-9.2v-7.4
	c-2-0.6-4.4-1-7.4-1v8.4v3.8v1.7h16.6h8.5h1.3c0.2-0.9,0.4-1.8,0.4-2.8c0-4.7-3.1-8.9-8.1-11.9c-5-3.1-11.9-4.9-19.5-4.9
	c-0.3,0-0.6,0-0.8,0v-4.9c-2.5,0-5,0.3-7.4,0.7v5c-4.3,0.8-8.2,2.3-11.3,4.2c-5,3.1-8.1,7.3-8.1,11.9c0,0.9,0.1,1.9,0.4,2.8H13.7z
	 M31.2,34.7v9.1h-9.2C22.6,40.2,24.9,36.4,31.2,34.7z"/>
</svg>
