<?xml version="1.0" encoding="utf-8"?>
<!-- Generator: Adobe Illustrator 16.0.0, SVG Export Plug-In . SVG Version: 6.00 Build 0)  -->
<!DOCTYPE svg PUBLIC "-//W3C//DTD SVG 1.1//EN" "http://www.w3.org/Graphics/SVG/1.1/DTD/svg11.dtd">
<svg version="1.1" id="Layer_1" xmlns="http://www.w3.org/2000/svg" xmlns:xlink="http://www.w3.org/1999/xlink" x="0px" y="0px"
	 width="75px" height="75px" viewBox="0 0 75 75" enable-background="new 0 0 75 75" xml:space="preserve">
<polygon fill="#4D97D2" points="56.9,49.5 51.3,52.6 40.1,43.4 40.1,63.1 56.9,52.7 "/>
<polygon fill="#4D97D2" points="37.5,42.4 20.9,32.4 10.8,41 27.7,50.9 "/>
<polygon fill="#4D97D2" points="27.4,52.6 21.8,49.5 21.8,52.7 38.6,63.1 38.6,43.4 "/>
<polygon fill="#4D97D2" points="38.6,19.9 27.6,10.7 10,21.5 21.1,30.6 "/>
<polygon fill="#4D97D2" points="68.7,21.5 51.1,10.7 40.1,19.9 57.6,30.6 "/>
<polygon fill="#4D97D2" points="51,50.9 67.9,41 57.7,32.4 41.2,42.4 "/>
<polygon fill="#4D97D2" points="38.6,63.1 38.6,63.1 38.6,63.1 "/>
</svg>
