<?xml version="1.0" encoding="utf-8"?>
<!-- Generator: Adobe Illustrator 16.0.0, SVG Export Plug-In . SVG Version: 6.00 Build 0)  -->
<!DOCTYPE svg PUBLIC "-//W3C//DTD SVG 1.1//EN" "http://www.w3.org/Graphics/SVG/1.1/DTD/svg11.dtd">
<svg version="1.1" id="Layer_1" xmlns="http://www.w3.org/2000/svg" xmlns:xlink="http://www.w3.org/1999/xlink" x="0px" y="0px"
	 width="75px" height="75px" viewBox="0 0 75 75" enable-background="new 0 0 75 75" xml:space="preserve">
<path fill="#EA6D24" d="M24.4,56.5c3.5-0.2,7.7,0,11.8,0c4.2,0,8.6-0.3,12,0c1.4,0.1,2.6,0.9,3.8,0.2c0.9-1.1,0.2-2.7,0.4-4.2
	c0.4-2.9,3-6.4-0.8-7.1c-1.6,1.5-0.5,3-1.5,4.8c-1.1,2.3-5.2,3.1-9,3.4c-3.3,0.3-9.1,0.6-10.3-1.7c-1-1.9-0.4-4.9-0.4-7.4
	c0-2.8-0.3-5.4,0.4-7.6c4.2,0.3,9.6-1.4,12.6,0.4c2,1.2,0.9,3.6,3.2,4.4c1.6-0.4,0.7-2.5,0.6-4.4c-0.1-1.2-0.1-3,0-4.4
	c0.1-1.9,0.8-4.2-1.3-4.2c-1.6,1.3-0.4,3.4-2.1,4.6c-0.5,0.4-1.7,0.5-2.5,0.6c-3.2,0.3-8.1,0.1-10.7-0.4c-0.4-3.9-0.3-9.2,0-13
	c1.4-1.4,4.7-1.5,6.9-1.5c3.9,0,10,0.3,11.1,2.3c0.6,1.1,0.1,3.3,1.3,3.6c2.3,0.5,1.2-3.6,1.3-5.5c0.1-1.4,0.7-2.3,0.4-3.4
	c-0.7-1-1.8-0.5-2.5-0.4c-7.2,0.9-18,0.4-25.6,0.4c-0.9,0-2.5-0.5-3.2,0.6c-0.4,2.4,2.8,1.4,4,2.7c0.4,0.4,0.9,2.3,1.1,3.6
	c0.3,3.4,0,8.5,0,13.5c0,5.2,0.4,10.5,0,13.7c-0.1,1.1-0.8,2.9-1.1,3.2c-1.4,1.4-5.2-0.2-4.8,2.9C20.7,57.2,22.6,56.6,24.4,56.5z"/>
</svg>
