<?xml version="1.0" encoding="utf-8"?>
<!-- Generator: Adobe Illustrator 16.0.0, SVG Export Plug-In . SVG Version: 6.00 Build 0)  -->
<!DOCTYPE svg PUBLIC "-//W3C//DTD SVG 1.1//EN" "http://www.w3.org/Graphics/SVG/1.1/DTD/svg11.dtd">
<svg version="1.1" id="Layer_1" xmlns="http://www.w3.org/2000/svg" xmlns:xlink="http://www.w3.org/1999/xlink" x="0px" y="0px"
	 width="75px" height="75px" viewBox="0 0 75 75" enable-background="new 0 0 75 75" xml:space="preserve">
<path fill="#5BA545" d="M15.3,28c0.1,0.9,0.3,2,0.5,3.3c0.4,2.5,1,5.6,1.7,8.4c0.5,1.8,1,3.5,1.6,4.7c0.3,0.7,0.7,1.2,1,1.5
	c0.1,0.1,0.3,0.3,0.6,0.4c0.3,0.1,0.6,0.3,1,0.4c0.8,0.3,1.8,0.5,2.8,0.7c2.1,0.4,4.6,1,6.5,1.2c1.3,0.1,2.3,0.4,2.8,0.4h0
	c0.2,0,0.3-0.2,0.4-0.3c0.1-0.1,0.2-0.3,0.3-0.5c0.2-0.3,0.4-0.9,0.5-1.5c0.2-1.1,0.2-2.6,0.3-3.4c0-0.3,0.1-0.5,0.1-0.7
	c0-0.1,0.1-0.2,0.1-0.3l0.1,0.3l0.2,0.3h0l0.2-0.3l0.1-0.1c0.1,0.1,0.2,0.1,0.2,0.2c0.1,0.2,0.3,0.5,0.5,0.8
	c0.4,0.7,0.9,1.5,1.7,2.1c0.5,0.4,1.2,0.8,2,1c1.1,0.3,2.3,0.4,3.5,0.6c1.2,0.2,2.3,0.4,3.1,0.8c0.6,0.2,1.1,0.6,1.4,1
	c0.2,0.3,0.3,0.6,0.3,0.9c0.1,1.1,0.2,2.4,0.2,3.6c0,0.8-0.1,1.6-0.2,2.2c-0.1,0.7-0.4,1.7-0.8,2.1c-0.3,0.3-0.6,1-1,1h0l-4.8-0.3
	l0-0.2c-0.9-0.1-1.5-0.5-1.9-0.9c-0.4-0.4-0.6-1-0.6-1.6c0-0.4,0.1-0.8,0.2-1.1c0.2-0.3,0.4-0.1,0.7-0.3c0.2-0.1,0.4,0.3,0.6,0.3h0
	c1,0,1.6-0.6,1.9-0.6l0.2-3.7l-0.1,0.7c-0.2,0-0.5,0.7-0.9,0.7h0c-0.8,0-1.8-0.7-2.9-0.5c-1,0.3-2,0.3-2.6,1.1
	c-0.4,0.5-0.7,1-0.8,1.9c0,0.7-0.1,1.2-0.1,1.8c0,1.2,0.1,2.2,0.2,3c0.1,0.8,0.3,1.3,0.5,1.7c0.1,0.2,0.2,0.4,0.3,0.4
	c0.1,0.1,0.3,0.2,0.6,0.4c0.3,0.1,0.7,0.4,1.4,0.5c1.4,0.3,3.9,0.6,8.5,0.6h0c0.9,0,1.7-0.3,2.4-0.6c0.7-0.4,1.4-0.9,1.9-1.6
	c1.1-1.3,2-3.2,2.7-5.5c1.3-4.5,1.7-10.5,1.7-16.1c0-6.2-0.5-12-0.7-15.1c-0.1-1-0.1-1.8-0.1-2.1c0-0.7-0.3-1.3-0.6-1.7
	c-0.4-0.4-0.9-0.6-1.5-0.8c-1.1-0.5-2.3-0.4-2.4-0.4h0l-12.3-0.9L38,17.7v0l0.8-0.1c0,0,0.4-0.1,0.4-0.2c0-0.2,0.1-0.4,0.1-0.7
	c-0.2-0.6-0.3-1.3-0.8-1.9c-0.3-0.4-0.7-0.8-1.2-1c-0.5-0.2-1.1-0.4-1.8-0.5c-0.7-0.1-1.5-0.1-2.2-0.1c-0.9,0-1.8,0-2.6,0.1
	c-0.8,0-1.5,0.1-2,0.1c-0.4,0-0.7,0.1-0.9,0.3c-0.2,0.2-0.5,0.5-0.6,0.9c-0.3,0.8-0.4,1.9-0.4,3c0,2.2,0,3.2,0,4.8
	c0,0.6-0.1,1.2-0.4,1.6c-0.2,0.4-0.6,1.2-1,1.4c-0.3,0.1-0.6,0.7-1,0.7H18h0c-0.2,0-0.4,0-0.6,0h0c-0.5,0-1-0.5-1.3-0.4
	c-0.4,0.1-0.6,0-0.7,0.3c-0.1,0.2-0.2,0.3-0.2,0.5c0,0.1,0,0.2,0,0.5C15.2,27.3,15.2,27.6,15.3,28z M44.5,35.5
	c0.2-0.5,0.6-0.9,1.1-1.2C46,34,46.4,34,46.9,34h0c0.4,0,0.7,0,1.1,0.1c0.3,0.2,0.6,0.3,0.8,0.6c0.5,0.5,0.8,1.1,1,1.6
	c0.1,0.4,0.2,0.6,0.2,0.9l0,0.2l-0.1,0.2l-0.2,0.1l-0.2,0c-0.1,0-0.2,0-0.3-0.1c-0.1,0-0.2-0.1-0.3-0.1c-0.2-0.1-0.4-0.1-0.7-0.2
	c-0.5-0.2-1-0.3-1.4-0.3H46v-0.2c0,0-0.2,0.1-0.5,0.2c-0.3,0.1-0.3,0.2-0.6,0.3c-0.2,0.1-0.2,0.1-0.4,0.1l-0.1,0l-0.2-0.1L44.2,37
	l0-0.3C44.2,36.4,44.3,35.9,44.5,35.5z"/>
<path fill="#5BA545" d="M19.5,24c1.6,0,3.5,0,3.5,0v-0.7c1,0,1-0.3,1.2-0.4s0.4-0.3,0.4-0.5c0-0.1,0.1-0.3,0.1-0.4
	c0-0.3,0.1-2.2,0.1-4c0-1.1,0.1-1.7,0.1-2.4L17,24c0.1,0,0.2,0,0.3,0C17.9,24,18.6,24,19.5,24z"/>
</svg>
