<?xml version="1.0" encoding="utf-8"?>
<!-- Generator: Adobe Illustrator 16.0.0, SVG Export Plug-In . SVG Version: 6.00 Build 0)  -->
<!DOCTYPE svg PUBLIC "-//W3C//DTD SVG 1.1//EN" "http://www.w3.org/Graphics/SVG/1.1/DTD/svg11.dtd">
<svg version="1.1" id="Layer_1" xmlns="http://www.w3.org/2000/svg" xmlns:xlink="http://www.w3.org/1999/xlink" x="0px" y="0px"
	 width="75px" height="75px" viewBox="0 0 75 75" enable-background="new 0 0 75 75" xml:space="preserve">
<path fill="#23A0CA" d="M34,59.7c2.3,2.3,6.1,2.3,8.4,0l19.3-19.3c2.3-2.3,2.3-6.1,0-8.4l-0.1-0.1L41.3,52.2c-0.9,0.9-2,1.3-3.3,1.3
	l-0.9,0l-0.2-0.1c-0.8-0.2-1.6-0.6-2.2-1.2L21.3,38.8c-0.9-0.9-1.4-2-1.4-3.3c0-1.2,0.5-2.4,1.4-3.3l4-4c0.9-0.9,2.1-1.3,3.3-1.4
	c1.2,0,2.4,0.5,3.3,1.4l6.2,6.2l13.1-13.1l-8.7-8.7c-2.3-2.3-6.1-2.3-8.4,0L14.7,32c-2.3,2.3-2.3,6.1,0,8.4L34,59.7z"/>
<path fill="#23A0CA" d="M29.6,30.4c-0.3-0.3-0.7-0.5-1.2-0.5c-0.4,0-0.9,0.2-1.2,0.5l-4,3.9c-0.7,0.7-0.7,1.7,0,2.3L36.7,50
	c0.3,0.3,0.6,0.7,1,0.8l0.2,0.2h0c0.4,0,0.9-0.4,1.2-0.7l24-24c0.6-0.6,0.7-1.8,0-2.4l-4-4c-0.3-0.3-0.7-0.5-1.2-0.5
	c-0.4,0-0.9,0.2-1.2,0.5L37.9,38.7L29.6,30.4z"/>
</svg>
