<?xml version="1.0" encoding="utf-8"?>
<!-- Generator: Adobe Illustrator 16.0.0, SVG Export Plug-In . SVG Version: 6.00 Build 0)  -->
<!DOCTYPE svg PUBLIC "-//W3C//DTD SVG 1.1//EN" "http://www.w3.org/Graphics/SVG/1.1/DTD/svg11.dtd">
<svg version="1.1" id="Layer_1" xmlns="http://www.w3.org/2000/svg" xmlns:xlink="http://www.w3.org/1999/xlink" x="0px" y="0px"
	 width="75px" height="75px" viewBox="0 0 75 75" enable-background="new 0 0 75 75" xml:space="preserve">
<path fill="#181617" d="M26,55.2c6,0,9.7-2.6,9.7-2.6c0.2-0.1,0.2-0.3,0.2-0.4V35.5c0-0.3-0.2-0.5-0.5-0.5h-11
	c-0.3,0-0.5,0.2-0.5,0.5v5.4c0,0.3,0.2,0.5,0.5,0.5h4.3V48c0,0-1,0.3-3.6,0.3c-3.1,0-7.5-1.1-7.5-10.8c0-9.7,4.6-10.9,8.9-10.9
	c3.7,0,5.3,0.7,6.3,1c0.3,0.1,0.6-0.2,0.6-0.5l1.2-5.2c0-0.1,0-0.3-0.2-0.4c-0.4-0.3-2.9-1.7-9.3-1.7c-7.3,0-14.9,3.1-14.9,18.2
	C10.1,53,18.7,55.2,26,55.2z"/>
<ellipse fill="#181617" cx="43" cy="25.8" rx="4" ry="4"/>
<path fill="#181617" d="M46,31.7h-6.2c-0.3,0-0.5,0.3-0.5,0.6c0,0,0,18,0,21.4c0,0.6,0.4,0.8,0.9,0.8c0,0,2.6,0,5.6,0
	c0.6,0,0.8-0.3,0.8-0.8c0-1.1,0-5.7,0-6.5c0-0.8,0-15,0-15C46.5,31.9,46.3,31.7,46,31.7z"/>
<path fill="#181617" d="M49.3,37.7h3.2c0,0,0,4.2,0,9.6c0,7.1,5,7.8,8.4,7.8c1.5,0,3.4-0.5,3.7-0.6c0.2-0.1,0.3-0.3,0.3-0.5l0-4.4
	c0-0.3-0.2-0.5-0.5-0.5c-0.3,0-1,0.1-1.7,0.1c-2.3,0-3.1-1.1-3.1-2.4c0-1.4,0-9.1,0-9.1h4.6c0.3,0,0.5-0.2,0.5-0.5v-5
	c0-0.3-0.2-0.5-0.5-0.5h-4.6l0-6.1c0-0.2-0.1-0.3-0.4-0.3H53c-0.2,0-0.4,0.1-0.4,0.3v6.3c0,0-3.2,0.8-3.4,0.8
	c-0.2,0.1-0.4,0.3-0.4,0.5v4C48.8,37.5,49.1,37.7,49.3,37.7z"/>
</svg>
