<?xml version="1.0" encoding="utf-8"?>
<!-- Generator: Adobe Illustrator 16.0.0, SVG Export Plug-In . SVG Version: 6.00 Build 0)  -->
<!DOCTYPE svg PUBLIC "-//W3C//DTD SVG 1.1//EN" "http://www.w3.org/Graphics/SVG/1.1/DTD/svg11.dtd">
<svg version="1.1" id="Layer_1" xmlns="http://www.w3.org/2000/svg" xmlns:xlink="http://www.w3.org/1999/xlink" x="0px" y="0px"
	 width="75px" height="75px" viewBox="0 0 75 75" enable-background="new 0 0 75 75" xml:space="preserve">
<path fill="#EB622F" d="M36.9,66.2l20.5-5.7L62,9.3H11.8l4.6,51.2L36.9,66.2z M36.9,19.7L36.9,19.7h15.7l-0.1,1.7l-0.3,3.2L52,26h0
	H36.9h0H28l0.6,6.4h8.3h0h12.9h1.7l-0.2,1.7l-1.5,16.5l-0.1,1.1l-12.9,3.6l0,0L24,51.7l-0.9-9.9H26h3.4l0.4,5l7,1.9h0l7-1.9l0.7-8.1
	h-7.7h0h-14l-1.5-17.3l-0.2-1.7H36.9z"/>
</svg>
