<?xml version="1.0" encoding="utf-8"?>
<!-- Generator: Adobe Illustrator 16.0.0, SVG Export Plug-In . SVG Version: 6.00 Build 0)  -->
<!DOCTYPE svg PUBLIC "-//W3C//DTD SVG 1.1//EN" "http://www.w3.org/Graphics/SVG/1.1/DTD/svg11.dtd">
<svg version="1.1" id="Layer_1" xmlns="http://www.w3.org/2000/svg" xmlns:xlink="http://www.w3.org/1999/xlink" x="0px" y="0px"
	 width="75px" height="75px" viewBox="0 0 75 75" enable-background="new 0 0 75 75" xml:space="preserve">
<path fill="#7BC143" d="M27.7,58.1c2.4,0,4.3-1,5.5-3c0.7-1.1,1-2.7,1-4.7v-7l10.2,12.7c1.1,1.3,2.6,2,4.7,2c1.9,0,3.5-0.7,4.8-2
	c1.3-1.3,2-2.9,2-4.8c0-1.4-0.4-2.6-1.2-3.7l-8.3-10.6l6.8-9.9c0.7-1,1.1-2.2,1.1-3.6c0-1.8-0.7-3.4-2-4.7c-1.3-1.3-2.9-2-4.8-2
	c-2.3,0-4.1,1-5.5,3.1L34.3,31v-6.5c0-1.4-0.1-2.4-0.2-2.9c-0.2-0.8-0.7-1.7-1.4-2.5c-1.3-1.5-3-2.2-5.1-2.2c-2.1,0-3.8,0.7-5,2.2
	c-1.2,1.4-1.7,3.2-1.7,5.3v26c0,2.3,0.6,4.1,1.7,5.4C23.8,57.4,25.5,58.1,27.7,58.1z"/>
</svg>
