<?xml version="1.0" encoding="utf-8"?>
<!-- Generator: Adobe Illustrator 16.0.0, SVG Export Plug-In . SVG Version: 6.00 Build 0)  -->
<!DOCTYPE svg PUBLIC "-//W3C//DTD SVG 1.1//EN" "http://www.w3.org/Graphics/SVG/1.1/DTD/svg11.dtd">
<svg version="1.1" id="Layer_1" xmlns="http://www.w3.org/2000/svg" xmlns:xlink="http://www.w3.org/1999/xlink" x="0px" y="0px"
	 width="75px" height="75px" viewBox="0 0 75 75" enable-background="new 0 0 75 75" xml:space="preserve">
<path fill="#B4DEF0" d="M65,42.2c-0.1-0.3-0.2-0.6-0.2-1c-0.9-3.8-2.2-7.5-4-10.9c-1.5-2.9-3.4-5.7-5.6-8.2c-2-2.3-4.4-4.3-7.1-5.8
	c-1.4-0.8-3-1.4-4.5-1.9c-0.8-0.3-1.7-0.5-2.6-0.6c-0.2,0-0.4-0.1-0.7-0.1c-0.3,0-0.6,0-0.9,0c-0.5,0-1.1,0-1.7,0
	c-0.3,0-0.5,0-0.8,0c-0.2,0-0.5,0.1-0.7,0.1c-0.4,0.1-0.9,0.2-1.3,0.3c-0.9,0.2-1.7,0.5-2.5,0.8c-1.6,0.6-3.2,1.5-4.7,2.5
	c-2.8,2-5.3,4.4-7.4,7.2c-2.2,2.9-4,6.2-5.3,9.5c-1.4,3.6-2.4,7.4-3.1,11.2c-0.1,0.5-0.2,1-0.2,1.5c0,0.3,0,0.5,0,0.8
	c0,0.1,0,0.2,0.1,0.3l0.2,0.2c0.4,0.6,0.8,1.1,1.2,1.6c0.9,1,1.9,2,2.9,2.8c2.3,1.8,4.9,3,7.6,3.9c3.1,1,6.4,1.6,9.7,1.8
	c3.8,0.3,7.7,0.3,11.5-0.1c3.5-0.4,7-1.1,10.3-2.4c2.9-1.2,5.6-2.8,8-4.9c0.6-0.5,1.2-1.1,1.7-1.8c0.4-0.6,0.7-1.2,0.8-1.9
	c0.1-0.8-0.1-1.6-0.2-2.4C65.4,44,65.2,43.1,65,42.2z M60.5,47.6c0,0.1-0.1,0.2-0.1,0.3c-1.5,2.6-4.3,4.2-7.1,5.3
	c-3.3,1.3-6.9,1.9-10.4,2.1c-3.6,0.3-7.3,0.2-11-0.1c-3.3-0.3-6.6-0.9-9.7-2.1c-2.6-1-5.1-2.5-6.8-4.7c-0.4-0.5-0.8-1.1-1.1-1.6
	l-0.1-0.2c-0.1-0.1-0.1-0.1,0-0.3c0-0.3,0.1-0.5,0.2-0.8c0.1-0.5,0.2-0.9,0.4-1.4c0.6-1.8,1.5-3.4,2.5-5c0.5-0.8,1-1.6,1.5-2.3
	c0.5-0.8,1-1.6,1.6-2.3c0.9-1.2,2.1-2.5,3.6-3c2.1-0.7,3.7,1.5,4.9,2.9c0.7,0.8,1.4,1.6,2.4,2c0.4,0.2,0.9,0.3,1.4,0.3
	c0.7,0,1.3-0.5,1.9-1c1.4-1.2,2.6-2.7,3.7-4.2c1.2-1.6,2.4-3.3,3.8-4.8c0.6-0.6,1.2-1.4,2-1.7c0.4-0.1,0.8-0.1,1.1,0.1
	c0.2,0.1,0.4,0.2,0.5,0.4c0.2,0.2,0.4,0.3,0.6,0.5c1.5,1.1,2.9,2.4,4.2,3.8c1.1,1.2,2.2,2.4,3.3,3.7c1,1.2,2,2.5,2.8,3.9
	c1,1.7,1.9,3.4,2.8,5.1C60.5,44.1,61.4,45.9,60.5,47.6z"/>
<path fill="#6FBD72" d="M56.8,37.4C56,36,55,34.7,54,33.5c-1-1.3-2.1-2.5-3.3-3.7c-1.3-1.4-2.7-2.6-4.2-3.8
	c-0.2-0.1-0.4-0.3-0.6-0.5c-0.2-0.2-0.3-0.3-0.5-0.4C45,25,44.6,25,44.2,25.1c-0.8,0.3-1.4,1.1-2,1.7c-1.4,1.5-2.6,3.1-3.8,4.8
	c-1.1,1.5-2.3,3-3.7,4.2c-0.5,0.4-1.2,0.9-1.9,1c-0.5,0-1-0.1-1.4-0.3c-1-0.4-1.7-1.2-2.4-2c-1.2-1.3-2.8-3.5-4.9-2.9
	c-1.5,0.5-2.7,1.8-3.6,3c-0.6,0.7-1.1,1.5-1.6,2.3c-0.5,0.8-1,1.5-1.5,2.3c-1,1.6-1.9,3.2-2.5,5c-0.2,0.5-0.3,0.9-0.4,1.4
	c-0.1,0.3-0.1,0.5-0.2,0.8c0,0.1,0,0.2,0,0.3l0.1,0.2c0.3,0.6,0.7,1.1,1.1,1.6c1.7,2.2,4.2,3.7,6.8,4.7c3.1,1.2,6.4,1.8,9.7,2.1
	c3.6,0.3,7.3,0.3,11,0.1c3.5-0.2,7.1-0.9,10.4-2.1c2.7-1.1,5.5-2.7,7.1-5.3c0.1-0.1,0.1-0.2,0.1-0.3c0.9-1.8,0-3.6-0.9-5.1
	C58.7,40.8,57.8,39,56.8,37.4z"/>
</svg>
