<?xml version="1.0" encoding="utf-8"?>
<!-- Generator: Adobe Illustrator 16.0.0, SVG Export Plug-In . SVG Version: 6.00 Build 0)  -->
<!DOCTYPE svg PUBLIC "-//W3C//DTD SVG 1.1//EN" "http://www.w3.org/Graphics/SVG/1.1/DTD/svg11.dtd">
<svg version="1.1" id="Layer_1" xmlns="http://www.w3.org/2000/svg" xmlns:xlink="http://www.w3.org/1999/xlink" x="0px" y="0px"
	 width="75px" height="75px" viewBox="0 0 75 75" enable-background="new 0 0 75 75" xml:space="preserve">
<path fill="#1D487A" d="M59.2,32.4C55.3,45,37.9,44.3,35.4,44.3c-2.5,0-3.1,2.3-3.1,2.3l-1.9,8.2c-0.5,2.9-3.1,2.7-3.1,2.7
	s-3.4,0-5.7,0c-0.1,0-0.3,0-0.4,0c0,0.5,0,2.1,1.9,2.1c2.3,0,5.7,0,5.7,0s2.6,0.1,3.1-2.7l1.9-8.2c0,0,0.6-2.3,3.1-2.3
	c2.5,0,19.9,0.7,23.8-11.9c0.9-2.8,1.6-8-2-11.6C60.5,26.2,59.9,30.1,59.2,32.4z"/>
<path fill="#1D487A" d="M28.6,53.1l1.9-8.2c0,0,0.6-2.3,3.1-2.3c2.5,0,19.9,0.7,23.8-11.9c1.4-4.6,2.4-15.5-15.2-15.5H29.5
	c0,0-2.6-0.1-3.3,2.7l-8.3,35.8c0,0-0.4,2.2,1.9,2.2c2.3,0,5.7,0,5.7,0S28.1,56,28.6,53.1z M33.4,32.3l1.7-7.3c0,0,0.5-2,2.3-2.3
	c1.7-0.3,4.7,0.1,5.4,0.2c4.9,0.9,3.9,5.6,3.9,5.6c-1,7.2-12.2,6.2-12.2,6.2C32.8,34.1,33.4,32.3,33.4,32.3z"/>
</svg>
