<?xml version="1.0" encoding="utf-8"?>
<!-- Generator: Adobe Illustrator 16.0.0, SVG Export Plug-In . SVG Version: 6.00 Build 0)  -->
<!DOCTYPE svg PUBLIC "-//W3C//DTD SVG 1.1//EN" "http://www.w3.org/Graphics/SVG/1.1/DTD/svg11.dtd">
<svg version="1.1" id="Layer_1" xmlns="http://www.w3.org/2000/svg" xmlns:xlink="http://www.w3.org/1999/xlink" x="0px" y="0px"
	 width="75px" height="75px" viewBox="0 0 75 75" enable-background="new 0 0 75 75" xml:space="preserve">
<path fill="#ED802D" d="M22,61.2c0,3.9-3.2,7.1-7.1,7.1c-3.9,0-7.1-3.2-7.1-7.1c0-3.9,3.2-7.1,7.1-7.1C18.8,54.1,22,57.3,22,61.2z
	 M7.8,33.2v10.2c6.6,0,12.9,2.6,17.6,7.3c4.7,4.7,7.3,11,7.3,17.7h10.2C42.9,49,27.2,33.2,7.8,33.2z M7.9,15v10.2
	c23.6,0,42.9,19.3,42.9,43.1h10.2C60.9,39,37.1,15,7.9,15z"/>
</svg>
