<?xml version="1.0" encoding="utf-8"?>
<!-- Generator: Adobe Illustrator 16.0.0, SVG Export Plug-In . SVG Version: 6.00 Build 0)  -->
<!DOCTYPE svg PUBLIC "-//W3C//DTD SVG 1.1//EN" "http://www.w3.org/Graphics/SVG/1.1/DTD/svg11.dtd">
<svg version="1.1" id="Layer_1" xmlns="http://www.w3.org/2000/svg" xmlns:xlink="http://www.w3.org/1999/xlink" x="0px" y="0px"
	 width="75px" height="75px" viewBox="0 0 75 75" enable-background="new 0 0 75 75" xml:space="preserve">
<path fill="#FAA21D" d="M14.2,38.6c-0.1,0-0.2,0.1-0.2,0.2l-0.5,5l0.5,4.9c0,0.1,0.1,0.2,0.2,0.2c0.1,0,0.2-0.1,0.2-0.2l0.6-4.9
	l-0.6-5C14.4,38.7,14.3,38.6,14.2,38.6z"/>
<path fill="#FAA21D" d="M12.1,40.5c-0.1,0-0.2,0.1-0.2,0.2l-0.4,3.1l0.4,3.1c0,0.1,0.1,0.2,0.2,0.2c0.1,0,0.2-0.1,0.2-0.2l0.5-3.1
	l-0.5-3.1C12.3,40.6,12.2,40.5,12.1,40.5z"/>
<path fill="#FAA21D" d="M16.4,37.6c-0.1,0-0.3,0.1-0.3,0.3l-0.5,6l0.5,5.8c0,0.2,0.1,0.3,0.3,0.3s0.3-0.1,0.3-0.3l0.6-5.8l-0.6-6
	C16.6,37.7,16.5,37.6,16.4,37.6z"/>
<path fill="#FAA21D" d="M18.5,37.4c-0.2,0-0.3,0.1-0.3,0.3l-0.5,6.1l0.5,5.9c0,0.2,0.2,0.3,0.3,0.3c0.2,0,0.3-0.1,0.3-0.3l0.6-5.9
	l-0.6-6.1C18.9,37.5,18.7,37.4,18.5,37.4z"/>
<path fill="#FAA21D" d="M21.1,38.1c0-0.2-0.2-0.4-0.4-0.4c-0.2,0-0.4,0.2-0.4,0.4l-0.5,5.7l0.5,6c0,0.2,0.2,0.4,0.4,0.4
	c0.2,0,0.4-0.2,0.4-0.4l0,0l0.5-6L21.1,38.1z"/>
<path fill="#FAA21D" d="M23,34.1c-0.2,0-0.4,0.2-0.4,0.4l-0.4,9.3l0.4,6c0,0.2,0.2,0.4,0.4,0.4c0.2,0,0.4-0.2,0.4-0.4v0l0.5-6
	l-0.5-9.3C23.4,34.3,23.2,34.1,23,34.1z"/>
<path fill="#FAA21D" d="M25.2,32c-0.3,0-0.5,0.2-0.5,0.5l-0.4,11.4l0.4,5.9c0,0.3,0.2,0.5,0.5,0.5c0.2,0,0.5-0.2,0.5-0.5v0l0.5-5.9
	l-0.5-11.4C25.7,32.2,25.5,32,25.2,32z"/>
<path fill="#FAA21D" d="M27.5,31c-0.3,0-0.5,0.2-0.5,0.5l-0.4,12.3l0.4,5.9c0,0.3,0.2,0.5,0.5,0.5S28,50,28,49.7v0l0.4-5.9L28,31.5
	C28,31.2,27.8,31,27.5,31z"/>
<path fill="#FAA21D" d="M29.8,30.5c-0.3,0-0.6,0.2-0.6,0.6l-0.4,12.7l0.4,5.8c0,0.3,0.3,0.6,0.6,0.6c0.3,0,0.5-0.2,0.6-0.6v0
	l0.4-5.8l-0.4-12.7C30.3,30.8,30.1,30.5,29.8,30.5z"/>
<path fill="#FAA21D" d="M32.1,30.8c-0.3,0-0.6,0.3-0.6,0.6l-0.3,12.4l0.3,5.8c0,0.3,0.3,0.6,0.6,0.6c0.3,0,0.6-0.3,0.6-0.6v0
	l0.4-5.8l-0.4-12.4C32.7,31.1,32.4,30.8,32.1,30.8z"/>
<path fill="#FAA21D" d="M34.4,31.2c-0.4,0-0.6,0.3-0.7,0.7l-0.3,12l0.3,5.8c0,0.4,0.3,0.7,0.7,0.7s0.6-0.3,0.7-0.7v0l0.3-5.8
	l-0.3-12C35,31.5,34.8,31.2,34.4,31.2z"/>
<path fill="#FAA21D" d="M36.7,28.9c-0.4,0-0.7,0.3-0.7,0.7l-0.3,14.2l0.3,5.7c0,0.4,0.3,0.7,0.7,0.7s0.7-0.3,0.7-0.7v0l0.3-5.7
	l-0.3-14.2C37.4,29.2,37.1,28.9,36.7,28.9z"/>
<path fill="#FAA21D" d="M39.1,27.5c-0.4,0-0.7,0.3-0.8,0.8L38,43.8l0.3,5.6c0,0.4,0.3,0.8,0.8,0.8c0.4,0,0.7-0.3,0.7-0.8v0l0.3-5.6
	l-0.3-15.5C39.8,27.9,39.5,27.5,39.1,27.5z"/>
<path fill="#FAA21D" d="M60.1,36.5c-0.9,0-1.8,0.2-2.6,0.5c-0.5-6.2-5.7-11.1-12-11.1c-1.5,0-3,0.3-4.4,0.8
	c-0.5,0.2-0.7,0.4-0.7,0.8v21.9c0,0.4,0.3,0.8,0.7,0.8c0,0,18.8,0,18.9,0c3.8,0,6.8-3.1,6.8-6.9C66.9,39.6,63.8,36.5,60.1,36.5z"/>
</svg>
