<?xml version="1.0" encoding="utf-8"?>
<!-- Generator: Adobe Illustrator 16.0.0, SVG Export Plug-In . SVG Version: 6.00 Build 0)  -->
<!DOCTYPE svg PUBLIC "-//W3C//DTD SVG 1.1//EN" "http://www.w3.org/Graphics/SVG/1.1/DTD/svg11.dtd">
<svg version="1.1" id="Layer_1" xmlns="http://www.w3.org/2000/svg" xmlns:xlink="http://www.w3.org/1999/xlink" x="0px" y="0px"
	 width="75px" height="75px" viewBox="0 0 75 75" enable-background="new 0 0 75 75" xml:space="preserve">
<path fill="#79B843" d="M39.2,12.1c-13.3,0-24.1,10.8-24.1,24.1c0,6.3,2.5,12.1,6.5,16.4c1.6-1.9,3.5-3.4,5.7-4.5
	c2.6-1.3,5.4-2,8.3-2c4.6,0,9,1.7,12.4,4.8c1.7,1.6,3.1,3.4,4.1,5.5c6.7-4.3,11.2-11.8,11.2-20.3C63.3,22.9,52.5,12.1,39.2,12.1z
	 M50.6,45.5c-0.3,0.4-0.8,0.7-1.3,0.7c-0.3,0-0.6-0.1-0.9-0.3c-3.8-2.6-8.2-4-12.8-4c-2.7,0-5.3,0.5-7.7,1.4c-0.8,0.3-1.8-0.1-2.1-1
	c-0.3-0.8,0.1-1.8,1-2.1c2.8-1,5.8-1.6,8.8-1.6c5.2,0,10.3,1.6,14.6,4.6C51,43.8,51.1,44.8,50.6,45.5z M54.1,38.1
	c-0.3,0.5-0.9,0.8-1.5,0.8c-0.3,0-0.7-0.1-1-0.3c-4.8-3-10.3-4.6-16-4.6c-3.2,0-6.3,0.5-9.3,1.4c-0.9,0.3-2-0.2-2.3-1.2
	c-0.3-1,0.2-2,1.2-2.3c3.3-1.1,6.8-1.6,10.4-1.6c6.4,0,12.6,1.8,17.9,5.1C54.4,36.2,54.7,37.3,54.1,38.1z M57.6,30.7
	c-0.4,0.6-1,1-1.7,1c-0.3,0-0.7-0.1-1-0.3c-5.8-3.4-12.5-5.2-19.3-5.2c-3.7,0-7.3,0.5-10.8,1.5c-1.1,0.3-2.2-0.3-2.5-1.4
	c-0.3-1.1,0.3-2.2,1.4-2.5c3.9-1.1,7.9-1.7,11.9-1.7c7.5,0,14.9,2,21.3,5.8C57.9,28.6,58.2,29.8,57.6,30.7z"/>
<path fill="#79B843" d="M35.6,54.6c-1.6,0-3,0.4-4.4,1.1c-1,0.5-1.9,1.2-2.7,2c3.2,1.6,6.9,2.6,10.7,2.6c1.7,0,3.4-0.2,5-0.5
	c-0.5-0.9-1.2-1.8-2-2.5C40.4,55.5,38.1,54.6,35.6,54.6z"/>
</svg>
