<?xml version="1.0" encoding="utf-8"?>
<!-- Generator: Adobe Illustrator 16.0.0, SVG Export Plug-In . SVG Version: 6.00 Build 0)  -->
<!DOCTYPE svg PUBLIC "-//W3C//DTD SVG 1.1//EN" "http://www.w3.org/Graphics/SVG/1.1/DTD/svg11.dtd">
<svg version="1.1" id="Layer_1" xmlns="http://www.w3.org/2000/svg" xmlns:xlink="http://www.w3.org/1999/xlink" x="0px" y="0px"
	 width="75px" height="75px" viewBox="0 0 75 75" enable-background="new 0 0 75 75" xml:space="preserve">
<path fill="#45546B" d="M28.7,49.6c0,2.3,0.2,4,0.7,5.1c0.5,1.2,1.3,2.3,2.5,3.4c1.2,1,2.7,1.9,4.4,2.4c1.7,0.6,3.7,0.9,6,0.9
	c2,0,3.8-0.2,5.5-0.6c1.7-0.4,3.6-1.1,5.7-2.1v-7.8c-2.5,1.6-4.9,2.4-7.4,2.4c-1.4,0-2.6-0.3-3.7-1c-0.8-0.5-1.4-1.1-1.7-1.9
	c-0.3-0.8-0.5-2.6-0.5-5.5V32.3H52v-7.7H40.3V12.2h-7c-0.3,2.5-0.9,4.6-1.7,6.3c-0.8,1.6-1.9,3.1-3.3,4.2c-1.4,1.2-3,2.1-5,2.7v7
	h5.4V49.6z"/>
</svg>
