<?xml version="1.0" encoding="utf-8"?>
<!-- Generator: Adobe Illustrator 16.0.0, SVG Export Plug-In . SVG Version: 6.00 Build 0)  -->
<!DOCTYPE svg PUBLIC "-//W3C//DTD SVG 1.1//EN" "http://www.w3.org/Graphics/SVG/1.1/DTD/svg11.dtd">
<svg version="1.1" id="Layer_1" xmlns="http://www.w3.org/2000/svg" xmlns:xlink="http://www.w3.org/1999/xlink" x="0px" y="0px"
	 width="75px" height="75px" viewBox="0 0 75 75" enable-background="new 0 0 75 75" xml:space="preserve">
<path fill="#00B386" d="M58.1,33.8c0.5-3.3,0.5-6.6,0.5-10.4c0-10.8-20-12.6-20,1.1c0,9.6,4.5,14.7,9.3,17.4c-4,7.8-9.3,12-9.3,12
	C23.8,41.7,25.2,21.1,25.2,21.1h-6.5c0.1,27.8,14.8,37.5,16.6,39c1.8,1.4,2.2,1.3,4.3,1.2c2.2-0.1,7.1-5.1,13.1-14.4
	c0.6-0.9,1.1-1.8,1.6-2.6c2.5,0.6,4.3,0.6,4.3,0.6v-5.9c-12.6-1.2-13.4-12-13.4-14.7c0-3.5,6.9-5.3,6.9,0.6c0,3.2-0.5,6.2-1.2,9
	H58.1z"/>
</svg>
