<?xml version="1.0" encoding="utf-8"?>
<!-- Generator: Adobe Illustrator 16.0.0, SVG Export Plug-In . SVG Version: 6.00 Build 0)  -->
<!DOCTYPE svg PUBLIC "-//W3C//DTD SVG 1.1//EN" "http://www.w3.org/Graphics/SVG/1.1/DTD/svg11.dtd">
<svg version="1.1" id="Layer_1" xmlns="http://www.w3.org/2000/svg" xmlns:xlink="http://www.w3.org/1999/xlink" x="0px" y="0px"
	 width="75px" height="75px" viewBox="0 0 75 75" enable-background="new 0 0 75 75" xml:space="preserve">
<path fill="#F57F20" d="M37.5,63.5c14.4,0,26-11.7,26-26s-11.7-26-26-26c-14.4,0-26,11.7-26,26S23.1,63.5,37.5,63.5z M16.9,37.5
	c0-1.8,0.2-3.5,0.6-5.2c0.1-0.5,0.3-1,0.5-1.6c2-5.9,6.7-10.7,12.6-12.7c2.2-0.8,4.5-1.2,6.9-1.2c6.9,0,13.4,3.5,17.2,9.3
	c0.9,1.4,1.7,3,2.3,4.6h0c0.2,0.5,0.3,1,0.5,1.6c0.4,1.7,0.6,3.5,0.6,5.3c0,3.3-1.1,7-5.3,5.2c-2-0.8-3.6-2.5-4.9-4.2
	c-1.4-2-2.9-3.9-4.4-5.7c-1.5-1.7-3.1-3.4-4.8-4.9c-1.7-1.5-3.6-2.9-5.6-3.9c-1.4-0.7-2.8-1.2-4.3-1.6c-0.2,0-0.6-0.2-0.7,0l0,0.5
	c0,0.3,0.1,0.6,0.1,0.9c0.4,3.6,0.6,7.5-0.5,11c-0.6,1.9-1.7,3.6-3.2,5c-1.2,1.1-3,2.2-4.7,2.2c-0.3,0-0.6-0.1-1-0.2
	C17,41.1,16.9,39.1,16.9,37.5z"/>
</svg>
