<?xml version="1.0" encoding="utf-8"?>
<!-- Generator: Adobe Illustrator 16.0.0, SVG Export Plug-In . SVG Version: 6.00 Build 0)  -->
<!DOCTYPE svg PUBLIC "-//W3C//DTD SVG 1.1//EN" "http://www.w3.org/Graphics/SVG/1.1/DTD/svg11.dtd">
<svg version="1.1" id="Layer_1" xmlns="http://www.w3.org/2000/svg" xmlns:xlink="http://www.w3.org/1999/xlink" x="0px" y="0px"
	 width="75px" height="75px" viewBox="0 0 75 75" enable-background="new 0 0 75 75" xml:space="preserve">
<path fill="#702B90" d="M42.5,19.9l0.5,3.3l6.1,1.5c-0.1,2-3.3,6.7-9.3,13.9c-4.6-9.1-8-16.3-10.2-21.5l7.2-1.1l0.2-2.6
	c-3.2-0.4-7.2-0.4-12-0.2C18.1,13,14.3,13,13.9,13.4v3.1l6.8,1.5c1.2,1.5,3.6,5.7,7.4,13c3.6,7,5.5,11.1,5.8,12.2L34,48v2.4
	c0,3.9-0.1,6.1-0.4,6.5c-0.3,0.6-1.4,0.9-3.2,1.1l-3.4,0.2l-0.4,3.3l10.6-0.2h11.9l0.1-3.5L42,57.6l-0.5-7l0.1-2.8l0.2-4.6
	c0.4-1.7,2.5-5,6.6-10.2c3.9-5,6.1-7.6,6.9-8l5.5-1.9l1.4-3.1l-9.6-0.2H42.5z"/>
</svg>
