<?xml version="1.0" encoding="utf-8"?>
<!-- Generator: Adobe Illustrator 16.0.0, SVG Export Plug-In . SVG Version: 6.00 Build 0)  -->
<!DOCTYPE svg PUBLIC "-//W3C//DTD SVG 1.1//EN" "http://www.w3.org/Graphics/SVG/1.1/DTD/svg11.dtd">
<svg version="1.1" id="Layer_1" xmlns="http://www.w3.org/2000/svg" xmlns:xlink="http://www.w3.org/1999/xlink" x="0px" y="0px"
	 width="75px" height="75px" viewBox="0 0 75 75" enable-background="new 0 0 75 75" xml:space="preserve">
<path fill="#CD332D" d="M46.1,30.1c1.1,0,2.3-0.7,3.5-2.1v1.8h3.1V13h-3.1v12.9c-0.7,1-1.3,1.4-1.9,1.4c-0.4,0-0.7-0.2-0.7-0.7
	c0-0.1,0-0.5,0-1.2V13h-3.1v13.4c0,1.2,0.1,2,0.3,2.5C44.4,29.7,45.1,30.1,46.1,30.1z"/>
<path fill="#CD332D" d="M24.8,20.7v9.2h3.4v-9.2l4.1-13.5h-3.4l-2.3,8.9l-2.4-8.9h-3.6c0.7,2.1,1.5,4.2,2.2,6.3
	C23.8,16.7,24.5,19,24.8,20.7z"/>
<path fill="#CD332D" d="M36.8,30.1c1.5,0,2.7-0.6,3.6-1.7c0.6-0.8,1-2.2,1-4v-5.9c0-1.8-0.3-3.1-1-4c-0.8-1.2-2-1.7-3.6-1.7
	c-1.5,0-2.7,0.6-3.6,1.7c-0.7,0.9-1,2.2-1,4v5.9c0,1.8,0.3,3.1,1,4C34.1,29.5,35.3,30.1,36.8,30.1z M35.3,17.9
	c0-1.6,0.5-2.3,1.5-2.3c1,0,1.5,0.8,1.5,2.3V25c0,1.6-0.5,2.3-1.5,2.3c-1,0-1.5-0.8-1.5-2.3V17.9z"/>
<path fill="#CD332D" d="M56.3,33.6c-6.2-0.7-12.5-0.7-18.8-0.7c-6.3,0-12.6,0-18.8,0.7c-2.6,0.3-4.8,2.3-5.4,4.9
	c-0.9,3.8-0.9,7.9-0.9,11.8c0,3.9,0,8.1,0.9,11.8c0.6,2.7,2.8,4.6,5.4,4.9c6.2,0.7,12.5,0.7,18.8,0.7c6.3,0,12.6,0,18.8-0.7
	c2.6-0.3,4.8-2.3,5.4-4.9c0.9-3.8,0.9-7.9,0.9-11.8c0-3.9,0-8-0.9-11.8C61.1,35.8,58.9,33.9,56.3,33.6z M26.7,41.9h-3.6v19.3h-3.4
	V41.9h-3.6v-3.2h10.6V41.9z M35.9,61.2h-3v-1.8c-1.2,1.4-2.3,2.1-3.5,2.1c-1,0-1.7-0.4-2-1.2c-0.2-0.5-0.3-1.3-0.3-2.5V44.5h3v12.3
	c0,0.7,0,1.1,0,1.2c0.1,0.5,0.3,0.7,0.7,0.7c0.6,0,1.2-0.5,1.9-1.4V44.5h3V61.2z M47.4,56.2c0,1.5-0.1,2.7-0.3,3.4
	c-0.4,1.2-1.2,1.9-2.4,1.9c-1.1,0-2.1-0.6-3.1-1.9v1.6h-3V38.8h3v7.3c1-1.2,2-1.8,3.1-1.8c1.2,0,2,0.6,2.4,1.9
	c0.2,0.7,0.3,1.8,0.3,3.4V56.2z M58.8,53.4h-6.1v3c0,1.5,0.5,2.3,1.5,2.3c0.7,0,1.2-0.4,1.4-1.2c0-0.2,0.1-0.8,0.1-2h3.1v0.4
	c0,1,0,1.6-0.1,2c-0.1,0.7-0.3,1.3-0.7,1.8c-0.8,1.2-2.1,1.8-3.7,1.8c-1.6,0-2.8-0.6-3.7-1.7c-0.6-0.8-1-2.2-1-3.9v-5.9
	c0-1.8,0.3-3.1,0.9-3.9c0.9-1.1,2.1-1.7,3.6-1.7c1.5,0,2.7,0.6,3.6,1.7c0.6,0.8,0.9,2.2,0.9,3.9V53.4z"/>
<path fill="#CD332D" d="M43,47c-0.5,0-1,0.2-1.5,0.7v10.2c0.5,0.5,1,0.7,1.5,0.7c0.9,0,1.3-0.7,1.3-2.3v-7.1
	C44.4,47.8,43.9,47,43,47z"/>
<path fill="#CD332D" d="M54.3,47c-1,0-1.5,0.8-1.5,2.3v1.5h3v-1.5C55.8,47.8,55.3,47,54.3,47z"/>
</svg>
