<svg style="display: none;">
<symbol viewBox="0 0 67.3 54.7" id="logo-a-bridge">
<title>a-bridge</title>
<path d="M0,1.1C3.1,0.5,8.8,0,14.3,0C21.5,0,26,0.9,29.7,3.4c3.4,2,5.6,5.5,5.6,10c0,4.9-3.1,9.5-8.9,11.6v0.2

		c5.7,1.4,10.8,5.9,10.8,13.3c0,4.8-2.1,8.5-5.2,11.1c-3.8,3.4-10.1,5-19.9,5c-5.4,0-9.6-0.4-12-0.7V1.1z M9.7,22.3h5

		c6.8,0,10.6-3.2,10.6-7.7c0-5-3.8-7.3-10-7.3c-2.9,0-4.5,0.2-5.6,0.4V22.3z M9.7,47c1.3,0.2,2.9,0.2,5.2,0.2c6.3,0,11.9-2.4,11.9-9

		c0-6.2-5.4-8.8-12.2-8.8H9.7V47z M45.5,27.8c0-5.3-0.1-9-0.3-12.5h8.5l0.3,7.4h0.3c1.9-5.5,6.5-8.3,10.6-8.3c1,0,1.5,0.1,2.3,0.2

		v9.2c-0.8-0.2-1.7-0.3-2.9-0.3c-4.7,0-7.9,3-8.8,7.4c-0.2,0.9-0.3,1.9-0.3,3v20.1h-9.8V27.8z" />
</symbol>
<symbol viewBox="0 0 60.2 53.9" id="logo-a-illustrator">
<title>a-illustrator</title>
<path d="M14.4,38.9L9.9,53.9H0L16.9,1.3h12.3l17.1,52.6H35.9l-4.8-14.9H14.4z M29.5,31.7l-4.1-13

		c-1-3.2-1.9-6.8-2.7-9.8h-0.2c-0.8,3-1.6,6.7-2.5,9.8l-4.1,13H29.5z M60.2,5.2c0,2.9-2.1,5.1-5.5,5.1c-3.2,0-5.3-2.3-5.3-5.1

		c0-3,2.2-5.2,5.4-5.2C58.1,0,60.1,2.3,60.2,5.2z M49.9,53.9v-38h9.7v38H49.9z" />
</symbol>
<symbol viewBox="0 0 51.7 56.3" id="logo-a-indesign">
<title>a-indesign</title>
<path d="M9.6,2.8v52.6H0V2.8H9.6z M51.4,0v44.7c0,3.9,0.1,8.1,0.3,10.7h-7.9l-0.4-6h-0.1c-2.1,4.2-6.3,6.9-11.4,6.9

		c-8.3,0-14.9-7.7-14.9-19.4C17,24.1,24.3,16.5,32.7,16.5c4.8,0,8.2,2.2,9.8,5h0.1V0H51.4z M42.6,33.3c0-0.8-0.1-1.7-0.2-2.5

		C41.6,27,38.8,24,34.8,24c-5.6,0-8.8,5.5-8.8,12.6c0,6.9,3.1,12,8.7,12c3.6,0,6.7-2.7,7.6-6.8c0.2-0.9,0.3-1.8,0.3-2.8V33.3z" />
</symbol>
<symbol viewBox="0 0 61 54" id="logo-a-lightroom">
<title>a-lightroom</title>
<path d="M0,0h9.9v45.8h22.2V54H0V0z M39.1,27.6c0-5.3-0.1-9.1-0.3-12.6h8.6l0.3,7.5H48c1.9-5.5,6.5-8.3,10.7-8.3

		c1,0,1.5,0.1,2.3,0.2v9.3c-0.8-0.2-1.7-0.3-2.9-0.3c-4.7,0-7.9,3-8.8,7.5c-0.2,0.9-0.3,1.9-0.3,3V54h-9.9V27.6z" />
</symbol>
<symbol viewBox="0 0 63.5 53.9" id="logo-a-photoshop">
<title>a-photoshop</title>
<path d="M0,1.1C3.4,0.5,8.2,0,14.7,0c7,0,12.2,1.5,15.5,4.3c3.1,2.6,5.2,6.7,5.2,11.6c0,5-1.6,9.1-4.5,11.9

		c-3.8,3.8-9.8,5.6-16.6,5.6c-1.8,0-3.4-0.1-4.7-0.3V53H0V1.1z M9.5,25.6c1.2,0.3,2.7,0.4,4.7,0.4c7.2,0,11.6-3.5,11.6-9.7

		c0-5.9-4.1-9-10.7-9c-2.7,0-4.5,0.2-5.5,0.5V25.6z M38.3,44.2c2.2,1.3,6.3,2.7,9.8,2.7c4.2,0,6.1-1.7,6.1-4.2

		c0-2.6-1.6-3.9-6.2-5.5c-7.4-2.6-10.5-6.6-10.5-11.1c0-6.7,5.5-11.9,14.4-11.9c4.2,0,7.9,1.1,10.1,2.3L60,23.2

		c-1.6-0.9-4.7-2.2-8-2.2c-3.4,0-5.3,1.6-5.3,4c0,2.4,1.8,3.6,6.6,5.3c6.9,2.5,10.1,6,10.1,11.6c0,6.9-5.4,11.9-15.5,11.9

		c-4.6,0-8.7-1.2-11.5-2.7L38.3,44.2z" />
</symbol>
<symbol viewBox="0 0 69.5 61.5" id="logo-adobe">
<title>adobe</title>
<path d="M43.8,0h25.7v61.5L43.8,0z M25.7,0H0v61.5L25.7,0z M23.5,49.2h12l4.9,12.4h10.7L34.8,22.7L23.5,49.2z" />
</symbol>
<symbol viewBox="0 0 117.2 31.5" id="logo-apache">
<title>apache</title>
<path d="M68.9,12.8C46.3,9.7,27-0.3,22.3,3.3c-1.7,1.3-1.8,4.7-1.8,6.8c-0.3-0.1-0.7-0.3-1.1-0.5

		c0.5-2.7,0.3-4.5-0.1-5.7c0.3-1.3,0.7-2,0.7-2s-0.8,0.2-1.4,0.8c-0.4-0.5-0.8-0.7-0.8-0.7s0.1,0.5,0.3,1.4

		c-0.1,0.2-0.2,0.4-0.2,0.6C17.3,1.9,17.7,0,17.7,0s-2,1.7-1,5c-1.5-1.4-1.5-3.7-1.5-3.7S13,2.6,14.9,5.5c-0.4-0.1-1.1-0.1-1.1-0.1

		s1.9,1,3.9,3.6C11.6,6.4,0.4,1.7,0,1.2c0.1,0,1.5,4.2,16.6,10.3c-2.2,0.7-5.9,0.1-5.9,0.1s0.4,0.6,1.8,1C8.9,13.8,8.8,16,8.8,16

		s1.9-1.9,4.2-2.2c0.1,0.4-3.2,2.1-3.2,2.1s1.1,0.3,2.4-0.2c-1.1,1.6-0.2,2.9-0.2,2.9s0.8-2.3,3.1-3.3c-0.7,1,0.3,3.9,0.3,3.9

		s1.1-4.4,3.2-6.9c0.3,0.1,0.6,0.2,0.9,0.3c-1,1.6-2.4,4.5-0.8,6.3c13.8,16.3,96.5,13.7,98.5,9.1C114.1,22.5,96.8,16.7,68.9,12.8z" />
</symbol>
<symbol viewBox="0 0 60.5 65.8" id="logo-branding">
<title>branding</title>
<path d="M30.2,12.4C19,12.4,9.9,21.5,9.9,32.8c0,11.3,9.1,20.4,20.4,20.4c11.3,0,20.4-9.1,20.4-20.4C50.6,21.5,41.5,12.4,30.2,12.4

		z M38.4,44.4l-8.1-4.3l-8.1,4.3l1.5-9.1l-6.6-6.4l9.1-1.3l4.1-8.2l4.1,8.2l9.1,1.3l-6.6,6.4L38.4,44.4z M60.5,20.1l-5,2.1

		C51.2,12,41.3,5.4,30.2,5.4S9.3,12,5,22.2l-5-2.1C5.1,7.9,17,0,30.2,0C43.5,0,55.3,7.9,60.5,20.1z M47.2,54.6l3.3,4.3

		c-5.8,4.5-12.8,6.9-20.2,6.9c-7.4,0-14.4-2.4-20.2-6.9l3.3-4.3c4.8,3.8,10.7,5.8,16.8,5.8C36.6,60.3,42.4,58.3,47.2,54.6z" />
</symbol>
<symbol viewBox="0 0 89.8 55.7" id="logo-code">
<title>code</title>
<path d="M26.9,45.8L0,30.2v-4.7L26.9,10l2.7,4.7L6.8,27.9l22.9,13.2L26.9,45.8z M89.8,32v-4.7L62.9,11.8l-2.7,4.7l22.9,13.2

		L60.2,42.8l2.7,4.7L89.8,32z M57.1,1.8L52,0L32.7,53.9l5.1,1.8L57.1,1.8z" />
</symbol>
<symbol viewBox="0 0 68.9 65.5" id="logo-color-theory">
<title>color-theory</title>
<path d="M68.9,44.1c0,11.8-9.6,21.4-21.4,21.4c-4.9,0-9.5-1.7-13.1-4.5c5.1-3.9,8.3-10,8.3-16.9c0-1-0.1-1.9-0.2-2.9

		c4.2-1.7,8-4.8,10.4-9.1c1.4-2.5,2.3-5.1,2.7-7.8C63.5,27.5,68.9,35.1,68.9,44.1z M26.2,44.1c0-1,0.1-1.9,0.2-2.9

		c-0.9-0.4-1.8-0.8-2.6-1.3c-6-3.4-9.6-9.3-10.5-15.7C5.5,27.5,0,35.1,0,44.1c0,11.8,9.6,21.4,21.4,21.4c4.9,0,9.5-1.7,13.1-4.5

		C29.4,57.1,26.2,50.9,26.2,44.1z M34.5,27.2c3.6-2.8,8.1-4.5,13.1-4.5c2.9,0,5.6,0.6,8.1,1.6c1.1-8.3-2.8-16.9-10.5-21.4

		C34.9-3,21.9,0.5,15.9,10.7c-2.5,4.3-3.3,9-2.7,13.6c2.5-1,5.2-1.6,8.1-1.6C26.3,22.7,30.9,24.3,34.5,27.2z M34.5,27.2

		c-4.3,3.4-7.3,8.3-8.1,14c5.3,2.2,11.1,2.1,16.2,0C41.8,35.5,38.8,30.5,34.5,27.2z" />
</symbol>
<symbol viewBox="0 0 64.5 72.6" id="logo-css3">
<title>css3</title>
<path d="M0,0l6,65.5l26.2,7.1l26.2-7.1L64.5,0H0z M51.5,21.2l-19.3,8.2l0,0h0h18.6l-2.1,24.5l-16.5,4.8l0,0v0

		L15.7,54l-1.1-12.4h0h8.2h0l0.5,6.4l8.8,2.2l0.1,0v0l9.1-2.6L42,37.3l-9.7,0l-18.1-0.1l-0.6-7.7l19.9-8.3H12.8l-1-7.9h20.5h20.1

		L51.5,21.2z" />
</symbol>
<symbol viewBox="0 0 56 68.7" id="logo-g-docs">
<title>g-docs</title>
<path d="M38.1,17.8V0h-33C2.3,0,0,2.3,0,5.1v58.5c0,2.8,2.3,5.1,5.1,5.1h45.8c2.8,0,5.1-2.3,5.1-5.1V33.1V17.8H38.1

		z M30.5,52.5H8.9v-3.8h21.6V52.5z M47.1,43.6H8.9v-3.8h38.2V43.6z M47.1,34.7H8.9v-3.8h38.2V34.7z M47.1,25.8H8.9V22h38.2V25.8z

		 M56,16.6H39.4V0L56,16.6z" />
</symbol>
<symbol viewBox="0 0 79 68.7" id="logo-g-drive">
<title>g-drive</title>
<g>
<polygon id="g-blue" points="29.3,44.6 15.4,68.7 65.1,68.7 79,44.6 		" />
<polygon id="g-green" points="24.8,1.4 0,44.6 13.9,68.7 38.7,25.4 		" />
<polygon id="g-yellow" points="78.2,43.2 53.3,0 25.6,0 50.5,43.2 		" />
</g>
</symbol>
<symbol viewBox="0 0 56 68.7" id="logo-g-sheets">
<title>g-sheets</title>
<path d="M11.4,42.7h8.9v6.4h-8.9V42.7z M11.4,40.2h8.9v-6.4h-8.9V40.2z M22.9,31.3h21.6v-6.4H22.9V31.3z M22.9,40.2

		h21.6v-6.4H22.9V40.2z M0,63.6V5.1C0,2.3,2.3,0,5.1,0h33v17.8H56v15.3v30.4c0,2.8-2.3,5.1-5.1,5.1H5.1C2.3,68.7,0,66.4,0,63.6z

		 M8.9,51.6h38.2V22.3H8.9V51.6z M11.4,31.3h8.9v-6.4h-8.9V31.3z M22.9,49.1h21.6v-6.4H22.9V49.1z M39.4,0v16.6H56L39.4,0z" />
</symbol>
<symbol viewBox="0 0 56 68.7" id="logo-g-slides">
<title>g-slides</title>
<path d="M5.1,68.7h45.8c2.8,0,5.1-2.3,5.1-5.1V33.1V17.8H38.1V0h-33C2.3,0,0,2.3,0,5.1v58.5

		C0,66.4,2.3,68.7,5.1,68.7z M8.9,19.4c0-1.4,1.1-2.5,2.5-2.5h22.3c1.4,0,2.5,1.1,2.5,2.5V27h8.3c1.4,0,2.5,1.1,2.5,2.5v21

		c0,1.4-1.1,2.5-2.5,2.5H22.3c-1.4,0-2.5-1.1-2.5-2.5v-7.6h-8.3c-1.4,0-2.5-1.1-2.5-2.5V19.4z M33.7,37.9H11.4V22h22.3V37.9z

		 M33.7,42.9c1.4,0,2.5-1.1,2.5-2.5v-8.3h8.3V48H22.3v-5.1H33.7z M56,16.6H39.4V0L56,16.6z" />
</symbol>
<symbol viewBox="0 0 65.2 88.3" id="logo-grunt">
<title>grunt</title>
<path d="M65.2,38.9c0.3-7-5.5-1.3-4.1-12.1c3.6-3.6,3.4-10-3.3-10.8c-3-7.1,6.9-7.8,6.9-7.8s-9.1-12.5-22,2.6

				c0,0-0.6-0.2-1.6-0.4c-0.6-3.4,1.5-6.6,1.5-6.6s-2.4-0.4-5.8,2.6C35,3.2,36.4,0,36.4,0s-6,1.6-6.8,7c-1.5-1.4-1.2-4.7-1.2-4.7

				s-4.8,1.9-4.7,8.2c-0.7,0.2-1.1,0.3-1.1,0.3C9.6-4.3,0.5,8.2,0.5,8.2s9.9,0.7,6.9,7.8c-6.7,0.8-6.9,7.2-3.3,10.8

				C5.5,37.6-0.3,31.8,0,38.9c0.6,12.5,12.3,1.2,10.1,18.8C10,59,9.8,60.5,9.5,62.2c-1.9-1.7-3.4-4.1-4.1-7.5

				c-7.6,7.4-3.6,18.8,5,21.8c1.6,3.9,4.9,7.2,11.2,8.4c0,0,3.5,3.4,11,3.4c7.5,0,11-3.4,11-3.4c6.3-1.2,9.6-4.4,11.2-8.4

				c8.6-3,12.6-14.3,5-21.8c-0.8,3.4-2.3,5.8-4.1,7.5c-0.2-1.7-0.5-3.3-0.6-4.5C52.9,40.1,64.6,51.4,65.2,38.9z M14.9,32.3

				c1.9,1,7,4.7,7.7,6.4C20.5,40.5,12.9,40.3,14.9,32.3z M4.7,59.6c2.6,7.2,9.7,7.5,12.8,7.8c-0.7,2-3.6,2.7-2.2,7.5

				C7.2,75.6,0.9,65.8,4.7,59.6z M50.3,32.3c2,8-5.6,8.2-7.7,6.4C43.3,37,48.4,33.3,50.3,32.3z M60.5,59.6c3.8,6.3-2.5,16-10.7,15.3

				c1.5-4.7-1.5-5.5-2.2-7.5C50.8,67.1,58,66.8,60.5,59.6z" />
</symbol>
<symbol viewBox="0 0 64.1 72.6" id="logo-html5">
<title>html5</title>
<path d="M0,0l5.8,65.4L32,72.6l26.2-7.3L64.1,0H0z M51.4,21.4L51.4,21.4H20.7l0.7,8.2h29.2l-2.2,24.6L32,58.8v0l0,0

		l-16.4-4.6l-1.1-12.6h8l0.6,6.4l8.9,2.4l0,0l0,0l8.9-2.4l0.9-10.4H14.1l-2.2-24.2h40.2L51.4,21.4z" />
</symbol>
<symbol viewBox="0 0 65.3 65.3" id="logo-iconography">
<title>iconography</title>
<path d="M50.3,0c-8.3,0-15,6.7-15,15c0,8.3,6.7,15,15,15c8.3,0,15-6.7,15-15C65.3,6.7,58.6,0,50.3,0z M48.4,23l-1.9-1.9l6.1-6.1

		l-6.1-6.1L48.4,7l8,8L48.4,23z M15,35.3c-8.3,0-15,6.7-15,15c0,8.3,6.7,15,15,15c8.3,0,15-6.7,15-15C30,42,23.3,35.3,15,35.3z

		 M21.1,54.6l-1.9,1.9L15,52.3l-4.2,4.2l-1.9-1.9l4.2-4.2l-4.2-4.2l1.9-1.9l4.2,4.2l4.2-4.2l1.9,1.9l-4.2,4.2L21.1,54.6z M50.3,35.3

		c-8.3,0-15,6.7-15,15c0,8.3,6.7,15,15,15c8.3,0,15-6.7,15-15C65.3,42,58.6,35.3,50.3,35.3z M51.7,58.4H49v-8.9h-1.6v-2.7h4.3V58.4z

		 M51.7,44.7H49v-3h2.7V44.7z M15,0C6.7,0,0,6.7,0,15c0,8.3,6.7,15,15,15c8.3,0,15-6.7,15-15C30,6.7,23.3,0,15,0z M22.3,21.6H7.7

		v-2.7h14.6V21.6z M22.3,16.4H7.7v-2.7h14.6V16.4z M22.3,11.2H7.7V8.5h14.6V11.2z" />
</symbol>
<symbol viewBox="0 0 65.8 65.8" id="logo-illustration">
<title>illustration</title>
<path d="M5.5,45.7L0,65.8l20.2-5.5l45.7-45.7L51.2,0L5.5,45.7z M9.7,50.6l5.5,5.5l-7.5,2L9.7,50.6z M19.8,53.1l-7-7L43,15.9l7,7

		L19.8,53.1z M46.8,12l4.3-4.3l7,7L53.8,19L46.8,12z" />
</symbol>
<symbol viewBox="0 0 62.2 51.4" id="logo-info-62">
<title>info-62</title>
<path d="M0,0h62.2v10.8H0V0z M16.1,23.4h43.6V18H16.1V23.4z M16.1,36.8h43.6v-5.4H16.1V36.8z M16.1,50.2h43.6v-5.4H16.1V50.2z

		 M6.2,16.8c-2.1,0-3.9,1.7-3.9,3.9c0,2.1,1.7,3.9,3.9,3.9c2.1,0,3.9-1.7,3.9-3.9C10.1,18.6,8.3,16.8,6.2,16.8z M6.2,30.2

		c-2.1,0-3.9,1.7-3.9,3.9C2.3,36.2,4,38,6.2,38c2.1,0,3.9-1.7,3.9-3.9C10.1,32,8.3,30.2,6.2,30.2z M6.2,43.6c-2.1,0-3.9,1.7-3.9,3.9

		c0,2.1,1.7,3.9,3.9,3.9c2.1,0,3.9-1.7,3.9-3.9C10.1,45.4,8.3,43.6,6.2,43.6z" />
</symbol>
<symbol viewBox="0 0 72.4 72.4" id="logo-javascript">
<title>javascript</title>
<path d="M0,0v72.4h72.4V0H0z M39.5,54.7c0,1.9-0.2,3.6-0.7,5c-0.5,1.4-1.1,2.6-2,3.6c-0.9,1-2,1.7-3.2,2.2

		c-1.3,0.5-2.7,0.8-4.3,0.8c-2.3,0-4.1-0.5-5.7-1.4c-1.5-1-2.8-2.1-3.8-3.4l4-5c0.8,1,1.7,1.8,2.5,2.4c0.8,0.6,1.8,0.9,2.8,0.9

		c1.2,0,2.2-0.4,2.8-1.3c0.7-0.8,1-2.2,1-4.1V33.5h6.5V54.7z M66.8,56.3c0,1.6-0.3,3-0.8,4.3c-0.5,1.2-1.2,2.3-2.2,3.1

		c-0.9,0.8-2,1.5-3.3,1.9c-1.3,0.4-2.7,0.7-4.3,0.7c-2.2,0-4.3-0.4-6.5-1.3c-2.1-0.8-4-2.1-5.8-3.9l3.7-5c1.3,1.2,2.7,2.2,4.1,2.9

		c1.4,0.7,2.9,1.1,4.6,1.1c1.3,0,2.3-0.3,3.1-0.8c0.7-0.5,1.1-1.3,1.1-2.2v-0.1c0-0.5-0.1-0.9-0.2-1.2c-0.2-0.4-0.4-0.7-0.9-1

		c-0.4-0.3-1-0.6-1.8-0.9c-0.8-0.3-1.7-0.6-3-1c-1.5-0.4-2.8-0.8-4-1.3c-1.2-0.5-2.2-1.1-3-1.8c-0.8-0.7-1.5-1.6-1.9-2.7

		c-0.5-1.1-0.7-2.4-0.7-4v-0.1c0-1.5,0.2-2.8,0.7-4c0.5-1.2,1.2-2.2,2.1-3.1c0.9-0.9,1.9-1.5,3.2-2c1.2-0.5,2.6-0.7,4.1-0.7

		c2.1,0,4.1,0.4,5.8,1.1c1.8,0.7,3.4,1.7,4.9,3.1l-3.3,5.4c-1.3-1-2.6-1.8-3.8-2.3c-1.2-0.6-2.5-0.9-3.7-0.9c-1.2,0-2.2,0.3-2.8,0.8

		c-0.6,0.5-0.9,1.2-0.9,2v0.1c0,0.5,0.1,1,0.3,1.4c0.2,0.4,0.5,0.7,1,1c0.5,0.3,1.1,0.6,1.9,0.9c0.8,0.3,1.8,0.6,3.1,1

		c1.5,0.4,2.8,0.9,3.9,1.5c1.1,0.5,2.1,1.2,2.9,1.9c0.8,0.8,1.4,1.6,1.8,2.7C66.6,53.5,66.8,54.8,66.8,56.3L66.8,56.3z" />
</symbol>
<symbol viewBox="0 0 85.3 70.6" id="logo-jquery">
<title>jquery</title>
<path d="M85.1,15.9c1.2,8.9-3.5,18.6-6.7,27.2c3.3,0.3,6.2,0,6.4,0.2c0.2,0.3-2.2,10.2-3,10.2

		c-2.6,0.1-11.2,0.1-14.8,0.1c-11.8,0-22.8,0.8-28.4-5.1c-2.3-2.4-3.9-6.4-4.2-9.3c-0.6-4.8,0.2-10,1.3-14.4c1-3.9,2.3-7.6,4.2-11

		c4.9-8.6,13.5-15,27.9-13.5c2.8,0.3,6.8,1.5,9.3,3c0.2,0.1,0.8,0.6,0.9,0.7C81.3,6,84.4,11.1,85.1,15.9z M70.2,31.5

		c1.1-4,2.7-8.3,2.5-11.9c-0.2-3.8-3.4-7.3-5.5-8C61,9.4,55.2,12.5,52.9,15c-3,3.2-4,7-5.1,12.3c-0.8,3.9-1.4,8,0,11

		c2.5,5.4,10.5,4.2,19,4.2C68.1,39.1,69.2,35.3,70.2,31.5z M21.6,11.2c-0.9,3.1-1.6,6.6-2.5,10.2c3.9,0,7.9,0,11.9,0

		c0.7-3.2,1.5-6.9,2.2-10.1C28.9,11.3,25.3,11.2,21.6,11.2z M13.9,43.8c-1.8,8.2-2,16.8-11,15.7c-0.9,3.2-2,7.4-2.9,11

		c3.7,0.1,7.1,0.4,10.1,0c1.9-0.2,5.2-1,5.9-1.7c0.3-0.3,0.5-0.1,0.8-0.4c3.9-3.1,4.9-7.3,6.4-13.1c2.3-9.3,5.3-22.6,6.8-30.9

		c-3.8,0-7.6,0-11.4,0C18,26.2,14.9,39.1,13.9,43.8z M70.9,53.7" />
</symbol>
<symbol viewBox="0 0 88.8 48.9" id="logo-layout">
<title>layout</title>
<path d="M48.9,0H0v48.9h48.9V0z M20.9,24.7L5.4,40.1V9.2L20.9,24.7z M9.2,5.4h30.9L24.7,20.9L9.2,5.4z M24.7,28.5l15,15H9.7

		L24.7,28.5z M28.5,24.7l15-15v29.9L28.5,24.7z M57.5,0h31.2v5.4H57.5V0z M57.5,14.5h31.2v5.4H57.5V14.5z M57.5,29h31.2v5.4H57.5V29

		z M57.5,43.5h31.2v5.4H57.5V43.5z" />
</symbol>
<symbol viewBox="0 0 90.1 77.6" id="logo-mamp">
<title>mamp</title>
<path d="M57.2,75.8c7.2-51.9,28.2-39.3,11.7-5.3c-0.5,1,3.2,3.5,4.4,2.6c24-18.1,19.5-52.7,3.2-62.8

		C74,8.8,56,23.2,56.3,25c0.7,4.7,7.9,9.8,7.9,9.8s-9.1-3.1-10.4-10.5c-0.2-1,7.2-8.1,10.9-10.1c-36.5-35-77.4,0.9-61,38.5

		C3.2,45,5.2,38.3,5.2,38.3s8.7,29.5,9,37.1c0.1,2.8,16.2,2.7,15.9-0.2C26,43,45.9,38.8,42.6,75.9C42.4,78.1,56.9,78.3,57.2,75.8z" />
</symbol>
<symbol viewBox="0 0 84.8 82.8" id="logo-mysql">
<title>mysql</title>
<path d="M84.1,81.4c-3.5-6-10.7-7.8-14.6-13.3c4-1.5,9.7-1.8,12.4-1.5c1.2,0.1,1.2-1.7,0.1-2.9

		c-1.9-2-3.9-3.9-6.1-5.7c-3.8-3-8-5.1-12.5-7c-3.6-1.6-4.1-4.2-5.7-7.8c-3.9-9.3-7.9-18-15-25.3C36.6,11.7,28.2,5.3,19,5.1

		c-1.4,0-2.5,0.1-2.5,0.1c-3-2.1-6.6-4.4-9.2-5C4.6-0.4,1.1,0,0.2,3.2c-1.2,4,3.4,8.1,5.4,11c2.3,3.4,2.8,7.6,4.5,11.3

		c1,2.1,2.1,4,3.7,5.7c1.3,1.5-0.2,3.5-0.6,5.3c-1.1,4.9-1.2,10.2,0,15.1c0.7,3,4.9,12.1,8.9,7.2c1.5-2,1.3-5.7,1.9-8.1

		c3.3,5.4,8.2,13.4,14.2,16.1c-2.8-1.6-4.8-4.7-6.6-7.3c-2.3-3.4-4.4-7-6.1-10.8c-0.4-0.9-0.7-2.9-1.9-2.9c-1-0.1-2.1,1.7-2.5,2.4

		c-1.4,2.8-0.8,5.8-1.6,8.6c-2.5,0-3.7-7.5-4-9.1c-0.6-4.2-0.3-8.6,0.9-12.6c0.6-1.9,1.5-3.2,0-5c-2.6-2.8-4.2-6.2-5.4-9.8

		c-0.9-2.8-1.5-5.2-3.2-7.7C6.8,11,1.7,5.9,3.1,3.7c2.7-3.6,11.7,4.5,13.1,4.8c7.5-1,15.3,4.1,20.7,8.9c6.3,5.6,10.9,12.2,14.4,19.9

		c1.6,3.5,3,7.1,4.6,10.6c1,2.3,1.8,4.5,4.2,5.6c6.7,3,12.7,5.6,18.4,10.5c-4-0.3-8.1-0.1-11.8,1.4c-2.7,1-1.7,3.2-0.3,5.1

		c2.3,3.2,5.9,4.8,9.4,6.6c3.3,1.7,6.2,3.6,9.1,5.8C84.6,82.3,84.3,81.8,84.1,81.4C83.8,80.9,84.3,81.8,84.1,81.4z M19.6,56.7

		C19.5,56.7,19.4,56.8,19.6,56.7C19.6,56.7,19.6,56.7,19.6,56.7z M14.7,31.6C14.7,31.6,14.7,31.6,14.7,31.6

		C14.7,31.6,14.7,31.6,14.7,31.6z M20.4,19.1c-1-2.3-1.4-3-3.2-4.8c1.7-1.1,3.9-0.3,4.4,1.7C21.9,17.2,21.4,18.4,20.4,19.1z" />
</symbol>
<symbol viewBox="0 0 107.9 68.2" id="logo-node">
<title>node</title>
<g>
<path id="node-white" fill-rule="evenodd" clip-rule="evenodd" d="M24.5,40.3c0,0.2-0.1,0.5-0.3,0.6c-0.2,0.1-0.5,0.1-0.7,0

			L17,37.1c-0.4-0.2-0.7-0.7-0.7-1.1v-7.9c0-0.5-0.3-0.9-0.7-1.1l-2.8-1.6c-0.2-0.1-0.4-0.2-0.7-0.2c-0.2,0-0.5,0.1-0.7,0.2

			l-2.8,1.6c-0.4,0.2-0.7,0.7-0.7,1.1V36c0,0.5-0.3,0.9-0.7,1.1L1,40.9c-0.2,0.1-0.5,0.1-0.7,0C0.1,40.7,0,40.5,0,40.3l0-16.9

			c0-0.5,0.3-0.9,0.7-1.1l10.9-6.3c0.2-0.1,0.4-0.2,0.6-0.2c0,0,0.1,0,0.1,0c0.2,0,0.4,0.1,0.6,0.2l10.9,6.3

			c0.4,0.2,0.7,0.7,0.7,1.1L24.5,40.3z M79.4,3.7c0.4,0.2,0.7,0.7,0.7,1.2v31.5c0,0.5-0.2,0.9-0.7,1.1l-10.9,6.3

			c-0.4,0.2-0.9,0.2-1.3,0l-10.9-6.3c-0.4-0.2-0.7-0.7-0.7-1.1V23.7c0-0.5,0.3-0.9,0.7-1.1l10.9-6.3c0.4-0.2,0.9-0.2,1.3,0l2.7,1.6

			c0.1,0.1,0.3,0.1,0.5,0c0.1-0.1,0.2-0.2,0.2-0.4V0.7c0-0.2,0.1-0.4,0.3-0.6s0.5-0.1,0.7,0L79.4,3.7z M71.9,27.8

			c0-0.1-0.1-0.2-0.2-0.3L68,25.4c-0.1-0.1-0.2-0.1-0.3,0l-3.8,2.2c-0.1,0.1-0.2,0.2-0.2,0.3v4.3c0,0.1,0.1,0.2,0.2,0.3l3.8,2.2

			c0.1,0.1,0.2,0.1,0.3,0l3.8-2.2c0.1-0.1,0.2-0.2,0.2-0.3V27.8z M107.2,27.7c0.4-0.2,0.7-0.7,0.7-1.1v-3.1c0-0.5-0.2-0.9-0.7-1.1

			l-10.9-6.3c-0.4-0.2-0.9-0.2-1.3,0l-10.9,6.3c-0.4,0.2-0.7,0.7-0.7,1.1v12.6c0,0.5,0.3,0.9,0.7,1.1L95,43.5c0.4,0.2,0.9,0.2,1.3,0

			l6.6-3.7c0.2-0.1,0.3-0.3,0.3-0.6c0-0.2-0.1-0.5-0.3-0.6l-11-6.3c-0.2-0.1-0.3-0.3-0.3-0.6v-4c0-0.2,0.1-0.5,0.3-0.6l3.4-2

			c0.2-0.1,0.5-0.1,0.7,0l3.4,2c0.2,0.1,0.3,0.3,0.3,0.6V31c0,0.2,0.1,0.5,0.3,0.6c0.2,0.1,0.5,0.1,0.7,0L107.2,27.7z" />
<path id="node-green" d="M53.9,68.2c-0.4,0-0.8-0.1-1.1-0.3l-3.4-2c-0.5-0.3-0.3-0.4-0.1-0.4c0.7-0.2,0.8-0.3,1.6-0.7

			c0.1,0,0.2,0,0.3,0l2.6,1.6c0.1,0.1,0.2,0.1,0.3,0l10.3-5.9c0.1-0.1,0.2-0.2,0.2-0.3V48.2c0-0.1-0.1-0.2-0.2-0.3l-10.3-5.9

			c-0.1-0.1-0.2-0.1-0.3,0l-10.3,5.9c-0.1,0.1-0.2,0.2-0.2,0.3v11.9c0,0.1,0.1,0.2,0.2,0.3l2.8,1.6c1.5,0.8,2.5-0.1,2.5-1V49.2

			c0-0.2,0.1-0.3,0.3-0.3h1.3c0.2,0,0.3,0.1,0.3,0.3v11.7c0,2-1.1,3.2-3,3.2c-0.6,0-1.1,0-2.4-0.6l-2.7-1.6

			c-0.7-0.4-1.1-1.1-1.1-1.9V48.2c0-0.8,0.4-1.5,1.1-1.9l10.3-6c0.7-0.4,1.5-0.4,2.2,0l10.3,6c0.7,0.4,1.1,1.1,1.1,1.9v11.9

			c0,0.8-0.4,1.5-1.1,1.9l-10.3,6C54.7,68.1,54.3,68.2,53.9,68.2z M62.3,56.5c0-2.2-1.5-2.8-4.7-3.2c-3.2-0.4-3.5-0.6-3.5-1.4

			c0-0.6,0.3-1.4,2.6-1.4c2.1,0,2.9,0.5,3.2,1.9c0,0.1,0.2,0.2,0.3,0.2h1.3c0.1,0,0.2,0,0.2-0.1c0.1-0.1,0.1-0.1,0.1-0.2

			c-0.2-2.5-1.8-3.6-5.1-3.6c-2.9,0-4.7,1.2-4.7,3.3c0,2.3,1.7,2.9,4.6,3.2c3.4,0.3,3.6,0.8,3.6,1.5c0,1.2-0.9,1.6-3.1,1.6

			c-2.7,0-3.3-0.7-3.5-2c0-0.1-0.1-0.3-0.3-0.3H52c-0.2,0-0.3,0.1-0.3,0.3c0,1.7,0.9,3.8,5.5,3.8C60.4,60,62.3,58.7,62.3,56.5z

			 M28.5,22.3c-0.4,0.2-0.7,0.7-0.7,1.1v12.6c0,0.5,0.3,0.9,0.7,1.1l10.9,6.3c0.4,0.2,0.9,0.2,1.3,0l10.9-6.3

			c0.4-0.2,0.7-0.7,0.7-1.1V23.5c0-0.5-0.2-0.9-0.7-1.1L40.7,16c-0.4-0.2-0.9-0.2-1.3,0L28.5,22.3z M93.4,28.3

			c-0.1,0-0.1,0.1-0.1,0.2V31c0,0.1,0,0.2,0.1,0.2l2.1,1.2c0.1,0,0.2,0,0.3,0l2.1-1.2c0.1,0,0.1-0.1,0.1-0.2v-2.4

			c0-0.1,0-0.2-0.1-0.2l-2.1-1.2c-0.1,0-0.2,0-0.3,0L93.4,28.3z" />
</g>
</symbol>
<symbol viewBox="0 0 100.3 39.1" id="logo-npm">
<title>npm</title>
<path d="M0,0v33.5h27.9v5.6h22.3v-5.6h50.1V0H0z M27.9,27.9h-5.6V11.2h-5.6v16.7h-11V5.6h22.2V27.9z M55.8,27.9h-11

		v5.6H33.5V5.6h22.2V27.9z M94.9,27.9h-5.6V11.2h-5.6v16.7H78V11.2h-5.6v16.7h-11V5.6h33.5V27.9z M50.1,22.3h-5.4v-11h5.4V22.3z" />
</symbol>
<symbol viewBox="0 0 59 68.2" id="logo-packaging">
<title>packaging</title>
<path d="M0,17v34.1l29.5,17l29.5-17V17L29.5,0L0,17z M50.9,18.6L29.5,31L8.1,18.6L29.5,6.3L50.9,18.6z M5.4,23.3l21.4,12.4v24.7

		L5.4,48V23.3z M32.2,60.4V35.7l21.4-12.4V48L32.2,60.4z" />
</symbol>
<symbol viewBox="0 0 73.2 54.8" id="logo-photography">
<title>photography</title>
<path d="M20.3,0H9.9v5.5H0v49.3h73.2V5.5H20.3V0z M67.8,49.4H5.4V10.9h62.4V49.4z M24.1,30.1c0-6.9,5.6-12.5,12.5-12.5

		c6.9,0,12.5,5.6,12.5,12.5c0,6.9-5.6,12.5-12.5,12.5C29.7,42.7,24.1,37.1,24.1,30.1z" />
</symbol>
<symbol viewBox="0 0 97.9 45.9" id="logo-php">
<title>php</title>
<path d="M19.2,15.4c3,0,5,0.6,6,1.7c1,1.1,1.2,3,0.7,5.7c-0.5,2.8-1.6,4.8-3.2,6c-1.6,1.2-3.9,1.8-7.1,1.8h-4.8

		l3-15.2H19.2z M0,45.9h7.9l1.9-9.6h6.8c3,0,5.4-0.3,7.4-0.9c1.9-0.6,3.7-1.7,5.3-3.2c1.3-1.2,2.4-2.6,3.2-4

		c0.8-1.5,1.4-3.1,1.7-4.9c0.8-4.3,0.2-7.6-1.9-10c-2.1-2.4-5.4-3.6-10-3.6H7L0,45.9z M41.7,0h7.8l-1.9,9.6h7c4.4,0,7.4,0.8,9.1,2.3

		c1.7,1.5,2.2,4,1.5,7.4l-3.3,16.9h-8l3.1-16c0.4-1.8,0.2-3.1-0.4-3.7c-0.6-0.7-1.9-1-3.9-1h-6.3l-4,20.8h-7.8L41.7,0z M82.7,15.4

		c3,0,5,0.6,6,1.7c1,1.1,1.2,3,0.7,5.7c-0.5,2.8-1.6,4.8-3.2,6c-1.6,1.2-3.9,1.8-7.1,1.8h-4.8l3-15.2H82.7z M63.4,45.9h7.9l1.9-9.6

		h6.8c3,0,5.4-0.3,7.4-0.9c1.9-0.6,3.7-1.7,5.3-3.2c1.3-1.2,2.4-2.6,3.2-4c0.8-1.5,1.4-3.1,1.7-4.9c0.8-4.3,0.2-7.6-1.9-10

		c-2.1-2.4-5.4-3.6-10-3.6H70.5L63.4,45.9z" />
</symbol>
<symbol viewBox="0 0 103.8 77.8" id="logo-sass">
<title>sass</title>
<path d="M89.3,44.7c-3.6,0-6.8,0.9-9.4,2.2c-1-1.9-1.9-3.6-2.1-4.9c-0.2-1.5-0.4-2.3-0.2-4.1

		c0.2-1.7,1.2-4.2,1.2-4.4c0-0.2-0.2-1.1-2.3-1.1c-2.1,0-3.9,0.4-4.1,1c-0.2,0.6-0.6,1.8-0.9,3.1c-0.4,1.9-4.2,8.7-6.3,12.2

		c-0.7-1.4-1.3-2.6-1.4-3.6c-0.2-1.5-0.4-2.3-0.2-4.1c0.2-1.7,1.2-4.2,1.2-4.4c0-0.2-0.2-1.1-2.3-1.1c-2.1,0-3.9,0.4-4.1,1

		c-0.2,0.6-0.4,1.8-0.9,3.1c-0.4,1.2-5.5,12.5-6.8,15.5c-0.7,1.5-1.3,2.7-1.7,3.5c0,0,0,0,0,0s0,0.1-0.1,0.1

		c-0.4,0.7-0.6,1.1-0.6,1.1s0,0,0,0c-0.3,0.5-0.6,1-0.7,1c-0.1,0-0.3-1.4,0-3.2c0.8-3.9,2.6-10,2.5-10.2c0-0.1,0.3-1.2-1.2-1.7

		c-1.5-0.5-2,0.4-2.1,0.4c-0.1,0-0.2,0.3-0.2,0.3s1.6-6.9-3.1-6.9c-3,0-7.1,3.3-9.2,6.2c-1.3,0.7-4,2.2-7,3.8

		c-1.1,0.6-2.3,1.2-3.4,1.8C24,51.2,24,51.1,23.9,51C18.1,44.8,7.4,40.5,7.8,32.2c0.2-3,1.2-11,20.6-20.6C44.3,3.6,57,5.8,59.2,10.6

		c3.1,6.9-6.8,19.7-23.3,21.5c-6.3,0.7-9.6-1.7-10.4-2.6c-0.9-1-1-1-1.3-0.8c-0.5,0.3-0.2,1.1,0,1.6c0.5,1.3,2.5,3.6,6,4.7

		c3,1,10.4,1.5,19.3-1.9c10-3.9,17.8-14.6,15.5-23.6c-2.3-9.1-17.5-12.1-31.8-7c-8.5,3-17.8,7.8-24.4,14C0.8,23.9-0.4,30.3,0.1,33

		c1.8,9.5,15,15.8,20.3,20.4c-0.3,0.1-0.5,0.3-0.7,0.4C17,55,7,60.3,4.5,65.8c-2.8,6.3,0.5,10.8,2.6,11.4c6.8,1.9,13.7-1.5,17.4-7.1

		c3.7-5.6,3.3-12.8,1.6-16.1c0,0,0-0.1-0.1-0.1c0.7-0.4,1.4-0.8,2.1-1.2c1.3-0.8,2.7-1.5,3.8-2.1c-0.6,1.8-1.1,3.9-1.4,6.9

		c-0.3,3.6,1.2,8.2,3.1,10c0.8,0.8,1.9,0.8,2.5,0.8c2.2,0,3.2-1.9,4.4-4c1.4-2.7,2.6-5.8,2.6-5.8s-1.5,8.5,2.6,8.5c1.5,0,3-2,3.7-3

		c0,0,0,0,0,0s0-0.1,0.1-0.2c0.2-0.2,0.2-0.4,0.2-0.4s0,0,0,0c0.6-1.1,2-3.5,4-7.5c2.6-5.1,5.1-11.6,5.1-11.6s0.2,1.6,1,4.2

		c0.5,1.5,1.4,3.2,2.2,4.9c-0.6,0.8-1,1.3-1,1.3s0,0,0,0c-0.5,0.6-1,1.3-1.6,2c-2.1,2.5-4.5,5.3-4.9,6.1c-0.4,1-0.3,1.7,0.5,2.2

		c0.5,0.4,1.5,0.5,2.5,0.4c1.9-0.1,3.2-0.6,3.8-0.9c1-0.4,2.2-0.9,3.3-1.7c2-1.5,3.3-3.6,3.1-6.5c-0.1-1.6-0.6-3.1-1.2-4.6

		c0.2-0.3,0.4-0.5,0.6-0.8c3.2-4.7,5.7-9.8,5.7-9.8s0.2,1.6,1,4.2c0.4,1.3,1.2,2.8,1.8,4.2c-3,2.4-4.9,5.3-5.5,7.2

		c-1.2,3.4-0.3,5,1.5,5.4c0.8,0.2,1.9-0.2,2.8-0.6c1.1-0.3,2.3-0.9,3.5-1.8c2-1.5,4-3.6,3.9-6.4c-0.1-1.3-0.4-2.6-0.9-3.8

		c2.6-1.1,5.9-1.7,10.1-1.2c9,1.1,10.8,6.7,10.5,9c-0.3,2.4-2.2,3.7-2.9,4c-0.6,0.4-0.8,0.5-0.8,0.8c0.1,0.4,0.4,0.4,0.9,0.3

		c0.7-0.1,4.7-1.9,4.9-6.3C104,50.7,98.7,44.7,89.3,44.7 M19.7,68.2c-3,3.3-7.2,4.5-9,3.5c-1.9-1.1-1.2-5.9,2.5-9.4

		c2.2-2.1,5.1-4.1,7-5.2c0.4-0.3,1.1-0.6,1.9-1.1c0.1-0.1,0.2-0.1,0.2-0.1l0,0c0.2-0.1,0.3-0.2,0.5-0.3

		C24.2,60.4,22.9,64.7,19.7,68.2z M41.5,53.3c-1,2.5-3.2,9-4.5,8.7c-1.1-0.3-1.8-5.2-0.2-10.1c0.8-2.4,2.5-5.4,3.5-6.5

		c1.6-1.8,3.4-2.4,3.9-1.7C44.7,44.7,42.2,51.8,41.5,53.3z M59.5,61.9c-0.4,0.2-0.8,0.4-1,0.3c-0.1-0.1,0.2-0.4,0.2-0.4

		s2.3-2.4,3.1-3.5c0.5-0.6,1.1-1.4,1.8-2.3c0,0.1,0,0.2,0,0.3C63.6,59.2,60.8,61.1,59.5,61.9z M73.4,58.8c-0.3-0.2-0.3-1,0.8-3.3

		c0.4-0.9,1.4-2.5,3.1-4c0.2,0.6,0.3,1.2,0.3,1.7C77.5,56.8,74.9,58.2,73.4,58.8z" />
</symbol>
<symbol viewBox="0 0 83.1 70.1" id="logo-sublime-text">
<title>sublime-text</title>
<g>
<path id="sublime-white" d="M83.1,63.6L76.9,8.5c-0.3-2.4-2.3-4.4-4.7-4.7l0,0C72,1.7,70.2,0,68.1,0H15c-2.1,0-3.9,1.7-4.1,3.8l0,0.2

			C8.5,4.3,6.5,6.3,6.3,8.7L0,63.5c-0.1,1.3,0.2,4.1,1.1,5.1c0.9,1,2.1,1.6,3.4,1.6h74c1.3,0,2.6-0.5,3.4-1.5

			C82.8,67.7,83.2,64.9,83.1,63.6z M72.9,51.2H10.2c-0.5,0-1-0.2-1.4-0.6c-0.3-0.4-0.5-0.9-0.4-1.4l4.1-45.3

			c0.1-1.2,1.3-2.3,2.5-2.3h53c1.2,0,2.4,1,2.5,2.3l4.1,45.3 M78.6,67.4h-74c-2.1,0-3.6-1.7-3.4-3.8L7.4,8.8C7.6,7,9,5.5,10.8,5.1

			l-4,44v7.6c-0.2,2.1,1.4,3.8,3.4,3.8h62.7c2.1,0,3.6-1.7,3.4-3.8v-7.6L72.3,5c1.7,0.4,3.2,1.9,3.4,3.7l6.2,55

			C82.1,65.7,80.6,67.4,78.6,67.4z" />
<path id="sublime-orange" d="M37.9,19.9c2.3,1.8,10.8,2.3,14.1,5.7c3.4,3.4,3.8,8.4,0.1,12.1c-7.7,7.7-30.2,2.4-23.9-3.8

			c3.6-3.6,12.1,4.4,17.1-0.6c0.7-0.8,0.9-2.5,0-3.5c-2.6-2.6-10.9-2.4-14.4-6c-2.9-2.9-2.1-6.9,0.2-9.2c7.2-7.2,24.6-2.4,20,2.1

			c-3.1,3.1-9.4-3-13.3,0.9C37.1,18.3,37.1,19.3,37.9,19.9z" />
</g>
</symbol>
<symbol viewBox="0 0 47.8 49.4" id="logo-typography">
<title>typography</title>
<polygon points="0,9.7 5.4,9.7 5.4,5.4 21.2,5.4 21.2,44 17.5,44 17.5,49.4 30.3,49.4 30.3,44 26.6,44 26.6,5.4 42.4,5.4 42.4,9.7 

		47.8,9.7 47.8,0 0,0 	" />
</symbol>
<symbol viewBox="0 0 68.3 49" id="logo-ui">
<title>ui</title>
<path d="M3.7,28.4v-23H0V0h12.8v5.4H9.1v23c0,8.4,6.8,15.2,15.2,15.2c8.4,0,15.2-6.8,15.2-15.2v-23h-3.7V0h12.8v5.4h-3.7v23

		c0,11.4-9.2,20.6-20.6,20.6S3.7,39.8,3.7,28.4z M55.5,5.4h3.7v38.2h-3.7V49h12.8v-5.4h-3.7V5.4h3.7V0H55.5V5.4z" />
</symbol>
<symbol viewBox="0 0 90.4 49.3" id="logo-ux">
<title>ux</title>
<path d="M35.8,0h12.8v5.4h-3.7v23c0,11.4-9.2,20.6-20.6,20.6C12.9,49,3.7,39.8,3.7,28.4v-23H0V0h12.8v5.4H9.1v23

		c0,8.4,6.8,15.2,15.2,15.2c8.4,0,15.2-6.8,15.2-15.2v-23h-3.7V0z M77.6,5.5h3.1l-7.8,13.7L65.2,5.5h3.1V0.1H55.5v5.4h3.5l10.9,19.2

		L58.9,43.9h-3.5v5.4h12.8v-5.4h-3.1l7.8-13.7l7.8,13.7h-3.1v5.4h12.8v-5.4H87L76.1,24.7L87,5.5h3.5V0.1H77.6V5.5z" />
</symbol>
<symbol viewBox="0 0 76.3 76.4" id="logo-wordpress">
<title>wordpress</title>
<path d="M38.2,0C17.1,0,0,17.1,0,38.2c0,21.1,17.1,38.2,38.2,38.2c21,0,38.2-17.1,38.2-38.2

		C76.3,17.1,59.2,0,38.2,0z M3.9,38.2c0-5,1.1-9.7,3-14l16.4,44.9C11.7,63.5,3.9,51.8,3.9,38.2z M38.2,72.5c-3.4,0-6.6-0.5-9.7-1.4

		l10.3-29.9l10.5,28.9c0.1,0.2,0.2,0.3,0.2,0.5C46,71.8,42.2,72.5,38.2,72.5z M42.9,22.1c2.1-0.1,3.9-0.3,3.9-0.3

		c1.9-0.2,1.6-2.9-0.2-2.8c0,0-5.6,0.4-9.2,0.4c-3.4,0-9-0.4-9-0.4c-1.9-0.1-2.1,2.7-0.2,2.8c0,0,1.8,0.2,3.6,0.3l5.3,14.7

		l-7.5,22.5L17.1,22.1c2.1-0.1,3.9-0.3,3.9-0.3c1.8-0.2,1.6-2.9-0.2-2.8c0,0-5.6,0.4-9.1,0.4c-0.6,0-1.4,0-2.2,0

		C15.6,10,26.2,3.9,38.2,3.9c8.9,0,17.1,3.4,23.2,9c-0.1,0-0.3,0-0.4,0c-3.4,0-5.8,2.9-5.8,6.1c0,2.8,1.6,5.2,3.4,8

		c1.3,2.3,2.8,5.2,2.8,9.5c0,2.9-1.1,6.3-2.6,11.1L55.3,59L42.9,22.1z M68.3,21.7c2.7,4.9,4.2,10.5,4.2,16.5

		c0,12.7-6.9,23.7-17.1,29.7l10.5-30.3c2-4.9,2.6-8.8,2.6-12.3C68.5,24,68.4,22.8,68.3,21.7z" />
</symbol>
</svg>