<svg style="display:none">

	<symbol viewBox="0 0 20 45" id="nav-arrow-tall-right">
		<title>arrow-tall</title>
		<path d="M4.3 3.6l11.4 18.9-11.4 18.9" />
	</symbol>

	<symbol viewBox="0 0 20 45" id="nav-arrow-tall-left">
		<use xlink:href="#nav-arrow-tall-right" transform="rotate(180 10 22.5)"></use>
	</symbol>

	<symbol viewBox="0 0 15 15" id="icon-arrow-double-right">
		<title>arrow-double</title>
		<path d="M1.7 1.4l5.8 6.1-5.8 6.1M7.5 1.4l5.8 6.1-5.8 6.1" />
	</symbol>
	<symbol viewBox="0 0 15 15" id="icon-arrow-double-left">
		<use xlink:href="#icon-arrow-double-right" transform="rotate(180 7.5 7.5)"></use>
	</symbol>
	<symbol viewBox="0 0 15 15" id="icon-arrow-double-top">
		<use xlink:href="#icon-arrow-double-right" transform="rotate(270 7.5 7.5)"></use>
	</symbol>
	<symbol viewBox="0 0 15 15" id="icon-arrow-double-bottom">
		<use xlink:href="#icon-arrow-double-right" transform="rotate(90 7.5 7.5)"></use>
	</symbol>

	<symbol viewBox="0 0 15 15" id="icon-arrow-right">
		<title>arrow</title>
		<path d="M5.3 1.4l6.4 6.1-6.4 6" />
	</symbol>
	<symbol viewBox="0 0 15 15" id="icon-arrow-left">
		<use xlink:href="#icon-arrow-right" transform="rotate(180 7.5 7.5)"></use>
	</symbol>
	<symbol viewBox="0 0 15 15" id="icon-arrow-top">
		<use xlink:href="#icon-arrow-right" transform="rotate(270 7.5 7.5)"></use>
	</symbol>
	<symbol viewBox="0 0 15 15" id="icon-arrow-bottom">
		<use xlink:href="#icon-arrow-right" transform="rotate(90 7.5 7.5)"></use>
	</symbol>

	<symbol viewBox="0 0 15 15" id="icon-close">
		<title>close</title>
			<path d="M2 2l11 11M13 2l-11 11" />
	</symbol>

	<symbol viewBox="0 0 15 15" id="icon-info">
		<title>info</title>
			<path d="M6.6 2h2M5.3 5.9h2.6l-.9 7.1 2.7-.8" />
	</symbol>

	<symbol viewBox="0 0 15 15" id="icon-menu">
		<title>menu</title>
		<path d="M1.5 3.3h12m-12 4.2h12m-12 4.2h12" fill="none" />
	</symbol>

	<symbol viewBox="0 0 15 15" id="icon-query">
		<title>query</title>
			<path d="M6.7 12.4h2M4.7 5.4c0-1.6 1.3-2.9 2.9-2.9s2.9 1.3 2.9 2.9c0 2.8-2.9 1.6-2.9 4.5" />
		</symbol>

	<symbol viewBox="0 0 15 15" id="icon-search">
		<title>search</title>
		<g>
			<circle cx="6.3" cy="6.3" r="3.8" />
			<path d="M9 9l3.5 3.5" />
		</g>
	</symbol>

	<symbol viewBox="0 0 15 15" id="icon-view">
		<title>view</title>
		<g>
			<circle cx="7.5" cy="7.5" r="1" />
			<path d="M13.7 8.5c-1-3-3.4-5.1-6.2-5.1s-5.2 2.1-6.2 5.1c1.6 2 3.8 3.2 6.2 3.2s4.6-1.3 6.2-3.2z" />
		</g>
	</symbol>

	<symbol viewBox="0 0 15 15" id="icon-minus">
		<title>minus</title>
		<line x1="1.6" y1="7.5" x2="13.9" y2="7.5" />
	</symbol>
	<symbol viewBox="0 0 15 15" id="icon-plus">
		<title>plus</title>
		<line  x1="1.6" y1="7.5" x2="13.9" y2="7.5" />
		<line  x1="7.7" y1="1.4" x2="7.7" y2="13.6" />
	</symbol>

	<symbol viewBox="0 0 15 15" id="icon-play">
		<title>play</title>
		<polygon points="4.5,2.3 13.5,7.5 4.5,12.7 "/>
	</symbol>

	<symbol viewBox="0 0 15 15" id="icon-muted">
		<title>muted</title>
		<polygon class="st1" points="14,5.4 11.1,5.4 7.5,2.5 7.5,12.5 11.1,9.6 14,9.6 " />
		<path class="st1" d="M5.3,9.7c-1.2-1.2-1.2-3.2,0-4.5" />
		<path class="st1" d="M3,12.1C0.5,9.6,0.5,5.5,3,3" /> 
	</symbol>
	<symbol viewBox="0 0 15 15" id="icon-unmuted">
		<title>unmuted</title>
		<polygon class="st1" points="14,5.4 11.1,5.4 7.5,2.5 7.5,12.5 11.1,9.6 14,9.6 " />
		<line class="st1" x1="0.8" y1="5.3" x2="5.3" y2="9.7" />
		<line class="st1" x1="5.3" y1="5.3" x2="0.8" y2="9.7" />
	</symbol>
	
</svg>