<svg style="display: none;">
<symbol viewBox="0 0 40 40" id="nav-about">
<title>about</title>
<path d="M25.3,25.6c3-1.8,5-5.1,5-8.8c0-5.7-4.6-10.3-10.3-10.3S9.7,11.1,9.7,16.8c0,3.8,2,7,5,8.8c-4.1,0.6-7.6,2-10.4,3.8
	c3.2,5.3,9,8.8,15.6,8.8c6.6,0,12.4-3.5,15.6-8.8C32.9,27.6,29.4,26.3,25.3,25.6z" /> </symbol>
<symbol viewBox="0 0 40 40" id="nav-contact">
<title>contact</title>
<path id="svgstorec9daf1cdb3109323d1b7221e6c8bd069Layer_7" d="M28.2,12.3l-1.2,10c-0.1,0.4-0.1,0.7-0.1,1.1c0,0.3,0,0.7,0,1c0,1,0.4,1.4,1.2,1.4c1.1,0,2.1-0.8,3-2.4
	c0.9-1.5,1.3-3.3,1.3-5.3c0-3.1-1.1-5.7-3.3-7.7c-2.2-2-5-3-8.4-3c-3.5,0-6.5,1.2-9,3.6c-2.4,2.4-3.6,5.4-3.6,9c0,2,0.4,3.9,1.3,5.8
	c0.9,1.8,2.1,3.2,3.7,4.4c2.1,1.5,4.8,2.3,8,2.3c3,0,6.1-0.8,9.4-2.3l0.3-0.2l1,2.8l-0.2,0.1c-3.3,1.6-6.8,2.4-10.4,2.4
	c-4,0-7.3-1-10-2.9c-2-1.4-3.5-3.2-4.6-5.4c-1.1-2.3-1.7-4.6-1.7-7c0-4.3,1.5-7.9,4.6-10.9c3.1-2.9,6.8-4.4,11.3-4.4
	c4.1,0,7.6,1.3,10.4,3.8s4.2,5.6,4.2,9.4c0,2.9-0.8,5.4-2.3,7.5c-1.5,2.1-3.3,3.2-5.3,3.2c-1.6,0-2.7-0.8-3.3-2.3
	c-1.6,1.6-3.3,2.4-5.3,2.4c-2.1,0-3.9-0.8-5.3-2.3s-2.1-3.4-2.1-5.8c0-2.5,0.8-4.6,2.3-6.2c1.5-1.7,3.5-2.5,5.8-2.5
	c2.1,0,3.9,0.8,5.2,2.5l0.3-2.1H28.2L28.2,12.3z M24.3,19.7c0-1.2-0.4-2.2-1.2-3c-0.8-0.8-1.8-1.2-3-1.2c-1.3,0-2.4,0.5-3.2,1.5
	c-0.8,1-1.2,2.2-1.2,3.8c0,1.3,0.3,2.4,1,3.3c0.7,0.9,1.5,1.3,2.6,1.3c1.3,0,2.5-0.6,3.6-1.7C23.8,22.5,24.3,21.2,24.3,19.7z" /> </symbol>
<symbol viewBox="0 0 40 40" id="nav-photography">
<title>photography</title>
<path d="M27,11l-4-4h-6l-4,4H4v22h32V11H27z M20,30c-4.4,0-8-3.6-8-8s3.6-8,8-8s8,3.6,8,8S24.4,30,20,30z M29,15c-0.6,0-1-0.4-1-1
	s0.4-1,1-1s1,0.4,1,1S29.6,15,29,15z M26,22c0,3.3-2.7,6-6,6s-6-2.7-6-6s2.7-6,6-6S26,18.7,26,22z M12,10H7V8.1h5V10z" /> </symbol>
<symbol viewBox="0 0 40 40" id="nav-print">
<title>print</title>
<path d="M34,8h2v9v16H23c0,1.7-1.3,3-3,3s-3-1.3-3-3H4V17V8h2v23h1h12h2h12h1V8z M20,30.4c3.8-1.9,9.2-1.9,13,0V8c-3.6-4-9.4-4-13,0
	c-3.6-4-9.4-4-13,0v22.4C10.8,28.5,16.2,28.5,20,30.4z" /> </symbol>
<symbol viewBox="0 0 40 40" id="nav-ux">
<title>ux</title>
<path d="M19,38l4-2.3V38H19z M17,32v2.3l4-2.3H17z M17,37.5l6-3.5v-1.5L17,36V37.5z M30,17c0,0.3,0,0.7-0.1,1
	c-0.2,1.9-0.9,3.6-2,5.1c-0.5,0.7-1.2,1.3-1.9,1.9C24.8,26.6,24,28.7,24,31h-8c0-2.3-0.8-4.4-2.1-6.1c-0.7-0.5-1.3-1.2-1.9-1.9
	c-1.1-1.4-1.8-3.2-2-5.1c0-0.3-0.1-0.7-0.1-1c0-5.5,4.5-10,10-10S30,11.5,30,17z M28,17c0-4.4-3.6-8-8-8c-4.4,0-8,3.6-8,8
	c0,0.3,0,0.5,0,0.8c0.1,1.5,0.7,2.9,1.6,4c0.4,0.6,0.9,1.1,1.5,1.5l0.2,0.2l0.2,0.2c1.2,1.6,2,3.4,2.3,5.3h4.3
	c0.3-1.9,1.1-3.7,2.3-5.3l0.2-0.2l0.2-0.2c0.6-0.4,1.1-0.9,1.5-1.5c0.9-1.2,1.5-2.6,1.6-4C28,17.5,28,17.3,28,17z M21,5V2h-2v3H21z
	 M32,18h3v-2h-3V18z M8,16H5v2h3V16z M11.5,7.1L9.4,5L8,6.4l2.1,2.1L11.5,7.1z M28.5,7.1l1.4,1.4L32,6.4L30.6,5L28.5,7.1z" /> </symbol>
<symbol viewBox="0 0 40 40" id="nav-video">
<title>video</title>
<path d="M27,24.1l9-5.1v16l-9-5.1V35H7V19h20V24.1z M4,24h2v-5H4V24z M10.5,18c2.5,0,4.5-2,4.5-4.5S13,9,10.5,9S6,11,6,13.5
	S8,18,10.5,18z M22.5,18c3.6,0,6.5-2.9,6.5-6.5S26.1,5,22.5,5S16,7.9,16,11.5S18.9,18,22.5,18z" /> </symbol>
<symbol viewBox="0 0 40 40" id="nav-work">
<title>work</title>
<g id="svgstoreab92fc5e72d1977db3e8464016642bf4button">
<path d="M14.1,14.1H6.5V6.5h7.6V14.1z M23.8,6.5h-7.6v7.6h7.6V6.5z M33.5,6.5h-7.6v7.6h7.6V6.5z M14.1,23.8v-7.6H6.5v7.6H14.1z
		 M14.1,33.5v-7.6H6.5v7.6H14.1z M23.8,23.8v-7.6h-7.6v7.6H23.8z M23.8,33.5v-7.6h-7.6v7.6H23.8z M33.5,23.8v-7.6h-7.6v7.6H33.5z
		 M33.5,33.5v-7.6h-7.6v7.6H33.5z" /> </g>
</symbol>
</svg>