<?xml version="1.0" encoding="utf-8"?>
<!-- Generator: Adobe Illustrator 16.0.0, SVG Export Plug-In . SVG Version: 6.00 Build 0)  -->
<!DOCTYPE svg PUBLIC "-//W3C//DTD SVG 1.1//EN" "http://www.w3.org/Graphics/SVG/1.1/DTD/svg11.dtd">
<svg version="1.1" id="Layer_1" xmlns="http://www.w3.org/2000/svg" xmlns:xlink="http://www.w3.org/1999/xlink" x="0px" y="0px"
	 width="75px" height="75px" viewBox="0 0 75 75" enable-background="new 0 0 75 75" xml:space="preserve">
<path d="M34.1,34.3c0,0,4.8-0.4,4.8-6c0-5.6-3.9-8.4-8.9-8.4h-9.1h-0.3h-6.9v31.4h6.9h0.3H30c0,0,10,0.3,10-9.3
	C40,42.1,40.4,34.3,34.1,34.3z M20.9,25.6h8H30c0,0,2.2,0,2.2,3.3c0,3.3-1.3,3.7-2.8,3.7h-8.6v-7H20.9z M29.6,45.8h-8.7v-8.4H30
	c0,0,3.3,0,3.3,4.3C33.3,45.4,30.9,45.8,29.6,45.8z M53.3,28c-12.1,0-12.1,12-12.1,12s-0.8,12,12.1,12c0,0,10.7,0.6,10.7-8.3h-5.5
	c0,0,0.2,3.4-5,3.4c0,0-5.5,0.4-5.5-5.5h16.3C64.2,41.6,66,28,53.3,28z M47.9,37.4c0,0,0.7-4.8,5.5-4.8c4.8,0,4.8,4.8,4.8,4.8H47.9z
	 M46.5,21.8h12.9v3.9H46.5V21.8z"/>
</svg>
