<?xml version="1.0" encoding="utf-8"?>
<!-- Generator: Adobe Illustrator 16.0.0, SVG Export Plug-In . SVG Version: 6.00 Build 0)  -->
<!DOCTYPE svg PUBLIC "-//W3C//DTD SVG 1.1//EN" "http://www.w3.org/Graphics/SVG/1.1/DTD/svg11.dtd">
<svg version="1.1" id="Layer_1" xmlns="http://www.w3.org/2000/svg" xmlns:xlink="http://www.w3.org/1999/xlink" x="0px" y="0px"
	 width="75px" height="75px" viewBox="0 0 75 75" enable-background="new 0 0 75 75" xml:space="preserve">
<path fill="#181617" d="M54.5,40.5v-6l-4.4,3L54.5,40.5z M39.3,44.7V53l13.8-9.2l-6.2-4.2L39.3,44.7z M35.7,30.3V22l-13.8,9.2
	l6.2,4.2L35.7,30.3z M37.5,65.4c15.4,0,27.9-12.5,27.9-27.9c0-15.4-12.5-27.9-27.9-27.9C22.1,9.6,9.6,22.1,9.6,37.5
	C9.6,52.9,22.1,65.4,37.5,65.4z M17.7,45.2L17.7,45.2c-0.1-0.1-0.1-0.1-0.2-0.1c0,0,0,0-0.1-0.1l-0.1-0.1c0,0,0-0.1-0.1-0.1
	l-0.1-0.1c0,0,0-0.1-0.1-0.1c0,0,0-0.1-0.1-0.1v-0.1v-0.1v-0.1v-0.1c0,0,0,0,0-0.1s0-0.2,0-0.2V31.2c0-0.1,0-0.2,0-0.2v-0.1v-0.1
	v-0.1v-0.1v-0.1c0,0,0-0.1,0.1-0.1c0,0,0-0.1,0.1-0.1c0,0,0-0.1,0.1-0.1c0,0,0-0.1,0.1-0.1l0.1-0.1c0,0,0,0,0.1-0.1l0.1-0.1
	c0,0,0.1,0,0.1-0.1l0,0l18.8-12.5c0.6-0.4,1.4-0.4,2,0l18.8,12.5l0,0c0,0,0.1,0,0.1,0.1l0.1,0.1c0,0,0,0,0.1,0.1l0.1,0.1
	c0,0,0,0,0.1,0.1l0.1,0.1c0,0,0,0.1,0.1,0.1c0,0,0,0.1,0.1,0.1v0.1v0.1v0.1v0.1c0,0,0,0,0,0.1s0,0.2,0,0.2v12.5c0,0.1,0,0.2,0,0.2
	V44v0.1v0.1v0.1v0.1c0,0,0,0.1-0.1,0.1c0,0,0,0.1-0.1,0.1c0,0,0,0.1-0.1,0.1c0,0,0,0.1-0.1,0.1l-0.1,0.1c0,0,0,0-0.1,0.1l-0.1,0.1
	c0,0-0.1,0-0.1,0.1l0,0L38.5,57.8c-0.3,0.2-0.6,0.3-1,0.3c-0.3,0-0.7-0.1-1-0.3L17.7,45.2L17.7,45.2z M20.5,34.5v6l4.4-3L20.5,34.5z
	 M53.1,31.2L39.3,22v8.3l7.6,5.1L53.1,31.2z M21.9,43.8L35.7,53v-8.3l-7.6-5.1L21.9,43.8z M37.5,41.7l6.2-4.2l-6.2-4.2l-6.2,4.2
	L37.5,41.7z"/>
</svg>
