<?xml version="1.0" encoding="utf-8"?>
<!-- Generator: Adobe Illustrator 16.0.0, SVG Export Plug-In . SVG Version: 6.00 Build 0)  -->
<!DOCTYPE svg PUBLIC "-//W3C//DTD SVG 1.1//EN" "http://www.w3.org/Graphics/SVG/1.1/DTD/svg11.dtd">
<svg version="1.1" id="Layer_1" xmlns="http://www.w3.org/2000/svg" xmlns:xlink="http://www.w3.org/1999/xlink" x="0px" y="0px"
	 width="75px" height="75px" viewBox="0 0 75 75" enable-background="new 0 0 75 75" xml:space="preserve">
<path fill="#EA4C89" d="M37.5,69.3c17,0,30.9-13.9,30.9-30.9c0-17-13.9-30.9-30.9-30.9S6.6,21.4,6.6,38.4
	C6.6,55.4,20.5,69.3,37.5,69.3z M37.5,64.8c-6.1,0-11.7-2.1-16.2-5.6c0.5-1,5.8-11.3,20.7-16.5l0.2-0.1c3.7,9.6,5.2,17.7,5.6,20
	C44.6,64.1,41.2,64.8,37.5,64.8z M52.2,60.3c-0.3-1.6-1.7-9.3-5.1-18.8c8.3-1.3,15.5,0.8,16.4,1.1C62.4,50,58.2,56.3,52.2,60.3z
	 M57.9,21.7c3.7,4.5,5.9,10.2,6,16.4c-0.9-0.2-9.6-2-18.4-0.8c-0.2-0.5-0.4-0.9-0.6-1.4c-0.6-1.3-1.1-2.6-1.8-3.8
	C53,28.2,57.4,22.5,57.9,21.7z M37.5,12c6.7,0,12.8,2.5,17.5,6.7c-0.5,0.7-4.4,6-13.8,9.5c-4.3-7.9-9.1-14.5-9.8-15.5
	C33.3,12.3,35.4,12,37.5,12z M26.3,14.5c0.7,1,5.4,7.5,9.8,15.3C23.7,33.1,12.8,33,11.7,33C13.4,24.8,18.9,18,26.3,14.5z M11.1,37.6
	c1.2,0,13.9,0.2,27.1-3.8c0.8,1.5,1.5,3,2.1,4.5c-0.3,0.1-0.7,0.2-1,0.3C25.7,43,18.4,55,17.8,56C13.6,51.3,11,45.1,11,38.3
	C11.1,38.2,11.1,37.9,11.1,37.6z"/>
</svg>
