<?xml version="1.0" encoding="utf-8"?>
<!-- Generator: Adobe Illustrator 16.0.0, SVG Export Plug-In . SVG Version: 6.00 Build 0)  -->
<!DOCTYPE svg PUBLIC "-//W3C//DTD SVG 1.1//EN" "http://www.w3.org/Graphics/SVG/1.1/DTD/svg11.dtd">
<svg version="1.1" id="Layer_1" xmlns="http://www.w3.org/2000/svg" xmlns:xlink="http://www.w3.org/1999/xlink" x="0px" y="0px"
	 width="75px" height="75px" viewBox="0 0 75 75" enable-background="new 0 0 75 75" xml:space="preserve">
<path fill="#CC3732" d="M13,62.7c2.6,2.2,6.5,3.3,11.8,3.4c6.3-0.1,11.1-1.6,14.4-4.5c3.2-2.8,4.8-6,4.8-9.7c0-2.6-0.6-4.6-1.8-6.2
	c-1.2-1.6-2.6-3-4.2-4.3l-2.5-2.1c-0.4-0.4-0.7-0.8-1.1-1.3c-0.5-0.5-0.7-1.2-0.7-1.9c0-0.8,0.2-1.5,0.7-2.1
	c0.4-0.6,0.8-1.1,1.2-1.6c0.8-0.7,1.5-1.4,2.2-2c0.6-0.7,1.2-1.4,1.8-2.2c1.1-1.6,1.7-3.8,1.8-6.4c0-1.5-0.2-2.7-0.5-3.8
	c-0.4-1.1-0.9-2.1-1.4-2.9c-0.5-0.9-1.1-1.6-1.7-2.2c-0.6-0.6-1.1-1-1.6-1.3h4.6l4.6-2.7h-15c-2,0-4.1,0.2-6.4,0.7s-4.5,1.7-6.6,3.4
	c-3.1,3-4.7,6.3-4.7,10c0,3,1.1,5.7,3.3,8c2.1,2.5,5.1,3.7,9.1,3.8c0.8,0,1.6,0,2.4-0.1c-0.1,0.4-0.3,0.8-0.5,1.3
	c-0.2,0.4-0.3,1-0.3,1.7c0,1.1,0.2,2,0.7,2.8c0.4,0.8,0.9,1.6,1.4,2.3c-1.8,0-4,0.3-6.6,0.7c-2.7,0.5-5.2,1.4-7.7,2.8
	c-2.2,1.3-3.7,2.8-4.5,4.5c-0.9,1.7-1.3,3.3-1.3,4.6C9.1,58.2,10.4,60.7,13,62.7z M28.7,32.8c-1.6,0-3-0.5-4.2-1.4
	c-1.2-1-2.2-2.1-3-3.5c-1.6-2.9-2.4-5.8-2.4-8.5c-0.1-2.1,0.5-3.9,1.6-5.6c1.3-1.6,3-2.4,5.1-2.5c1.5,0,2.9,0.5,4.1,1.4
	c1.2,0.9,2.1,2.1,2.8,3.5c1.5,3,2.3,6,2.3,9c0,0.7-0.1,1.5-0.2,2.5c-0.2,1-0.6,2-1.2,2.9C32.4,32.1,30.7,32.8,28.7,32.8z M16.3,50.3
	c0.5-0.9,1.1-1.7,1.8-2.3c0.7-0.6,1.4-1,2.1-1.4c0.7-0.3,1.2-0.5,1.6-0.7c1.6-0.5,3.2-0.8,4.8-1.1c1.6-0.1,2.6-0.2,2.9-0.1
	c0.6,0,1.2,0,1.7,0.1c2.8,2,4.9,3.6,6.2,4.9c1.2,1.4,1.9,3.1,1.9,5c0,2.3-0.9,4.3-2.7,5.8c-1.9,1.5-4.6,2.3-8.1,2.3
	c-3.9-0.1-7.1-0.9-9.3-2.6c-2.4-1.7-3.6-3.9-3.6-6.5C15.5,52.4,15.7,51.3,16.3,50.3z M54.2,28.8H58v-7.9h7.9v-3.8H58V9.2h-3.8v7.9
	h-7.9v3.8h7.9V28.8z"/>
</svg>
