<?xml version="1.0" encoding="utf-8"?>
<!-- Generator: Adobe Illustrator 16.0.0, SVG Export Plug-In . SVG Version: 6.00 Build 0)  -->
<!DOCTYPE svg PUBLIC "-//W3C//DTD SVG 1.1//EN" "http://www.w3.org/Graphics/SVG/1.1/DTD/svg11.dtd">
<svg version="1.1" id="Layer_1" xmlns="http://www.w3.org/2000/svg" xmlns:xlink="http://www.w3.org/1999/xlink" x="0px" y="0px"
	 width="75px" height="75px" viewBox="0 0 75 75" enable-background="new 0 0 75 75" xml:space="preserve">
<path fill="#32669A" d="M55.9,12.7H19.1c-3.5,0-6.4,2.9-6.4,6.4V56c0,3.5,2.9,6.4,6.4,6.4H56c3.5,0,6.4-2.9,6.4-6.4V19.1
	C62.3,15.6,59.5,12.7,55.9,12.7z M46.6,20.4c0-1.2,1-2.2,2.2-2.2h5.6c1.2,0,2.2,1,2.2,2.2v5.3c0,1.2-1,2.2-2.2,2.2h-5.6
	c-1.2,0-2.2-1-2.2-2.2V20.4z M37.5,27.7c5.5,0,10,4.3,10,9.7c0,5.3-4.5,9.7-10,9.7s-10-4.3-10-9.7C27.6,32.1,32,27.7,37.5,27.7z
	 M56.7,54.6c0,1.1-0.9,2-2,2H20.2c-1.1,0-2-0.9-2-2v-21h4.6c-0.4,1.4-0.6,2.8-0.6,4.3c0,8.3,6.9,14.9,15.4,14.9
	c8.5,0,15.4-6.7,15.4-14.9c0-1.5-0.2-2.9-0.6-4.3h4.4L56.7,54.6L56.7,54.6z"/>
</svg>
