<?xml version="1.0" encoding="utf-8"?>
<!-- Generator: Adobe Illustrator 16.0.0, SVG Export Plug-In . SVG Version: 6.00 Build 0)  -->
<!DOCTYPE svg PUBLIC "-//W3C//DTD SVG 1.1//EN" "http://www.w3.org/Graphics/SVG/1.1/DTD/svg11.dtd">
<svg version="1.1" id="Layer_1" xmlns="http://www.w3.org/2000/svg" xmlns:xlink="http://www.w3.org/1999/xlink" x="0px" y="0px"
	 width="75px" height="75px" viewBox="0 0 75 75" enable-background="new 0 0 75 75" xml:space="preserve">
<path fill="#017BB6" d="M12.7,28.9h10.6v34.2H12.7V28.9z M18,24.2c3.4,0,6.2-2.8,6.2-6.2s-2.8-6.2-6.2-6.2s-6.2,2.8-6.2,6.2
	C11.9,21.5,14.6,24.2,18,24.2z M40.6,46.2c0-4.5,0.8-8.8,6.4-8.8c5.4,0,5.5,5.1,5.5,9.1v16.6h10.6V44.3c0-9.2-2-16.3-12.7-16.3
	c-5.2,0-8.6,2.8-10.1,5.5h-0.1v-4.7H30V63h10.6V46.2z"/>
</svg>
