<?xml version="1.0" encoding="utf-8"?>
<!-- Generator: Adobe Illustrator 16.0.0, SVG Export Plug-In . SVG Version: 6.00 Build 0)  -->
<!DOCTYPE svg PUBLIC "-//W3C//DTD SVG 1.1//EN" "http://www.w3.org/Graphics/SVG/1.1/DTD/svg11.dtd">
<svg version="1.1" id="Layer_1" xmlns="http://www.w3.org/2000/svg" xmlns:xlink="http://www.w3.org/1999/xlink" x="0px" y="0px"
	 width="75px" height="75px" viewBox="0 0 75 75" enable-background="new 0 0 75 75" xml:space="preserve">
<path fill="#CA2128" d="M26.6,62.5c-0.1-1.9,0-4.2,0.5-6.3c0.5-2.2,3.5-14.9,3.5-14.9s-0.9-1.7-0.9-4.3c0-4,2.3-7.1,5.3-7.1
	c2.5,0,3.7,1.9,3.7,4.1c0,2.5-1.6,6.2-2.4,9.7c-0.7,2.9,1.4,5.2,4.3,5.2c5.2,0,8.6-6.6,8.6-14.5c0-6-4-10.4-11.3-10.4
	c-8.3,0-13.4,6.2-13.4,13.1c0,2.4,0.7,4.1,1.8,5.3c0.5,0.6,0.6,0.8,0.4,1.5c-0.1,0.5-0.4,1.7-0.6,2.2c-0.2,0.7-0.7,0.9-1.4,0.7
	c-3.8-1.6-5.6-5.7-5.6-10.4c0-7.7,6.5-17,19.5-17c10.4,0,17.3,7.5,17.3,15.6c0,10.7-5.9,18.7-14.7,18.7c-2.9,0-5.7-1.6-6.7-3.4
	c0,0-1.6,6.3-1.9,7.5c-0.6,2.1-1.7,4.2-2.7,5.8c2.4,0.7,5,1.1,7.7,1.1c15.1,0,27.3-12.2,27.3-27.3c0-15.1-12.2-27.3-27.3-27.3
	S10.2,22.4,10.2,37.5C10.2,48.7,17,58.2,26.6,62.5z"/>
</svg>
