<svg style="display: none;">
<symbol viewBox="0 0 40 40" id="nav-about">
<title>about</title>
<path d="M25.3,25.6c3-1.8,5-5.1,5-8.8c0-5.7-4.6-10.3-10.3-10.3S9.7,11.1,9.7,16.8c0,3.8,2,7,5,8.8c-4.1,0.6-7.6,2-10.4,3.8

	c3.2,5.3,9,8.8,15.6,8.8c6.6,0,12.4-3.5,15.6-8.8C32.9,27.6,29.4,26.3,25.3,25.6z" />
</symbol>
<symbol viewBox="0 0 40 40" id="nav-contact">
<title>contact</title>
<path id="svgstorec9daf1cdb3109323d1b7221e6c8bd069Layer_7" d="M28.2,12.3l-1.2,10c-0.1,0.4-0.1,0.7-0.1,1.1c0,0.3,0,0.7,0,1c0,1,0.4,1.4,1.2,1.4c1.1,0,2.1-0.8,3-2.4

	c0.9-1.5,1.3-3.3,1.3-5.3c0-3.1-1.1-5.7-3.3-7.7c-2.2-2-5-3-8.4-3c-3.5,0-6.5,1.2-9,3.6c-2.4,2.4-3.6,5.4-3.6,9c0,2,0.4,3.9,1.3,5.8

	c0.9,1.8,2.1,3.2,3.7,4.4c2.1,1.5,4.8,2.3,8,2.3c3,0,6.1-0.8,9.4-2.3l0.3-0.2l1,2.8l-0.2,0.1c-3.3,1.6-6.8,2.4-10.4,2.4

	c-4,0-7.3-1-10-2.9c-2-1.4-3.5-3.2-4.6-5.4c-1.1-2.3-1.7-4.6-1.7-7c0-4.3,1.5-7.9,4.6-10.9c3.1-2.9,6.8-4.4,11.3-4.4

	c4.1,0,7.6,1.3,10.4,3.8s4.2,5.6,4.2,9.4c0,2.9-0.8,5.4-2.3,7.5c-1.5,2.1-3.3,3.2-5.3,3.2c-1.6,0-2.7-0.8-3.3-2.3

	c-1.6,1.6-3.3,2.4-5.3,2.4c-2.1,0-3.9-0.8-5.3-2.3s-2.1-3.4-2.1-5.8c0-2.5,0.8-4.6,2.3-6.2c1.5-1.7,3.5-2.5,5.8-2.5

	c2.1,0,3.9,0.8,5.2,2.5l0.3-2.1H28.2L28.2,12.3z M24.3,19.7c0-1.2-0.4-2.2-1.2-3c-0.8-0.8-1.8-1.2-3-1.2c-1.3,0-2.4,0.5-3.2,1.5

	c-0.8,1-1.2,2.2-1.2,3.8c0,1.3,0.3,2.4,1,3.3c0.7,0.9,1.5,1.3,2.6,1.3c1.3,0,2.5-0.6,3.6-1.7C23.8,22.5,24.3,21.2,24.3,19.7z" />
</symbol>
<symbol viewBox="0 0 40 40" id="nav-work">
<title>work</title>
<g id="svgstoreab92fc5e72d1977db3e8464016642bf4button">
<path d="M14.1,14.1H6.5V6.5h7.6V14.1z M23.8,6.5h-7.6v7.6h7.6V6.5z M33.5,6.5h-7.6v7.6h7.6V6.5z M14.1,23.8v-7.6H6.5v7.6H14.1z

		 M14.1,33.5v-7.6H6.5v7.6H14.1z M23.8,23.8v-7.6h-7.6v7.6H23.8z M23.8,33.5v-7.6h-7.6v7.6H23.8z M33.5,23.8v-7.6h-7.6v7.6H33.5z

		 M33.5,33.5v-7.6h-7.6v7.6H33.5z" />
</g>
</symbol>
</svg>