<?xml version="1.0" encoding="utf-8"?>
<!-- Generator: Adobe Illustrator 23.0.1, SVG Export Plug-In . SVG Version: 6.00 Build 0)  -->
<svg version="1.1" id="Layer_1" xmlns="http://www.w3.org/2000/svg" xmlns:xlink="http://www.w3.org/1999/xlink" x="0px" y="0px"
	 viewBox="0 0 32 60" style="enable-background:new 0 0 32 60;" xml:space="preserve">
<path d="M0,0l7.4,3.7C7.8,3.9,8,4.2,8,4.6v10.9C8,15.8,8.2,16,8.5,16h11c0.3,0,0.5,0.2,0.5,0.5v19c0,0.3-0.2,0.5-0.5,0.5h-19
	C0.2,36,0,35.8,0,35.5v-7C0,28.2,0.2,28,0.5,28h11c0.3,0,0.5-0.2,0.5-0.5v-3c0-0.3-0.2-0.5-0.5-0.5h-11C0.2,24,0,23.8,0,23.5V0z
	 M23.5,40h-11c-0.3,0-0.5,0.2-0.5,0.5v19c0,0.3,0.2,0.5,0.5,0.5h19c0.3,0,0.5-0.2,0.5-0.5v-7c0-0.3-0.2-0.5-0.5-0.5h-11
	c-0.3,0-0.5-0.2-0.5-0.5v-3c0-0.3,0.2-0.5,0.5-0.5h11c0.3,0,0.5-0.2,0.5-0.5V28.6c0-0.4-0.2-0.7-0.6-0.9L24,24v15.5
	C24,39.8,23.8,40,23.5,40z M0.5,48h7C7.8,48,8,47.8,8,47.5v-7C8,40.2,7.8,40,7.5,40h-7C0.2,40,0,40.2,0,40.5v7C0,47.8,0.2,48,0.5,48
	z"/>
</svg>
