<svg 
	viewBox="0 0 1756 1756" >
	<path 
		d="
			M940.396,1682.636
			C495.765,1716.95,107.541,1384.349,73.23,939.719 M1554.421,505.405c205.562,373.438,69.481,842.77-303.958,1048.332
			 M1492.62,1245.941c-203.443,339.307-643.392,449.436-982.697,245.986 M387.872,465.698
			c227.493-270.847,631.438-305.993,902.285-78.501 M702.036,1481.495c-333.539-97.34-525.001-446.61-427.66-780.147
			 M1457.607,796.938c44.541,319.971-178.715,615.438-498.688,659.979 M942.021,358.87
			c286.491,35.209,490.176,295.972,454.969,582.464 M1225.755,1207.476c-182.198,191.912-485.448,199.791-677.36,17.595
			 M452.407,694.084c101.353-235.206,374.164-343.707,609.37-242.355 M751.591,1228.441
			c-193.772-69.97-294.129-283.753-224.162-477.527 M591.517,793.082c46.676-158.375,212.891-248.921,371.263-202.246
			 M871.917,661.593c119.293-3.509,218.836,90.343,222.347,209.636 M1131.709,926.843c-27.203,139.974-162.71,231.376-302.681,204.172
			 M1158.467,609.435c148.1,154.747,142.708,400.242-12.039,548.342 M1382.21,1587.358
			c-391.993,278.271-935.305,186.104-1213.589-205.88 M660.711,192.408c378.408-120.166,782.524,89.151,902.688,467.545
			 M1515.923,928.533c-28.138,352.104-336.354,614.704-688.46,586.561 M338.518,1033.302
			c-85.995-298.086,85.931-609.424,384.02-695.407 M1019.518,1263.507c-213.131,77.98-449.107-31.557-527.102-244.692
			 M1174.914,537.781c187.629,163.786,206.954,448.64,43.158,636.264 M494.846,712.695c91.061-211.742,336.49-309.57,548.244-218.518
			 M1117.385,1102.5c-124.209,132.032-331.919,138.373-463.961,14.167 M944.501,587.305
			c160.302,36.592,260.582,196.188,223.999,356.493 M1099.845,818.386c32.702,122.373-39.979,248.062-162.35,280.767
			 M785.895,1045.701c-92.854-51.01-126.77-167.617-75.75-260.478 M735.145,858.038c10.783-79.03,83.584-134.355,162.615-123.57
			 M96.776,814.421C131.732,382.853,509.893,61.364,941.457,96.322 M213.484,327.76C517.22-39.358,1061.007-90.728,1428.121,213.007
			 M755.795,58.847c452.266-67.583,873.65,244.24,941.233,696.506 M1619.266,1085.969
			c-115.023,409.326-540.051,647.881-949.375,532.857 M868.974,1565.472c-379.859-5.066-683.659-317.084-678.586-696.941
			 M1412.24,493.352c212.287,294.978,145.258,706.161-149.721,918.447 M290.165,1041.221
			c-90.312-324.75,99.724-661.198,424.478-751.51 M775.399,397.657c265.14-56.758,526.062,112.151,582.819,377.29 M489.185,936.881
			c-32.684-214.833,114.969-415.466,329.801-448.148 M831.425,1158.235c-154.937-25.808-259.608-172.313-233.804-327.25
			 M808.91,618.101c143.387-38.251,290.62,46.975,328.872,190.361 M961.173,1048.854c-94.521,45.857-208.311,6.413-254.169-88.107
			 M985.865,762.807c63.471,59.483,66.704,159.147,7.221,222.621 M822.381,995.222c-64.9-30.801-92.542-108.375-61.741-173.279
			 M993.704,884.199c-3.572,63.817-58.193,112.651-122.008,109.083 M785.21,836.586c22.711-51.34,82.734-74.546,134.075-51.836
			 M920.014,798.579c43.71,23.114,60.407,77.281,37.293,120.99 M923,945.889c-37.646,24.774-88.244,14.34-113.019-23.306
			 M805.388,897.882c-11.143-40.191,12.401-81.803,52.593-92.947 M926.526,843.249c19.04,26.711,12.817,63.796-13.894,82.835
			 M882.934,931.366c-29.639,2.638-55.798-19.246-58.435-48.883 M916.438,893.75c-8.857,21.14-33.172,31.096-54.311,22.237
			 M865.717,845.308c17.895-6.873,37.974,2.062,44.846,19.955 M852.026,877.706c0-14.435,11.697-26.133,26.133-26.133
			 M1217.393,858.588c10.566,187.368-132.738,347.811-320.108,358.374 M1195.806,1277.249
			c-220.661,175.441-541.753,138.784-717.191-81.878 M1410.018,918.627c-22.664,293.695-279.102,513.393-572.798,490.727
			 M1350.496,1382.105c-278.648,260.82-715.938,246.367-976.757-32.277 M1332.215,228.061
			c358.757,250.735,446.315,744.787,195.58,1103.542 M1200.056,390.457c269.046,177.73,343.064,539.885,165.333,808.933
			 M1491.157,475.569c222.039,338.509,127.631,792.882-210.88,1014.921 M254.42,950.019
			c-40.004-344.55,206.859-656.263,551.408-696.266 M1121.564,1283.384c-224.125,134.386-514.729,61.642-649.109-162.485
			 M606.19,553.665c178.904-150.267,445.726-127.052,595.993,51.853 M1277.152,761.174c64.298,220.314-62.17,451.021-282.485,515.317
			 M824.983,1260.257c-211.354-29.422-358.822-224.589-329.401-435.942 M535.623,919.694
			c-23.256-189.239,111.285-361.483,300.523-384.74 M1096.152,1107.111c-126.767,120.349-327.073,115.145-447.422-11.621
			 M757.043,596.291c155.363-66.947,335.565,4.722,402.513,160.085 M1110.001,793.914c46.216,127.996-20.073,269.209-148.067,315.426
			 M822.436,688.177c104.61-30.831,214.401,28.979,245.232,133.591 M735.584,873.387c2.319-78.798,68.071-140.791,146.869-138.473
			 M910.783,1044.985c-92.456,17.97-181.964-42.406-199.934-134.863 M701.129,1062.662c-102.217-97.825-105.777-259.984-7.953-362.2
			 M1460,634.196c134.448,321.299-17.01,690.715-338.304,825.161 M771.71,216.606c365.099-58.972,708.851,189.16,767.823,554.257
			 M1347.008,1210.427c-183.816,258.921-542.695,319.8-801.623,135.991 M425.704,733.831
			c79.372-249.944,346.307-388.206,596.259-308.832 M911.817,1298.686c-232.578,18.59-436.168-154.866-454.754-387.447
			 M981.125,521.099c196.899,56.795,310.463,262.446,253.659,459.344 M1133.128,970.872
			c-51.517,140.785-207.39,213.139-348.171,161.63 M653.804,1073.408c-108.192-123.935-95.428-312.089,28.509-420.276 M769.387,624.33
			c139.872-60.145,301.988,4.475,362.139,144.339 M1026.776,1035.508c-87.221,82.043-224.419,77.855-306.464-9.355 M686.549,921.321
			c-24.165-105.889,42.074-211.307,147.96-235.479 M839.137,1023.938c-80.83-21.604-128.839-104.623-107.236-185.456 M989.312,816.577
			c33.697,61.338,11.297,138.36-50.037,172.056 M865.383,783.051c52.203-7.124,100.291,29.42,107.414,81.623 M192.198,1025.806
			c-81.819-378.954,159.036-752.451,537.991-834.27 M437.268,1499.73C93.691,1256.136,12.644,780.179,256.24,436.601 M211.171,559.571
			C386.857,191.097,827.95,34.823,1196.424,210.508 M372.009,299.696C691.227,20.05,1176.657,52.127,1456.301,371.342
			 M141.077,526.148c194.144-407.19,681.579-579.882,1088.77-385.736 M1704.721,861.101
			c9.148,456.421-353.404,833.809-809.828,842.955 M836.52,361.531c285.064-23.091,534.854,189.265,557.943,474.332 M643.689,1425.779
			C340.964,1296.184,200.628,945.75,330.225,643.024 M515.059,438.606c242.493-200.629,601.686-166.697,802.315,75.798
			 M337.436,796.847c44.642-298.739,322.981-504.711,621.721-460.07 M1015.899,1367.203
			c-270.374,75.978-551.12-81.598-627.101-351.972 M1332.632,871.604c3.349,250.911-197.321,457.01-448.233,460.357 M624.445,1230.454
			c-194.845-140.226-239.12-411.826-98.896-606.67 M986.339,489.272c214.513,59.653,340.038,281.89,280.384,496.4 M561.231,809.789
			c37.49-175.134,209.841-286.706,384.976-249.215 M917.417,620.733c141.905,21.588,239.435,154.113,217.846,296.019
			 M1063.637,846.804c17.045,102.341-52.095,199.116-154.437,216.162 M706.84,831.927c25.269-94.713,122.521-151.007,217.232-125.741
			 M991.385,932.517c-30.291,62.438-105.453,88.49-167.889,58.199 M802.417,948.819c-39.291-41.927-37.155-107.759,4.771-147.05
			 M955.956,840.831c20.346,42.871,2.088,94.112-40.782,114.458 M882.6,954.007c-42.15,2.358-78.229-29.896-80.591-72.053
			 M851.165,816.264c33.912-15.001,73.56,0.328,88.562,34.24 M826.05,905.317c-15.268-28.872-4.237-64.65,24.634-79.918
			 M923.364,907.308c-16.364,24.867-49.786,31.761-74.653,15.396 M891.66,829.597c26.547,7.361,42.099,34.848,34.738,61.396
			 M855.558,909.621c-17.644-12.576-21.752-37.072-9.176-54.716 M913.775,880.821c-1.742,19.575-19.021,34.03-38.601,32.289
			 M888.92,902.952c-13.963,5.851-30.021-0.726-35.873-14.689 M856.927,869.446c4.54-11.82,17.805-17.722,29.622-13.182
			 M878.33,860.403c9.534,0,17.262,7.728,17.262,17.262 M865.698,1101.757c-123.766-6.979-218.424-112.956-211.444-236.72
			 M1142.246,1087.495c-115.885,145.756-327.979,169.97-473.734,54.084
		 "/>
</svg>
