<svg 
	id="polaris-graphics-animation"
	viewBox="0 0 1200 800">

	<g id="center">
		<path id="blur-1" class="blurred-star"
			d="
				M483.7,355.5c-1.4,0-2.5-1.1-2.5-2.5c0-7.8-6.3-14.1-14.1-14.1c-1.4,0-2.5-1.1-2.5-2.5
				s1.1-2.5,2.5-2.5c10.5,0,19.1,8.6,19.1,19.1C486.2,354.4,485.1,355.5,483.7,355.5z
			"
		/>
		<path id="blur-2" class="blurred-star"
			d="
				M490.9,355.5c-1.4,0-2.5-1.1-2.5-2.5c0-11.7-9.6-21.3-21.3-21.3c-1.4,0-2.5-1.1-2.5-2.5
				c0-1.4,1.1-2.5,2.5-2.5c14.5,0,26.3,11.8,26.3,26.3C493.4,354.4,492.2,355.5,490.9,355.5z
			"
		/>
		<path id="blur-3" class="blurred-star"
			d="
				M498.1,355.5c-1.4,0-2.5-1.1-2.5-2.5c0-15.7-12.8-28.6-28.6-28.6c-1.4,0-2.5-1.1-2.5-2.5
				s1.1-2.5,2.5-2.5c18.5,0,33.6,15.1,33.6,33.6C500.6,354.4,499.5,355.5,498.1,355.5z
			"
		/>
		<path id="blur-4" class="blurred-star"
			d="
				M505.4,355.5c-1.4,0-2.5-1.1-2.5-2.5c0-19.8-16.1-35.8-35.8-35.8c-1.4,0-2.5-1.1-2.5-2.5
				c0-1.4,1.1-2.5,2.5-2.5c22.5,0,40.8,18.3,40.8,40.8C507.9,354.4,506.8,355.5,505.4,355.5z
			"
		/>
		<circle id="star" 
			cx="467" cy="353" r="8.3"
		/>
	</g>

	<g id="lettering">

		<g id="graphics">
			
			<path 		id="gG" 	class="g-letter"
				d="
					M402.9,447.3v-12.2h-11.7v1.2h10.4V447c-5,5.8-10.2,8.4-16,8.4c-10.9,0-19.7-10.1-19.7-21.2
					c0-10.4,7.2-21.2,18.9-21.2c6.9,0,12.4,2.6,15.7,8.8l1.2-0.4c-2.8-5.6-7.7-9.7-16.9-9.7c-11.8,0-20.2,10.9-20.2,22.5
					c0,10.9,8.6,22.5,20.9,22.5c6,0,11.4-2.6,16-7.9L402.9,447.3z
				"
			/>
			<path 		id="gR" 	class="g-letter"
				d="
					M469.5,425.4c0-6.6-5.2-13.4-12.5-13.4h-18v44.3h1.2v-43.1H457c6.2,0,11.2,5.9,11.2,12.2
					c0,6.1-4.1,12.2-10.8,12.2h-1.6l12.1,18.7h1.5l-11.2-17.4C464.8,438.4,469.5,432.2,469.5,425.4z
				"
			/>
			<polygon 	id="gA" 	class="g-letter"
				points="

					520.4,413.8 538.8,456.3 540.2,456.3 520.9,412 519.8,412 500.5,456.3 501.8,456.3
				"
			/>
			<path 		id="gP" 	class="g-letter"
				d="
					M590.5,412h-18v44.3h1.2v-43.1h16.8c6.2,0,11.2,5.9,11.2,12.2c0,6-4.1,12.2-10.8,12.2h-1.6
					l0.8,1.2h0.8c7.2,0,12-6.6,12-13.5C603,418.8,597.7,412,590.5,412z
				"
			/>
			<polygon 	id="gH" 	class="g-letter"
				points="
					668.9,412 668.9,456.3 667.7,456.3 667.7,434.2 636.9,434.2 636.9,456.3 635.6,456.3 
					635.6,412 636.9,412 636.9,433 667.7,433 667.7,412
				"
			/>
			<rect 		id="gI" 	class="g-letter"
				x="706.4"  y="412"  
				width="1.2"  height="44.3"
			/>
			<path 		id="gC" 	class="g-letter"
				d="
					M763.1,411.7c7.9,0,13.5,4.1,16.2,9.7l-1.2,0.4c-3.4-6.5-9.5-8.8-15.2-8.8
					c-12.4,0-19.4,10.8-19.4,21c0,11.3,8.7,21.4,19.6,21.4c5.9,0,12.7-2.9,16.1-9.4l1.2,0.3c-3.1,6.7-10.8,10.3-17.5,10.3
					c-12,0-20.6-11.6-20.6-22.8C742.2,423.2,749.8,411.7,763.1,411.7z
				"
			/>			
			<path 		id="gS" 	class="g-letter"
				d="
					M840,417.8c-3.5-3.9-7-5-12.2-5c-10.1,0-14.4,4.2-14.4,10.6c0,6.4,4.1,8.1,14,10.1
					c9.9,2,16.1,4.1,16.1,11.9c0,7.2-5.9,11.2-15.6,11.2c-7.1,0-12.5-2.2-17.2-6.9l0.9-0.8c4.5,4.6,9.6,6.6,16.4,6.6
					c8.8,0,14.3-3.3,14.3-9.9c0-6.6-4.6-8.9-14.8-10.9c-9.8-1.9-15.3-3.7-15.3-11.1c0-7.7,6.1-11.9,15.5-11.9c5.6,0,9.7,1.5,13.2,5.3
					L840,417.8z
				"
			/>
		
		</g>

		<g id="p-laris">
			<path id="pP" class="p-letter"
				d="
					M393.7,318.9h-27.9c-0.5,0-1,0.4-1,1v66.2c0,0.6,0.5,1,1,1H377c0.5,0,1-0.4,1-1v-54.5
					c0-0.6,0.4-1,1-1h13.8c4.7,0,9.1,4,9.1,11c0,6.7-3.6,11-8.5,11h-8.6c-0.5,0-0.8,0.4-0.5,0.8l6.2,9.9c0.3,0.5,1,0.8,1.5,0.8h2.1
					c12.7,0,21.2-11,21.2-22.7C415.4,330.4,406.3,318.9,393.7,318.9z
				"
			/>
			<path id="pL" class="p-letter"
				d="
					M524.5,387.1c-0.5,0-1-0.4-1-1v-66.2c0-0.6,0.5-1,1-1h11.2c0.5,0,1,0.4,1,1v54.5c0,0.6,0.4,1,1,1
					h32.7c0.5,0,1,0.5,1,1v9.6c0,0.6-0.5,1-1,1h-45.9V387.1z
				"
			/>
			<path id="pA" class="p-letter"
				d="
					M621.5,334.3c0.2-0.5,0.5-0.5,0.7,0l18.2,51.9c0.2,0.5,0.8,0.9,1.3,0.9h10.9c0.6,0,0.9-0.4,0.7-0.9
					L630,319.9c-0.2-0.5-0.8-0.9-1.3-0.9H615c-0.5,0-1.1,0.4-1.3,0.9l-23.2,66.3c-0.2,0.5,0.1,0.9,0.7,0.9H602c0.5,0,1.1-0.4,1.3-0.9
					L621.5,334.3z
				"
			/>
			<path id="pR" class="p-letter"
				d="
					M729.5,386.2l-15-23.9c-0.3-0.5-0.2-1,0.1-1.1c7.1-3.4,11.6-11.1,11.6-19.6
					c0-11.1-9.1-22.7-21.7-22.7h-29.1c-0.5,0-1,0.4-1,1v66.2c0,0.6,0.5,1,1,1h11.2c0.5,0,1-0.4,1-1v-54.5c0-0.6,0.4-1,1-1h15
					c4.7,0,9.2,4.7,9.2,11c0,6.1-3.7,11-8.6,11h-9.9c-0.5,0-0.8,0.4-0.5,0.8l20.6,32.8c0.3,0.5,1,0.8,1.5,0.8h13
					C729.6,387.1,729.8,386.7,729.5,386.2z
				"
			/>
			<path id="pI" class="p-letter"
				d="
					M753.5,387.1c-0.6,0-1-0.4-1-1V320c0-0.5,0.4-1,1-1h11.2c0.6,0,1,0.5,1,1v66.1c0,0.6-0.4,1-1,1
					H753.5z
				"
			/>
			<path id="pS" class="p-letter"
				d="
					M839.8,325.5c-5.9-3.8-13.9-7-23-7c-13.8,0-24.9,7.5-24.9,21.4c0,10.5,6.3,14.9,19.3,18.4
					c10.7,2.9,17.7,4.6,17.7,10.7c0,4.5-3.7,7-10.9,7c-9.5,0-18.9-5.1-22.2-7.7c-0.4-0.4-1-0.3-1.2,0.2l-4.9,9.6
					c-0.3,0.5-0.1,1.2,0.4,1.5c7.8,5.2,18,8.3,27.8,8.3c13.4,0,25.2-5.6,25.2-20.3c0-12.5-8.4-16.7-21.9-20.2
					c-10.3-2.7-15.6-4.1-15.6-9.7c0-4.9,3.6-7.7,10.8-7.7c7.3,0,14.9,3.9,17.6,6c0.4,0.4,1,0.3,1.2-0.2l4.9-9
					C840.4,326.4,840.2,325.8,839.8,325.5z
				"
			/>
		</g>

	</g>
</svg>