<?xml version="1.0" encoding="utf-8"?>
<!-- Generator: Adobe Illustrator 16.0.0, SVG Export Plug-In . SVG Version: 6.00 Build 0)  -->
<!DOCTYPE svg PUBLIC "-//W3C//DTD SVG 1.1//EN" "http://www.w3.org/Graphics/SVG/1.1/DTD/svg11.dtd">
<svg version="1.1" id="Layer_1" xmlns="http://www.w3.org/2000/svg" xmlns:xlink="http://www.w3.org/1999/xlink" x="0px" y="0px"
	 width="1756.33px" height="1756.33px" viewBox="0 0 1756.33 1756.33" enable-background="new 0 0 1756.33 1756.33"
	 xml:space="preserve">
<path id="rings-2_1_" fill="none" stroke="#448784" stroke-width="3" stroke-linecap="round" stroke-miterlimit="10" d="
	M739.537,160.516c396.092-76.463,779.14,182.62,855.604,578.716 M1199.637,1675.333
	c-440.55,177.652-941.659-35.453-1119.312-476.004 M1325.768,409.333c258.678,247.319,267.879,657.466,20.562,916.139
	 M548.74,1354.339c-263.269-181.841-329.272-542.637-147.43-805.906 M579.726,393.031
	c267.671-164.732,618.181-81.285,782.912,186.391 M1402.667,809.405c37.711,289.791-166.624,555.255-456.413,592.965
	 M1057.714,1314.936c-241.5,99.271-517.721-16.019-616.994-257.521 M1102.171,506.753
	c204.867,123.818,270.563,390.249,146.742,595.119 M550.387,1139.666c-144.703-180.932-115.33-444.887,65.604-589.59
	 M683.517,601.925c152.304-107.406,362.819-71.016,470.223,81.284 M648.048,1020.017c-78.613-126.989-39.398-293.657,87.589-372.273
	 M924.119,1067.624c-104.909,25.485-210.603-38.897-236.088-143.802 M1087.274,774.075c57.229,115.596,9.916,255.68-105.684,312.905
	 M1186.573,1044.561c-92.165,170.438-305.038,233.886-475.474,141.717 M345.784,197.546
	C721.416-96.417,1264.17-30.214,1558.126,345.41 M852.066,1527.438c-358.852-14.278-638.155-316.729-623.875-675.595 M369.9,870.965
	c3.68-280.616,234.141-505.101,514.76-501.415 M908.848,507.274c204.599,17.036,356.619,196.685,339.594,401.275 M1217.91,1103.168
	c-124.479,187.787-377.6,239.094-565.382,114.604 M582.944,1113.21c-130.102-162.938-103.489-400.456,59.435-530.559
	 M757.171,753.11c68.8-66.729,178.642-65.043,245.358,3.752 M757.789,928.928c-28.321-66.363,2.521-143.113,68.886-171.431
	 M211.548,1119.751C77.781,751.631,267.746,344.809,635.866,211.04 M1686.947,988.874
	c-61.486,446.756-473.467,759.049-920.219,697.557 M429.795,1516.378C76.98,1268.802-8.33,782.126,239.245,429.306 M967.27,1621.182
	c-410.715,49.271-783.573-243.718-832.841-654.429 M1474.745,518.518c198.294,329.56,91.89,757.422-237.667,955.713
	 M705.471,279.754c330.165-95.317,675.053,95.041,770.374,425.205 M903.288,1320.929c-244.88,13.936-454.672-173.27-468.604-418.149
	 M524.567,919.007c-22.896-195.231,116.798-372.05,312.03-394.946 M773.501,651.218c124.998-57.744,273.132-3.229,330.876,121.77
	 M879.774,1120.605c-134.239,0.942-243.818-107.104-244.763-241.348 M909.541,708.371c93.43,17.385,155.072,107.212,137.686,200.642
	 M999.53,952.033c-41.139,67.077-128.855,88.104-195.935,46.972 M801.287,788.375c49.247-42.4,123.535-36.85,165.938,12.396
	 M975.11,845.002c17.976,53.589-10.896,111.597-64.485,129.571 M903.648,798.845c43.459,14.128,67.234,60.808,53.104,104.269
	 M928.508,896.047c-10.215,27.858-41.079,42.16-68.938,31.943 M871.982,843.944c18.562-3.354,36.322,8.968,39.683,27.525
	 M855.257,883.806c-3.452-12.59,3.951-25.598,16.544-29.053 M1178.586,813.054c35.621,165.981-70.052,329.391-236.032,365.011
	 M1059.567,452.984c234.479,100.244,343.294,371.583,243.046,606.063 M677.079,1211.709
	c-184.503-111.194-243.927-350.881-132.732-535.386 M1153.921,1387.483c-281.597,152.178-633.212,47.268-785.388-234.328
	 M151.595,797.465c44.364-401.345,405.651-690.71,807-646.347 M940.006,1410.135c-294.094,34.021-560.062-176.788-594.084-470.884
	 M533.359,903.493c-14.275-190.577,128.632-356.622,319.208-370.896 M823.582,1176.547
	c-165.084-30.277-274.356-188.641-244.076-353.725 M645.801,717.254c88.587-128.471,264.532-160.799,393.003-72.212 M963.331,639.91
	c131.306,46.902,199.722,191.355,152.819,322.663 M656.898,944.731c-37.053-122.341,32.083-251.542,154.425-288.596
	 M1102.021,890.746c-7.23,123.506-113.207,217.755-236.714,210.521 M857.039,1056.562
	c-98.816-11.802-169.352-101.467-157.551-200.28 M927.973,785.788c50.737,27.374,69.675,90.69,42.303,141.426 M758.333,843.974
	c18.597-66.32,87.428-105.003,153.749-86.405 M815.582,701.156c97.477-34.7,204.622,16.188,239.32,113.666 M846.562,1337.716
	c-254.104-17.574-445.825-237.789-428.252-491.887 M1345.348,1024.932c-81.271,257.959-356.246,401.188-614.199,319.911
	 M1120.872,629.068c137.299,133.896,140.059,353.721,6.157,491.024 M592.191,761.393c64.176-158.099,244.347-234.229,402.445-170.05
	 M1077.628,1061.868c-101.733,110.041-273.401,116.771-383.442,15.033 M733.801,1013.606
	c-75.102-79.871-71.233-205.482,8.63-280.585 M824.089,666.701c116.5-30.038,235.278,40.051,265.312,156.552 M1079.648,889.61
	c-6.598,111.147-102.028,195.893-213.173,189.302 M912.738,738.011c77.131,18.957,124.29,96.841,105.337,173.976 M881.835,970.251
	c-51.146,1.896-94.131-38.023-96.022-89.164 M944.415,900.261c-12.476,36.455-52.14,55.891-88.594,43.413 M1006.684,380.646
	c274.515,70.889,439.563,350.866,368.677,625.378 M395.971,597.83c154.526-266.435,495.755-357.147,762.188-202.62 M1305.16,546.05
	c183.156,235.738,140.534,575.294-95.204,758.449 M1422.216,736.445c78,300.393-102.265,607.11-402.651,685.112 M1350.005,511.208
	c202.402,260.508,155.302,635.735-105.208,838.139 M617.961,1423.186c-301.29-143.804-428.945-504.595-285.14-805.884
	 M1229.366,1019.727c-78.46,193.882-299.214,287.438-493.095,208.979 M597.122,544.453
	c184.04-155.313,459.117-132.025,614.427,52.016 M1284.488,784.348c51.539,224.318-88.515,447.929-312.832,499.47 M1108.654,550.702
	c180.588,127.21,223.854,376.711,96.645,557.297 M513.255,806.929c39.074-201.634,234.188-333.399,435.821-294.325
	 M733.205,1176.564c-165.078-80.153-233.917-278.934-153.764-444.014 M731.088,595.976
	c155.583-81.319,347.615-21.125,428.938,134.458 M1026.753,692.713c102.153,81.975,118.511,231.229,36.535,333.381
	 M1033.419,987.535c-60.677,85.654-179.294,105.902-264.949,45.227 M838.945,1004.85c-70.236-21.752-109.54-96.315-87.788-166.555
	 M964.502,780.608c53.606,47.594,58.482,129.625,10.887,183.234 M805.384,933.558c-30.862-40.284-23.226-97.957,17.062-128.818
	 M856.743,804.711c40.293-11.919,82.616,11.08,94.536,51.373 M876.931,940.493c-34.692-0.772-62.188-29.521-61.419-64.215
	 M828.188,855.909c12.017-27.689,44.2-40.392,71.891-28.375 M1545.367,910.31c-18.024,368.356-331.217,652.319-699.573,634.296
	 M840.052,899.761c-12.195-21.136-4.952-48.155,16.188-60.352 M469.046,378.809c275.431-225.969,681.855-185.901,907.844,89.525
	 M864.921,852.305c14.008-7.403,31.366-2.051,38.771,11.958 M868.733,893.179c-8.564-5.3-11.21-16.538-5.911-25.103
	 M889.614,883.338c-3.129,6.229-10.715,8.746-16.947,5.617 M736.026,795.878c45.176-78.594,145.501-105.679,224.095-60.503
	 M654.591,981.292c-57.227-123.567-3.449-270.124,120.121-327.351"/>
</svg>
