<?xml version="1.0" encoding="utf-8"?>
<!-- Generator: Adobe Illustrator 16.0.0, SVG Export Plug-In . SVG Version: 6.00 Build 0)  -->
<!DOCTYPE svg PUBLIC "-//W3C//DTD SVG 1.1//EN" "http://www.w3.org/Graphics/SVG/1.1/DTD/svg11.dtd">
<svg version="1.1" xmlns="http://www.w3.org/2000/svg" xmlns:xlink="http://www.w3.org/1999/xlink" x="0px" y="0px" width="1200px"
	 height="800px" viewBox="0 0 1200 800" enable-background="new 0 0 1200 800" xml:space="preserve">
<g id="Layer_2">
	<rect x="-3.741" y="-17.722" fill="#031928" stroke="#000000" stroke-miterlimit="10" width="1212.122" height="825.083"/>
</g>
<g id="Layer_3_copy" display="none">
	<path id="star_66_" display="inline" fill="none" stroke="#448784" stroke-linecap="round" stroke-miterlimit="10" d="M467-348.942
		c387.688,0,701.94,314.254,701.94,701.941c0,387.688-314.253,701.94-701.94,701.94c-387.686,0-701.94-314.253-701.94-701.94
		C-234.94-34.688,79.314-348.942,467-348.942z"/>
	<path id="star_65_" display="inline" fill="none" stroke="#448784" stroke-linecap="round" stroke-miterlimit="10" d="
		M466.999-556.499C969.32-556.499,1376.5-149.323,1376.5,353c0,502.325-407.18,909.499-909.501,909.499
		C-35.324,1262.498-442.5,855.324-442.5,353C-442.5-149.323-35.324-556.499,466.999-556.499z"/>
	<path id="star_64_" display="inline" fill="none" stroke="#448784" stroke-linecap="round" stroke-miterlimit="10" d="M467-690
		c576.054,0,1043,466.946,1043,1043c0,576.059-466.946,1043-1043,1043c-576.057,0-1043-466.941-1043-1043
		C-576-223.054-109.057-690,467-690z"/>
	<path id="star_63_" display="inline" fill="none" stroke="#448784" stroke-linecap="round" stroke-miterlimit="10" d="M467-415.381
		c424.384,0,768.383,344,768.383,768.381c0,424.386-343.999,768.385-768.383,768.385S-301.384,777.386-301.384,353
		C-301.384-71.381,42.616-415.381,467-415.381z"/>
	<path id="star_62_" display="inline" fill="none" stroke="#448784" stroke-linecap="round" stroke-miterlimit="10" d="M467-611.694
		c532.808,0,964.693,431.886,964.693,964.694c0,532.804-431.886,964.691-964.693,964.691
		c-532.806,0-964.692-431.887-964.692-964.691C-497.692-179.808-65.806-611.694,467-611.694z"/>
	<path id="star_61_" display="inline" fill="none" stroke="#448784" stroke-linecap="round" stroke-miterlimit="10" d="M467-473.558
		c456.514,0,826.558,370.044,826.558,826.558S923.514,1179.556,467,1179.556c-456.513,0-826.558-370.042-826.558-826.556
		S10.487-473.558,467-473.558z"/>
	<path id="star_60_" display="inline" fill="none" stroke="#448784" stroke-linecap="round" stroke-miterlimit="10" d="M467-317.973
		c370.582,0,670.974,300.391,670.974,670.973c0,370.583-300.392,670.974-670.974,670.974
		c-370.583,0-670.974-300.391-670.974-670.974C-203.974-17.583,96.417-317.973,467-317.973z"/>
	<path id="star_59_" display="inline" fill="none" stroke="#448784" stroke-linecap="round" stroke-miterlimit="10" d="M467-269.722
		c343.935,0,622.723,278.788,622.723,622.722c0,343.934-278.788,622.723-622.723,622.723
		c-343.934,0-622.723-278.789-622.723-622.723C-155.723,9.065,123.066-269.722,467-269.722z"/>
	<path id="star_58_" display="inline" fill="none" stroke="#448784" stroke-linecap="round" stroke-miterlimit="10" d="M467-203.748
		c307.494,0,556.746,249.251,556.746,556.747c0,307.494-249.252,556.746-556.746,556.746
		c-307.496,0-556.747-249.252-556.747-556.746C-89.747,45.503,159.504-203.748,467-203.748z"/>
	<path id="star_57_" display="inline" fill="none" stroke="#448784" stroke-linecap="round" stroke-miterlimit="10" d="M467-193.9
		c302.057,0,546.9,244.844,546.9,546.9c0,302.057-244.844,546.899-546.9,546.899S-79.9,655.057-79.9,353
		C-79.9,50.944,164.943-193.9,467-193.9z"/>
	<path id="star_56_" display="inline" fill="none" stroke="#448784" stroke-linecap="round" stroke-miterlimit="10" d="M467-155.496
		c280.847,0,508.495,227.649,508.495,508.496S747.847,861.497,467,861.497c-280.846,0-508.497-227.65-508.497-508.497
		S186.154-155.496,467-155.496z"/>
	<path id="star_55_" display="inline" fill="none" stroke="#448784" stroke-linecap="round" stroke-miterlimit="10" d="M467-101.337
		c250.933,0,454.336,203.402,454.336,454.336c0,250.934-203.403,454.338-454.336,454.338
		c-250.934,0-454.336-203.404-454.336-454.338C12.664,102.064,216.066-101.337,467-101.337z"/>
	<path id="star_54_" display="inline" fill="none" stroke="#448784" stroke-linecap="round" stroke-miterlimit="10" d="M467-81.643
		c240.056,0,434.643,194.586,434.643,434.643c0,240.056-194.587,434.643-434.643,434.643C226.943,787.643,32.357,593.056,32.357,353
		C32.357,112.943,226.943-81.643,467-81.643z"/>
	<path id="star_53_" display="inline" fill="none" stroke="#448784" stroke-linecap="round" stroke-miterlimit="10" d="M467-50.131
		c222.651,0,403.131,180.479,403.131,403.131c0,222.653-180.479,403.133-403.131,403.133C244.347,756.133,63.868,575.653,63.868,353
		C63.868,130.348,244.347-50.131,467-50.131z"/>
	<path id="star_52_" display="inline" fill="none" stroke="#448784" stroke-linecap="round" stroke-miterlimit="10" d="M467,28.72
		c179.102,0,324.279,145.178,324.279,324.28c0,179.103-145.178,324.279-324.279,324.279c-179.102,0-324.28-145.176-324.28-324.279
		C142.72,173.897,287.898,28.72,467,28.72z"/>
	<path id="star_51_" display="inline" fill="none" stroke="#448784" stroke-linecap="round" stroke-miterlimit="10" d="M467,93.112
		c143.537,0,259.889,116.351,259.889,259.888c0,143.538-116.352,259.887-259.889,259.887c-143.538,0-259.887-116.35-259.887-259.887
		C207.113,209.462,323.462,93.112,467,93.112z"/>
	<path id="star_50_" display="inline" fill="none" stroke="#448784" stroke-linecap="round" stroke-miterlimit="10" d="M467,165.147
		c103.752,0,187.853,84.1,187.853,187.852c0,103.752-84.101,187.853-187.853,187.853S279.147,456.752,279.147,353
		C279.147,249.248,363.248,165.147,467,165.147z"/>
	<path id="star_49_" display="inline" fill="none" stroke="#448784" stroke-linecap="round" stroke-miterlimit="10" d="M467,175.516
		c98.025,0,177.482,79.458,177.482,177.484c0,98.025-79.458,177.483-177.482,177.483c-98.025,0-177.483-79.458-177.483-177.483
		C289.517,254.974,368.975,175.516,467,175.516z"/>
	<path id="star_48_" display="inline" fill="none" stroke="#448784" stroke-linecap="round" stroke-miterlimit="10" d="M467,227.354
		c69.394,0,125.646,56.25,125.646,125.646S536.394,478.645,467,478.645c-69.395,0-125.646-56.25-125.646-125.645
		S397.605,227.354,467,227.354z"/>
	
		<circle id="star_47_" display="inline" fill="none" stroke="#448784" stroke-linecap="round" stroke-miterlimit="10" cx="467" cy="353" r="104.033"/>
	
		<circle id="star_46_" display="inline" fill="none" stroke="#448784" stroke-linecap="round" stroke-miterlimit="10" cx="467" cy="353" r="85.918"/>
	
		<circle id="star_45_" display="inline" fill="none" stroke="#448784" stroke-linecap="round" stroke-miterlimit="10" cx="467" cy="352.999" r="76.441"/>
	
		<circle id="star_44_" display="inline" fill="none" stroke="#448784" stroke-linecap="round" stroke-miterlimit="10" cx="467" cy="353" r="67.14"/>
	
		<circle id="star_43_" display="inline" fill="none" stroke="#448784" stroke-linecap="round" stroke-miterlimit="10" cx="467" cy="353" r="59.135"/>
	
		<circle id="star_42_" display="inline" fill="none" stroke="#448784" stroke-linecap="round" stroke-miterlimit="10" cx="467" cy="353" r="53.899"/>
	
		<circle id="star_41_" display="inline" fill="none" stroke="#448784" stroke-linecap="round" stroke-miterlimit="10" cx="467" cy="352.999" r="49.88"/>
	
		<circle id="star_40_" display="inline" fill="none" stroke="#448784" stroke-linecap="round" stroke-miterlimit="10" cx="467" cy="353" r="39.23"/>
	
		<circle id="star_39_" display="inline" fill="none" stroke="#448784" stroke-linecap="round" stroke-miterlimit="10" cx="467" cy="353" r="35.583"/>
	
		<circle id="star_38_" display="inline" fill="none" stroke="#448784" stroke-linecap="round" stroke-miterlimit="10" cx="467" cy="353" r="27.41"/>
	
		<circle id="star_37_" display="inline" fill="none" stroke="#448784" stroke-linecap="round" stroke-miterlimit="10" cx="467" cy="353" r="22.925"/>
	
		<circle id="star_36_" display="inline" fill="none" stroke="#448784" stroke-linecap="round" stroke-miterlimit="10" cx="467" cy="353" r="17.262"/>
	<path id="star_35_" display="inline" fill="none" stroke="#448784" stroke-linecap="round" stroke-miterlimit="10" d="M467,128.561
		c123.96,0,224.438,100.479,224.438,224.439c0,123.959-100.478,224.44-224.438,224.44S242.561,476.959,242.561,353
		C242.561,229.039,343.04,128.561,467,128.561z"/>
	<path id="star_34_" display="inline" fill="none" stroke="#448784" stroke-linecap="round" stroke-miterlimit="10" d="M467,15.843
		c186.21,0,337.156,150.947,337.156,337.157c0,186.209-150.946,337.158-337.156,337.158S129.843,539.209,129.843,353
		C129.843,166.79,280.79,15.843,467,15.843z"/>
</g>
<g id="rings-2" display="none">
	<path id="rings-2_1_" display="inline" fill="none" stroke="#448784" stroke-linecap="round" stroke-miterlimit="10" d="
		M998.687,393.962C976.023,687.657,719.586,907.353,425.89,884.688 M939.166,857.441
		c-278.648,260.822-715.937,246.369-976.757-32.278 M920.885-296.604c358.757,250.735,446.315,744.787,195.58,1103.543
		 M788.726-134.208c269.046,177.731,343.064,539.885,165.333,808.933 M1079.827-49.096
		c222.039,338.509,127.631,792.882-210.88,1014.921 M-156.91,425.354c-40.004-344.55,206.859-656.263,551.408-696.266
		 M221.079,799.545C-25.592,663.764-115.478,353.751,20.303,107.081 M710.234,758.719
		C486.109,893.103,195.507,820.359,61.125,596.233 M194.86,29C373.765-121.267,640.586-98.052,790.854,80.853 M865.822,236.509
		c64.298,220.314-62.17,451.02-282.485,515.317 M413.653,735.592C202.3,706.17,54.831,511.003,84.252,299.65 M124.293,395.029
		C101.037,205.79,235.578,33.546,424.817,10.289 M684.822,582.446C558.057,702.795,357.749,697.591,237.4,570.825 M345.713,71.626
		c155.363-66.947,335.565,4.722,402.513,160.085 M698.671,269.249c46.216,127.996-20.073,269.209-148.068,315.426 M411.105,163.512
		c104.612-30.831,214.403,28.978,245.234,133.591 M324.254,348.722c2.319-78.798,68.071-140.791,146.869-138.473 M499.453,520.32
		c-92.456,17.97-181.964-42.406-199.933-134.863 M289.799,537.997c-102.217-97.825-105.777-259.984-7.953-362.2 M1048.67,109.531
		c134.448,321.299-17.01,690.715-338.304,825.161 M360.38-308.059c365.098-58.972,708.85,189.16,767.823,554.257 M935.678,685.762
		C751.86,944.683,392.981,1005.562,134.055,821.753 M14.374,209.166C93.746-40.778,360.681-179.04,610.633-99.666 M500.487,774.02
		C267.909,792.609,64.319,619.153,45.733,386.573 M569.795-3.566C766.694,53.229,880.258,258.88,823.454,455.777 M721.798,446.207
		c-51.517,140.785-207.39,213.139-348.171,161.63 M242.474,548.743c-108.193-123.932-95.428-312.089,28.508-420.276 M358.057,99.665
		c139.872-60.144,301.988,4.475,362.136,144.339 M615.446,510.843c-87.218,82.043-224.419,77.855-306.464-9.358 M275.219,396.656
		c-24.165-105.888,42.074-211.306,147.96-235.477 M427.807,499.272c-80.83-21.602-128.839-104.623-107.239-185.455 M577.981,291.912
		c33.7,61.338,11.297,138.361-50.037,172.056 M454.053,258.386c52.203-7.124,100.291,29.42,107.414,81.623 M-219.132,501.141
		c-81.819-378.955,159.036-752.451,537.991-834.27 M25.938,975.066C-317.639,731.471-398.686,255.514-155.09-88.064
		 M-200.159,34.906C-24.473-333.568,416.62-489.842,785.094-314.157 M-39.321-224.969
		c319.218-279.646,804.648-247.569,1084.293,71.646 M-270.253,1.483c194.144-407.19,681.579-579.882,1088.77-385.736
		 M1293.391,336.436c9.148,456.421-353.406,833.808-809.828,842.955 M425.189-163.134
		c285.066-23.091,534.855,189.265,557.945,474.332 M232.359,901.114C-70.366,771.519-210.702,421.085-81.105,118.359
		 M103.729-86.059c242.493-200.629,601.685-166.697,802.315,75.798 M-73.894,272.182c44.641-298.74,322.981-504.711,621.72-460.07
		 M604.569,842.538c-270.374,75.978-551.12-81.597-627.098-351.972 M921.302,346.939c3.348,250.911-197.322,457.009-448.235,460.357
		 M213.115,705.789C18.271,565.565-26.005,293.963,114.219,99.119 M575.009-35.393c214.512,59.654,340.038,281.89,280.384,496.401
		 M149.901,285.124C187.392,109.99,359.742-1.582,534.877,35.909 M506.087,96.068c141.905,21.588,239.434,154.114,217.846,296.019
		 M652.307,322.139c17.045,102.342-52.095,199.116-154.437,216.162 M295.51,307.262c25.266-94.713,122.519-151.007,217.232-125.741
		 M580.055,407.852c-30.291,62.435-105.453,88.49-167.889,58.199 M391.087,424.154c-39.291-41.926-37.155-107.758,4.769-147.049
		 M544.626,316.166c20.346,42.871,2.088,94.112-40.782,114.458 M471.27,429.342c-42.153,2.358-78.232-29.899-80.591-72.053
		 M439.835,291.599c33.912-15.001,73.56,0.328,88.561,34.24 M414.72,380.653c-15.268-28.872-4.239-64.651,24.634-79.919
		 M512.034,382.643c-16.364,24.867-49.786,31.759-74.653,15.394 M480.33,304.932c26.547,7.361,42.099,34.847,34.738,61.395
		 M444.228,384.956c-17.644-12.576-21.752-37.072-9.176-54.716 M502.445,356.156c-1.742,19.576-19.021,34.031-38.598,32.289
		 M477.59,378.287c-13.963,5.851-30.023-0.725-35.873-14.689 M445.597,344.781c4.54-11.82,17.802-17.721,29.622-13.181 M467,335.738
		c9.534,0,17.262,7.728,17.262,17.262 M454.368,577.092c-123.764-6.979-218.424-112.956-211.444-236.72 M730.916,562.83
		C615.031,708.586,402.938,732.8,257.182,616.914"/>
</g>
<g id="Layer_6" display="none">
	<path id="star_68_" display="inline" fill="none" stroke="#D900FF" stroke-linecap="round" stroke-miterlimit="10" d="
		M245.881,1247.594c-494.138-122.086-795.71-621.587-673.619-1115.722c122.083-494.129,621.583-795.709,1115.716-673.624
		c494.133,122.086,795.712,621.588,673.628,1115.724C1239.521,1068.105,740.023,1369.678,245.881,1247.594z"/>
	<path id="star_83_" display="inline" fill="none" stroke="#D900FF" stroke-linecap="round" stroke-miterlimit="10" d="
		M136.666,469.387C72.385,286.941,168.169,86.951,350.611,22.671c182.444-64.28,382.438,31.501,446.714,213.944
		c64.282,182.444-31.499,382.433-213.942,446.715C400.935,747.609,200.946,651.831,136.666,469.387z"/>
</g>
<g id="rings-1">
	<path id="rings-1_1_" fill="none" stroke="#448784" stroke-width="3" stroke-linecap="round" stroke-miterlimit="10" d="
		M265.749,687.044C81.246,575.85,21.822,336.163,133.017,151.658 M742.591,862.818C460.994,1014.996,109.379,910.086-42.797,628.49
		 M-259.735,272.8c44.364-401.345,405.651-690.71,807-646.347 M528.676,885.47C234.582,919.491-31.386,708.682-65.408,414.586
		 M624.465-78.484c238.303,86.926,361.006,350.555,274.08,588.859 M255.873,45.748c169.689-116.649,401.79-73.657,518.44,96.031
		 M122.029,378.828C107.754,188.251,250.661,22.206,441.236,7.933 M768.056,281.482c39.494,166.234-63.24,332.993-229.474,372.486
		 M412.252,651.882c-165.084-30.278-274.356-188.641-244.076-353.725 M234.471,192.589
		C323.059,64.118,499.003,31.79,627.475,120.377 M552.001,115.245c131.306,46.903,199.722,191.356,152.819,322.663 M245.568,420.066
		c-37.052-122.34,32.083-251.542,154.425-288.594 M690.692,366.081c-7.231,123.506-113.207,217.755-236.713,210.522
		 M445.709,531.898c-98.816-11.8-169.352-101.465-157.551-200.281 M609.183,378.663c-14.182,78.485-89.299,130.61-167.785,116.43
		 M516.643,261.123c50.737,27.374,69.672,90.69,42.3,141.426 M347.003,319.309c18.597-66.321,87.428-105.003,153.749-86.406
		 M404.252,176.491c97.477-34.7,204.622,16.189,239.32,113.666 M435.232,813.051C181.129,795.477-10.593,575.262,6.981,321.164
		 M934.018,500.267c-81.273,257.959-356.246,401.185-614.202,319.911 M709.542,104.403
		c137.299,133.896,140.059,353.721,6.157,491.025 M180.861,236.728C245.037,78.629,425.208,2.498,583.307,66.678 M666.298,537.203
		c-101.733,110.041-273.402,116.771-383.442,15.033 M322.471,488.941c-75.102-79.871-71.234-205.482,8.63-280.585 M412.759,142.036
		c116.5-30.038,235.278,40.051,265.311,156.552 M668.318,364.946c-6.595,111.148-102.028,195.892-213.172,189.301 M501.408,213.346
		c77.131,18.957,124.29,96.841,105.337,173.974 M470.505,445.586c-51.146,1.895-94.131-38.023-96.024-89.164 M533.085,375.596
		c-12.476,36.455-52.14,55.889-88.594,43.413 M595.354-144.019c274.512,70.889,439.563,350.866,368.674,625.378 M-15.359,73.165
		c154.526-266.435,495.755-357.147,762.188-202.62 M893.83,21.385c183.156,235.738,140.534,575.294-95.204,758.449 M1010.886,211.78
		c78,300.393-102.265,607.111-402.654,685.113 M938.675-13.457c202.402,260.508,155.302,635.735-105.208,838.139 M206.631,898.521
		C-94.659,754.717-222.314,393.926-78.509,92.637 M818.036,495.062c-78.46,193.88-299.214,287.437-493.094,208.978 M185.792,19.788
		c184.04-155.313,459.117-132.025,614.427,52.016 M873.158,259.683c51.539,224.318-88.513,447.928-312.832,499.469 M697.324,26.037
		c180.588,127.21,223.855,376.711,96.645,557.297 M101.925,282.264C140.999,80.63,336.113-51.136,537.746-12.061 M321.875,651.9
		C156.797,571.746,87.958,372.967,168.111,207.887 M319.758,71.311c155.583-81.32,347.615-21.125,428.936,134.458 M615.423,168.048
		c102.153,81.975,118.511,231.227,36.535,333.381 M622.089,462.87c-60.677,85.655-179.294,105.904-264.949,45.227 M427.615,480.185
		c-70.236-21.752-109.54-96.318-87.788-166.555 M553.172,255.943c53.606,47.594,58.482,129.626,10.887,183.235 M394.054,408.893
		c-30.864-40.285-23.226-97.957,17.059-128.82 M445.413,280.046c40.293-11.919,82.616,11.08,94.536,51.373 M465.601,415.828
		c-34.695-0.772-62.191-29.521-61.419-64.215 M416.857,331.244c12.016-27.689,44.202-40.391,71.89-28.375 M1134.037,385.644
		c-18.024,368.357-331.216,652.32-699.573,634.296 M428.722,375.096c-12.198-21.136-4.952-48.155,16.185-60.352 M57.716-145.856
		C333.146-371.825,739.571-331.757,965.56-56.331 M453.591,327.64c14.008-7.404,31.366-2.051,38.77,11.958 M457.403,368.514
		c-8.564-5.3-11.21-16.538-5.911-25.103 M478.284,358.673c-3.129,6.23-10.715,8.746-16.947,5.617 M324.696,271.213
		c45.176-78.594,145.501-105.679,224.095-60.503 M243.261,456.627c-57.227-123.567-3.449-270.124,120.121-327.351"/>
</g>
<g id="Layer_1">
	<g id="center">
		<path id="_x34_" fill="#FFFFFF" d="M505.4,355.5c-1.4,0-2.5-1.1-2.5-2.5c0-19.8-16.101-35.8-35.801-35.8c-1.399,0-2.5-1.1-2.5-2.5
			c0-1.4,1.101-2.5,2.5-2.5c22.5,0,40.801,18.3,40.801,40.8C507.9,354.4,506.8,355.5,505.4,355.5z"/>
		<path id="_x33_" fill="#FFFFFF" d="M498.1,355.5c-1.399,0-2.5-1.1-2.5-2.5c0-15.7-12.8-28.6-28.6-28.6c-1.4,0-2.5-1.1-2.5-2.5
			s1.1-2.5,2.5-2.5c18.5,0,33.6,15.1,33.6,33.6C500.6,354.4,499.5,355.5,498.1,355.5z"/>
		<path id="_x32_" fill="#FFFFFF" d="M490.9,355.5c-1.4,0-2.5-1.1-2.5-2.5c0-11.7-9.601-21.3-21.301-21.3c-1.399,0-2.5-1.1-2.5-2.5
			c0-1.4,1.101-2.5,2.5-2.5c14.5,0,26.301,11.8,26.301,26.3C493.4,354.4,492.2,355.5,490.9,355.5z"/>
		<path id="_x31_" fill="#FFFFFF" d="M483.7,355.5c-1.4,0-2.5-1.1-2.5-2.5c0-7.8-6.3-14.1-14.101-14.1c-1.399,0-2.5-1.1-2.5-2.5
			s1.101-2.5,2.5-2.5c10.5,0,19.101,8.6,19.101,19.1C486.2,354.4,485.1,355.5,483.7,355.5z"/>
		<circle id="star" fill="#00FFFF" cx="467" cy="353" r="8.3"/>
	</g>
	<g id="polaris-lettering">
		<g id="graphics">
			<path id="gS" fill="#FFFFFF" d="M840,417.8c-3.5-3.899-7-5-12.2-5c-10.1,0-14.399,4.2-14.399,10.601c0,6.399,4.1,8.1,14,10.1
				c9.899,2,16.1,4.1,16.1,11.9c0,7.199-5.9,11.199-15.6,11.199c-7.101,0-12.5-2.199-17.2-6.899l0.899-0.8
				c4.5,4.6,9.601,6.6,16.4,6.6c8.8,0,14.3-3.3,14.3-9.9c0-6.6-4.6-8.899-14.8-10.899c-9.8-1.9-15.3-3.7-15.3-11.101
				c0-7.699,6.1-11.899,15.5-11.899c5.6,0,9.7,1.5,13.2,5.3L840,417.8z"/>
			<path id="gC" fill="#FFFFFF" d="M763.1,411.7c7.9,0,13.5,4.1,16.2,9.7l-1.2,0.399c-3.399-6.5-9.5-8.8-15.199-8.8
				c-12.4,0-19.4,10.8-19.4,21c0,11.3,8.7,21.4,19.6,21.4c5.9,0,12.7-2.9,16.101-9.4l1.2,0.3c-3.101,6.7-10.801,10.3-17.5,10.3
				c-12,0-20.601-11.6-20.601-22.8C742.2,423.2,749.8,411.7,763.1,411.7z"/>
			<rect id="gI" x="706.4" y="412" fill="#FFFFFF" width="1.199" height="44.3"/>
			<polygon id="gH" fill="#FFFFFF" points="668.9,412 668.9,456.3 667.7,456.3 667.7,434.2 636.9,434.2 636.9,456.3 635.6,456.3 
				635.6,412 636.9,412 636.9,433 667.7,433 667.7,412 			"/>
			<path id="gP" fill="#FFFFFF" d="M590.5,412h-18v44.3h1.2v-43.1h16.8c6.2,0,11.2,5.899,11.2,12.2c0,6-4.101,12.199-10.8,12.199
				H589.3l0.8,1.2h0.801c7.199,0,12-6.6,12-13.5C603,418.8,597.7,412,590.5,412z"/>
			<polygon id="gA" fill="#FFFFFF" points="520.4,413.8 538.8,456.3 540.2,456.3 520.9,412 519.8,412 500.5,456.3 501.8,456.3 			
				"/>
			<path id="gR" fill="#FFFFFF" d="M469.5,425.4c0-6.601-5.2-13.4-12.5-13.4h-18v44.3h1.2v-43.1H457c6.2,0,11.2,5.899,11.2,12.2
				c0,6.1-4.101,12.199-10.8,12.199H455.8l12.101,18.7h1.5L458.2,438.9C464.8,438.4,469.5,432.2,469.5,425.4z"/>
			<path id="gG" fill="#FFFFFF" d="M402.9,447.3v-12.2h-11.7v1.2H401.6V447c-5,5.8-10.199,8.4-16,8.4
				c-10.899,0-19.699-10.101-19.699-21.2c0-10.4,7.199-21.2,18.899-21.2c6.9,0,12.4,2.6,15.7,8.8l1.2-0.399
				c-2.8-5.601-7.7-9.7-16.9-9.7c-11.8,0-20.2,10.899-20.2,22.5c0,10.899,8.601,22.5,20.9,22.5c6,0,11.4-2.601,16-7.9L402.9,447.3z"
				/>
		</g>
		<g id="p-laris">
			<path id="pS" fill="#FFFFFF" d="M839.8,325.5c-5.899-3.8-13.899-7-23-7c-13.8,0-24.899,7.5-24.899,21.4
				c0,10.5,6.3,14.9,19.3,18.4c10.7,2.9,17.7,4.6,17.7,10.7c0,4.5-3.7,7-10.9,7c-9.5,0-18.9-5.1-22.2-7.7c-0.399-0.4-1-0.3-1.2,0.2
				l-4.899,9.6c-0.3,0.5-0.101,1.2,0.399,1.5c7.801,5.2,18,8.3,27.801,8.3c13.399,0,25.199-5.6,25.199-20.3
				c0-12.5-8.399-16.7-21.899-20.2c-10.3-2.7-15.601-4.1-15.601-9.7c0-4.9,3.601-7.7,10.801-7.7c7.3,0,14.899,3.9,17.6,6
				c0.4,0.4,1,0.3,1.2-0.2l4.899-9C840.4,326.4,840.2,325.8,839.8,325.5z"/>
			<path id="pI" fill="#FFFFFF" d="M753.5,387.1c-0.6,0-1-0.4-1-1V320c0-0.5,0.4-1,1-1h11.2c0.6,0,1,0.5,1,1v66.1c0,0.6-0.4,1-1,1
				H753.5z"/>
			<path id="pR" fill="#FFFFFF" d="M729.5,386.2l-15-23.9c-0.3-0.5-0.2-1,0.1-1.1c7.101-3.4,11.601-11.1,11.601-19.6
				c0-11.1-9.101-22.7-21.7-22.7h-29.1c-0.5,0-1,0.4-1,1v66.2c0,0.6,0.5,1,1,1H686.6c0.5,0,1-0.4,1-1v-54.5c0-0.6,0.4-1,1-1h15
				c4.7,0,9.2,4.7,9.2,11c0,6.1-3.7,11-8.6,11h-9.9c-0.5,0-0.8,0.4-0.5,0.8l20.601,32.8c0.3,0.5,1,0.8,1.5,0.8h13
				C729.6,387.1,729.8,386.7,729.5,386.2z"/>
			<path id="pA" fill="#FFFFFF" d="M621.5,334.3c0.2-0.5,0.5-0.5,0.7,0l18.2,51.9c0.199,0.5,0.8,0.9,1.3,0.9H652.6
				c0.601,0,0.9-0.4,0.7-0.9L630,319.9c-0.2-0.5-0.8-0.9-1.3-0.9H615c-0.5,0-1.1,0.4-1.3,0.9l-23.2,66.3c-0.2,0.5,0.1,0.9,0.7,0.9
				H602c0.5,0,1.1-0.4,1.3-0.9L621.5,334.3z"/>
			<path id="pL" fill="#FFFFFF" d="M524.5,387.1c-0.5,0-1-0.4-1-1v-66.2c0-0.6,0.5-1,1-1h11.2c0.5,0,1,0.4,1,1v54.5
				c0,0.6,0.399,1,1,1h32.7c0.5,0,1,0.5,1,1v9.6c0,0.6-0.5,1-1,1h-45.9V387.1z"/>
			<path id="pP" fill="#FFFFFF" d="M393.7,318.9h-27.9c-0.5,0-1,0.4-1,1v66.2c0,0.6,0.5,1,1,1H377c0.5,0,1-0.4,1-1v-54.5
				c0-0.6,0.4-1,1-1h13.8c4.7,0,9.101,4,9.101,11c0,6.7-3.601,11-8.5,11H384.8c-0.5,0-0.8,0.4-0.5,0.8l6.2,9.9
				c0.3,0.5,1,0.8,1.5,0.8h2.1c12.7,0,21.2-11,21.2-22.7C415.4,330.4,406.3,318.9,393.7,318.9z"/>
		</g>
	</g>
</g>
</svg>
